<svg width="21" height="21" viewBox="0 0 21 21" fill="none" xmlns="http://www.w3.org/2000/svg">
<path fill-rule="evenodd" clip-rule="evenodd" d="M9.84901 0.716394C7.95233 0.841827 6.13209 1.51784 4.60951 2.66225C3.89055 3.20263 3.20263 3.89054 2.66226 4.6095C1.74624 5.82821 1.12126 7.25672 0.85229 8.7465C0.404885 11.2246 0.924803 13.7848 2.3002 15.876C3.03566 16.9942 4.00578 17.9643 5.12401 18.6998C6.03076 19.2962 7.10993 19.7671 8.15279 20.0215C10.8088 20.6695 13.6101 20.1901 15.876 18.6998C16.9925 17.9655 17.9655 16.9925 18.6998 15.876C19.413 14.7916 19.9203 13.522 20.1472 12.2535C20.5159 10.193 20.2328 8.10779 19.332 6.2475C18.8302 5.21128 18.2385 4.37825 17.4302 3.56985C16.3014 2.44108 14.9823 1.63907 13.4457 1.14723C12.3256 0.788697 11.0557 0.636594 9.84901 0.716394ZM9.91201 2.21775C8.24519 2.36105 6.77702 2.91148 5.50728 3.86917C4.74808 4.44177 3.98919 5.26285 3.49346 6.048C2.81228 7.12687 2.40631 8.28553 2.2426 9.618C2.20629 9.91349 2.20629 11.0865 2.2426 11.382C2.45768 13.1327 3.11223 14.6397 4.21044 15.9127C4.44079 16.1798 4.93568 16.6681 5.18701 16.8764C6.44486 17.9188 7.87284 18.5316 9.54451 18.7462C9.96259 18.7999 11.0374 18.7999 11.4555 18.7462C13.1265 18.5317 14.5665 17.9135 15.813 16.8757C16.0743 16.6581 16.544 16.1947 16.7823 15.9194C17.8742 14.658 18.525 13.1787 18.7462 11.4555C18.7999 11.0374 18.7999 9.96259 18.7462 9.5445C18.5317 7.87351 17.9135 6.43348 16.8757 5.187C16.6581 4.92568 16.1947 4.45601 15.9194 4.2177C14.6679 3.13446 13.1836 2.47781 11.487 2.25679C11.2372 2.22426 10.1499 2.19729 9.91201 2.21775ZM10.3191 5.59465C10.0976 5.64837 9.91318 5.80408 9.80984 6.02448L9.75451 6.1425L9.74858 7.94258L9.74266 9.74266L7.94258 9.74858L6.14251 9.7545L6.02333 9.81036C5.42344 10.0916 5.42344 10.9084 6.02333 11.1896L6.14251 11.2455L7.94258 11.2514L9.74266 11.2573L9.74858 13.0574L9.75451 14.8575L9.81037 14.9767C10.0916 15.5766 10.9084 15.5766 11.1896 14.9767L11.2455 14.8575L11.2514 13.0574L11.2573 11.2573L13.0574 11.2514L14.8575 11.2455L14.9767 11.1896C15.5766 10.9084 15.5766 10.0916 14.9767 9.81036L14.8575 9.7545L13.0574 9.74858L11.2573 9.74266L11.2514 7.94258L11.2455 6.1425L11.1902 6.02448C11.0847 5.79949 10.9021 5.64795 10.6711 5.59356C10.5286 5.56002 10.4608 5.56023 10.3191 5.59465Z" fill="currentColor"/>
</svg>
