<svg width="21" height="21" viewBox="0 0 21 21" fill="none" xmlns="http://www.w3.org/2000/svg">
<path fill-rule="evenodd" clip-rule="evenodd" d="M7.32218 0.715181C6.89907 0.764363 6.52325 0.877994 6.132 1.07508C5.76261 1.26116 5.50305 1.44796 5.2185 1.73251C4.71732 2.23369 4.37991 2.86686 4.23856 3.57156C4.19729 3.77725 4.19064 3.87297 4.19192 4.24201C4.19276 4.47878 4.20315 4.71738 4.21502 4.77226L4.23658 4.87201L3.50954 4.87207C3.10828 4.87209 2.69781 4.88251 2.5935 4.89529C2.08182 4.958 1.63044 5.18551 1.281 5.55686C1.03455 5.81879 0.862368 6.13121 0.761547 6.49951L0.70407 6.70951L0.703776 8.3895L0.703503 10.0695L0.759363 10.1887C0.872322 10.4296 1.06987 10.5816 1.32863 10.6267C1.45396 10.6485 1.49968 10.6459 1.71709 10.6046C2.27264 10.4991 2.83635 10.6079 3.276 10.9056C3.90359 11.3306 4.26013 12.1131 4.15834 12.8422C4.0437 13.6633 3.48852 14.3096 2.69697 14.5434C2.42 14.6252 2.0521 14.6372 1.70587 14.5757C1.41775 14.5246 1.29337 14.534 1.11437 14.6202C0.970749 14.6894 0.81348 14.8574 0.753987 15.0052L0.703503 15.1305L0.69714 16.6635C0.693087 17.6381 0.698778 18.2662 0.712743 18.3879C0.77106 18.8957 0.987633 19.3389 1.35011 19.6923C1.55967 19.8966 1.76902 20.0349 2.03016 20.1415C2.42361 20.3023 2.32905 20.2965 4.578 20.2965H6.5835L6.7095 20.2377C6.94834 20.1263 7.1165 19.8992 7.1501 19.6429C7.1597 19.5698 7.14943 19.4485 7.11814 19.2649C7.04229 18.8197 7.0812 18.4462 7.24423 18.0546C7.48423 17.4781 8.05607 17.008 8.6835 16.8714C8.943 16.8149 9.34252 16.8229 9.59723 16.8897C10.3213 17.0795 10.8436 17.5865 11.0599 18.3093C11.1366 18.5656 11.1506 18.9857 11.093 19.3017C11.062 19.4714 11.0565 19.5556 11.0699 19.6536C11.1045 19.9066 11.2559 20.1166 11.4843 20.2284L11.6235 20.2965H12.9465C14.1613 20.2965 14.2831 20.2933 14.4357 20.2576C15.1292 20.095 15.6986 19.616 15.9605 18.9748C16.1065 18.6174 16.1122 18.5698 16.1222 17.6168L16.1313 16.764L16.2294 16.7854C16.2833 16.7972 16.526 16.8071 16.7685 16.8074C17.1453 16.8079 17.2416 16.8012 17.43 16.7613C18.3884 16.5586 19.1866 16.0281 19.7034 15.2504C20.652 13.8227 20.4557 11.9504 19.2328 10.7606C18.6229 10.1672 17.8635 9.82609 17.0217 9.7675C16.7728 9.75016 16.3786 9.76433 16.2068 9.7968L16.128 9.81169L16.1279 8.35509C16.1278 7.1891 16.1217 6.85871 16.0973 6.69901C15.9517 5.74498 15.1937 5.01369 14.2275 4.89529C14.1068 4.88049 13.5235 4.87211 12.6133 4.87207L11.1881 4.87201L11.2007 4.82476C11.2337 4.70151 11.2597 4.29119 11.2484 4.07401C11.1566 2.31811 9.83907 0.914744 8.09464 0.714908C7.88097 0.690422 7.53413 0.690548 7.32218 0.715181ZM7.4235 2.21803C7.4004 2.22374 7.30874 2.24621 7.21982 2.26794C6.87599 2.35196 6.57254 2.52156 6.30576 2.77879C5.90174 3.16838 5.691 3.66637 5.691 4.23151C5.691 4.58998 5.76486 4.87973 5.94529 5.22901C6.0371 5.40673 6.0375 5.40845 6.03733 5.62801C6.03719 5.81961 6.03041 5.86226 5.98551 5.95351C5.91602 6.09473 5.76958 6.23719 5.61704 6.31195L5.4915 6.37351L4.0845 6.38401C2.69407 6.39438 2.67633 6.39505 2.57838 6.44029C2.441 6.50377 2.30091 6.65425 2.24828 6.79491C2.20666 6.90615 2.205 6.95147 2.205 7.97929V9.04798L2.32575 9.05999C2.82171 9.10932 3.02129 9.14977 3.339 9.26531C4.58262 9.71757 5.46508 10.807 5.64886 12.117C5.66261 12.2152 5.67389 12.4278 5.67389 12.5895C5.67389 13.2739 5.50444 13.8708 5.14183 14.4638C5.01277 14.6749 4.88561 14.8352 4.67378 15.0541C4.19904 15.5446 3.62105 15.8718 2.9505 16.0299C2.75344 16.0763 2.38134 16.128 2.24406 16.128C2.20454 16.128 2.20372 16.1538 2.20954 17.2358L2.2155 18.3435L2.27737 18.4552C2.34646 18.5799 2.43567 18.6665 2.56784 18.7371L2.6565 18.7845L4.10817 18.7903L5.55982 18.7961L5.57263 18.7483C5.57966 18.722 5.58556 18.6551 5.58571 18.5995C5.58672 18.2436 5.75396 17.6461 5.96516 17.2438C6.45368 16.3132 7.25399 15.6822 8.274 15.4234C8.78773 15.293 9.45569 15.2977 9.996 15.4355C11.1853 15.7388 12.1568 16.6857 12.5055 17.8815C12.5635 18.0805 12.6418 18.5537 12.6419 18.7067L12.642 18.797L13.4033 18.7907C14.1471 18.7847 14.1665 18.7834 14.2532 18.7371C14.3853 18.6665 14.4745 18.5799 14.5436 18.4552L14.6055 18.3435L14.6165 16.9365C14.6255 15.804 14.6333 15.5152 14.6568 15.456C14.734 15.2618 14.8808 15.1009 15.057 15.0173C15.1563 14.9702 15.2005 14.9625 15.372 14.9625C15.5683 14.9625 15.5752 14.9642 15.8025 15.0708C16.2267 15.2695 16.445 15.3187 16.8357 15.3036C17.145 15.2917 17.3514 15.2442 17.6085 15.1256C18.0531 14.9207 18.3732 14.6065 18.5879 14.1645C18.7132 13.9066 18.7721 13.684 18.7885 13.407C18.8304 12.6948 18.4951 12.0129 17.9082 11.6169C17.4498 11.3075 16.923 11.1983 16.38 11.3001C16.1923 11.3352 16.0691 11.3789 15.8025 11.5046C15.5569 11.6205 15.546 11.6235 15.372 11.6227C15.2146 11.6221 15.1769 11.6139 15.0532 11.5541C14.8905 11.4754 14.7635 11.3449 14.6814 11.172L14.6265 11.0565L14.616 8.946L14.6055 6.83551L14.5581 6.74684C14.4838 6.60778 14.3922 6.51662 14.2628 6.4531L14.1435 6.39451L12.043 6.38401L9.94258 6.37351L9.80238 6.30448C9.57199 6.19104 9.43045 6.00187 9.38631 5.74836C9.35533 5.57047 9.38179 5.43825 9.49519 5.2046C9.62546 4.93622 9.66057 4.83691 9.70398 4.61402C9.8296 3.96911 9.64356 3.33124 9.18559 2.83658C9.02139 2.65921 8.84451 2.53111 8.5995 2.41209C8.29473 2.26402 8.11486 2.2216 7.7595 2.21395C7.5978 2.21049 7.4466 2.21231 7.4235 2.21803Z" fill="currentColor"/>
</svg>
