<svg width="21" height="21" viewBox="0 0 21 21" fill="none" xmlns="http://www.w3.org/2000/svg">
<path fill-rule="evenodd" clip-rule="evenodd" d="M5.26375 0.726413C4.53286 0.858986 3.92916 1.34106 3.64881 2.016C3.48503 2.4103 3.49649 2.14307 3.49649 5.565V8.6205L3.54797 8.7255C3.61384 8.85992 3.78207 9.02816 3.91649 9.09403C4.00665 9.13822 4.05119 9.1455 4.23149 9.1455C4.41191 9.1455 4.45628 9.13824 4.54649 9.09397C4.69284 9.02215 4.83245 8.88504 4.90498 8.7419L4.96649 8.6205L4.97699 5.6595L4.98749 2.6985L5.03573 2.5935C5.10354 2.44585 5.25573 2.29774 5.392 2.24675C5.50206 2.20557 5.56396 2.205 9.93906 2.205H14.3746L16.5849 4.41544L18.7953 6.62588L18.7899 12.4847L18.7845 18.3435L18.7286 18.4485C18.6562 18.5846 18.5604 18.6745 18.417 18.741L18.3015 18.7946L14.0476 18.7948C11.077 18.7949 9.75611 18.8019 9.66911 18.8178C9.25308 18.894 8.97605 19.3135 9.07214 19.7218C9.13779 20.0007 9.36979 20.2279 9.64777 20.2856C9.72117 20.3009 11.1182 20.3059 14.1225 20.3017L18.4905 20.2957L18.6585 20.2504C19.4634 20.0333 20.0465 19.4466 20.2508 18.648L20.2965 18.4695V12.3056V6.14162L20.2291 6.00556C20.1678 5.88172 19.934 5.64214 17.6251 3.33694C15.3725 1.08795 15.0756 0.798717 14.973 0.753945L14.8575 0.703502L10.143 0.700016C6.14632 0.697076 5.40342 0.701087 5.26375 0.726413ZM5.58685 10.1153C5.38998 10.1564 5.13336 10.3174 5.01528 10.4738C4.90967 10.6137 4.89329 10.6493 4.52533 11.5408C4.34445 11.979 4.16765 12.4037 4.13248 12.4845C3.95429 12.8939 3.59677 13.2781 3.21299 13.4725C3.14947 13.5047 2.67199 13.7068 2.15193 13.9216C1.09781 14.3571 1.03485 14.3923 0.87309 14.637C0.759585 14.8087 0.714099 14.941 0.699714 15.141C0.68682 15.3204 0.725271 15.5017 0.812757 15.6744C0.878928 15.805 1.09237 16.0219 1.21755 16.0858C1.26886 16.1119 1.72227 16.3027 2.22515 16.5098C2.72804 16.7168 3.20564 16.9239 3.28649 16.9699C3.57533 17.1342 3.86572 17.4246 4.0301 17.7135C4.07611 17.7944 4.28315 18.272 4.49019 18.7748C4.69725 19.2777 4.88629 19.7277 4.91034 19.7748C4.9771 19.9057 5.14615 20.0778 5.29319 20.1647C5.63119 20.3642 6.03783 20.3467 6.37845 20.1179C6.60682 19.9644 6.64836 19.8891 7.07838 18.8481C7.29319 18.328 7.49529 17.8505 7.52749 17.787C7.71285 17.4212 8.10198 17.0502 8.47349 16.8851C8.53124 16.8594 8.95463 16.6832 9.41436 16.4935C9.87407 16.3038 10.2952 16.1258 10.3501 16.098C10.562 15.9906 10.7425 15.7919 10.8388 15.5601C10.8786 15.4641 10.8865 15.4062 10.8871 15.204C10.8877 14.999 10.8804 14.944 10.8388 14.8402C10.7715 14.6722 10.6173 14.4748 10.4787 14.3796C10.4069 14.3302 10.0054 14.1527 9.41828 13.9108C8.89864 13.6966 8.41274 13.4881 8.33846 13.4475C8.01639 13.2713 7.72949 12.9848 7.55302 12.663C7.51186 12.5879 7.30327 12.1017 7.08951 11.5824C6.84597 10.9909 6.671 10.5949 6.62085 10.522C6.52434 10.3816 6.32637 10.2273 6.1598 10.1628C6.03812 10.1157 5.7137 10.0888 5.58685 10.1153ZM5.70343 12.637C5.39525 13.4048 5.16908 13.7755 4.76286 14.1788C4.36031 14.5785 4.01104 14.7911 3.24979 15.0999C3.12566 15.1503 3.03116 15.1985 3.03979 15.2072C3.04842 15.2158 3.20529 15.2845 3.38837 15.3599C4.07494 15.6427 4.4664 15.8977 4.85125 16.3128C5.18926 16.6774 5.40283 17.0303 5.64801 17.6294C5.71888 17.8026 5.784 17.9514 5.7927 17.9601C5.80139 17.9688 5.84971 17.8743 5.90005 17.7502C6.20871 16.9893 6.42828 16.6289 6.82457 16.2326C7.22448 15.8327 7.58664 15.6098 8.31049 15.3181C8.45184 15.2611 8.5676 15.2087 8.56774 15.2017C8.56789 15.1947 8.43332 15.1341 8.26874 15.067C7.58431 14.7882 7.21173 14.557 6.82735 14.1727C6.44296 13.7883 6.21177 13.4157 5.93296 12.7313C5.86592 12.5667 5.80532 12.4321 5.79828 12.4323C5.79125 12.4325 5.74855 12.5246 5.70343 12.637Z" fill="currentColor"/>
</svg>
