<svg width="21" height="21" viewBox="0 0 21 21" fill="none" xmlns="http://www.w3.org/2000/svg">
<path fill-rule="evenodd" clip-rule="evenodd" d="M6.04801 0.705198C5.37158 0.762318 5.00637 0.819375 4.70046 0.915702C4.49495 0.980424 4.38332 1.04168 4.27681 1.14819C4.12359 1.30141 4.03482 1.57836 4.07353 1.78241C4.09745 1.90858 4.11643 1.95531 4.46272 2.7405C4.70504 3.28994 4.74679 3.39969 4.73032 3.444C4.71957 3.47287 4.29195 4.2147 3.78001 5.0925C3.26807 5.9703 2.81714 6.7587 2.77793 6.84451C2.51396 7.42219 2.49578 8.10001 2.7273 8.73249C2.89801 9.19888 3.24476 9.62741 3.6925 9.92533C4.35568 10.3666 5.20923 10.4513 5.96401 10.1506C6.06218 10.1115 6.58193 9.82527 7.11901 9.51451C7.65608 9.20375 8.09805 8.95205 8.10118 8.95515C8.10429 8.95828 8.0928 9.02128 8.07564 9.09516C7.91365 9.79272 7.36259 10.593 6.55432 11.3045C6.42021 11.4225 6.14513 11.6525 5.94301 11.8156C4.3526 13.0986 3.52356 13.9994 3.10856 14.8953C3.02932 15.0664 3.02783 15.068 2.88465 15.1378C2.46005 15.3451 2.13722 15.652 1.93491 16.0409C1.884 16.1387 1.59521 16.9056 1.27488 17.7937L0.705358 19.3725L0.705232 19.551C0.705127 19.7018 0.714199 19.7494 0.763612 19.8578C0.836776 20.0183 0.979639 20.1608 1.14451 20.2377L1.27051 20.2965H8.41051H15.5505L15.687 20.2315C15.9782 20.0929 16.1484 19.8069 16.1223 19.5C16.108 19.3312 15.0222 16.2999 14.8784 16.0271C14.7238 15.734 14.4683 15.457 14.1749 15.2647L14.1234 15.231L14.1821 14.8867C14.3949 13.6393 14.5196 12.73 14.506 12.5265C14.4934 12.3382 14.4298 12.2023 14.2872 12.059C14.1254 11.8963 14.0225 11.8562 13.7655 11.8553C13.5116 11.8543 13.4068 11.8963 13.235 12.0676C13.0632 12.2389 13.0403 12.3129 12.956 12.9675C12.8809 13.5507 12.6617 14.8973 12.638 14.921C12.6325 14.9266 10.8771 14.9287 8.73729 14.9258L4.84668 14.9205L5.04536 14.6895C5.43139 14.2407 6.13361 13.5946 6.94051 12.9459C7.40264 12.5744 7.69168 12.3174 8.0054 11.9992C9.05718 10.9323 9.61776 9.80084 9.62206 8.736C9.62339 8.41064 9.5942 8.18775 9.51891 7.9485C9.30631 7.27282 8.88738 6.93819 8.40933 7.06219C8.34304 7.07939 7.79914 7.38173 6.92951 7.88478C6.17325 8.32225 5.49338 8.70794 5.41864 8.7419C5.07245 8.89913 4.63295 8.81214 4.35974 8.5323C4.05677 8.22202 3.98764 7.79087 4.17983 7.4105C4.20541 7.35991 4.67742 6.5436 5.22876 5.5965C5.78011 4.6494 6.25066 3.83619 6.27443 3.78936C6.33943 3.66137 6.36757 3.47382 6.34201 3.33904C6.33025 3.27696 6.22313 3.00348 6.104 2.73134L5.8874 2.2365L6.00446 2.21944C6.1826 2.19351 7.3422 2.21804 7.66501 2.25458C9.02239 2.40817 9.96522 2.68955 10.6228 3.13727C10.8338 3.28097 10.9818 3.3281 11.1676 3.31075C11.6141 3.26907 11.9321 2.85157 11.8437 2.42304C11.7927 2.17612 11.6761 2.03233 11.3505 1.81505C10.535 1.27079 9.27479 0.90285 7.68601 0.745182C7.38124 0.714942 6.25748 0.687495 6.04801 0.705198ZM15.0255 0.707277C14.7781 0.762717 14.5465 0.903921 14.4064 1.08486C14.3301 1.18335 14.2382 1.38556 13.9216 2.15193C13.7068 2.67199 13.5047 3.14947 13.4725 3.213C13.3317 3.49083 13.0527 3.79686 12.7783 3.97433C12.6155 4.07958 12.5089 4.12679 11.487 4.54633C11.1001 4.70519 10.7363 4.85872 10.6785 4.88754C10.4374 5.00778 10.2636 5.19357 10.1608 5.44089C10.1214 5.53576 10.1135 5.59431 10.1129 5.796C10.1123 6.00102 10.1196 6.05598 10.1612 6.1598C10.2285 6.3278 10.3827 6.52516 10.5211 6.62016C10.5924 6.6692 11.0036 6.85112 11.5978 7.09655C12.1265 7.31493 12.6132 7.52407 12.6793 7.5613C13.0145 7.75007 13.3165 8.06763 13.4867 8.4105C13.5154 8.46825 13.7078 8.92657 13.9143 9.429C14.15 10.0025 14.3212 10.3894 14.3742 10.4685C14.473 10.6161 14.6649 10.7686 14.8402 10.8388C14.944 10.8804 14.999 10.8877 15.204 10.8871C15.4062 10.8865 15.4641 10.8786 15.5601 10.8388C15.7919 10.7425 15.9906 10.562 16.098 10.3501C16.1258 10.2952 16.3038 9.87407 16.4935 9.41436C16.6832 8.95463 16.8594 8.53125 16.8851 8.4735C17.0502 8.10199 17.4212 7.71286 17.787 7.52749C17.8505 7.4953 18.328 7.29319 18.8481 7.07838C19.8891 6.64837 19.9644 6.60683 20.1179 6.37845C20.3467 6.03783 20.3643 5.63119 20.1647 5.29319C20.0778 5.14615 19.9057 4.9771 19.7748 4.91034C19.7277 4.8863 19.2777 4.69726 18.7748 4.4902C18.272 4.28316 17.7944 4.07614 17.7135 4.03013C17.4247 3.86582 17.1343 3.57544 16.9699 3.2865C16.9239 3.20565 16.7169 2.72804 16.5098 2.22516C16.3028 1.72227 16.1137 1.27228 16.0897 1.22518C16.0258 1.10002 15.8558 0.923913 15.72 0.842202C15.5224 0.723405 15.2178 0.664206 15.0255 0.707277ZM15.1 3.24979C14.7911 4.01104 14.5785 4.36031 14.1789 4.76286C13.7755 5.16908 13.4048 5.39525 12.6371 5.70343C12.5246 5.74856 12.4325 5.79125 12.4323 5.79829C12.4321 5.80532 12.5667 5.86593 12.7313 5.93296C13.4157 6.21178 13.7883 6.44296 14.1727 6.82735C14.557 7.21173 14.7882 7.58431 15.067 8.26875C15.1341 8.43332 15.1947 8.56789 15.2017 8.56774C15.2088 8.5676 15.2611 8.45185 15.3181 8.31049C15.6098 7.58665 15.8327 7.22448 16.2326 6.82458C16.6289 6.42829 16.9893 6.20871 17.7502 5.90005C17.8743 5.84971 17.9688 5.80139 17.9601 5.7927C17.9514 5.78401 17.8026 5.71882 17.6294 5.64784C16.9561 5.37192 16.5599 5.11954 16.1869 4.72894C15.8179 4.34252 15.6179 4.01696 15.3525 3.3706C15.2813 3.19741 15.216 3.04859 15.2073 3.03989C15.1986 3.0312 15.1503 3.12566 15.1 3.24979ZM3.65571 16.4552C3.46194 16.5075 3.30927 16.6308 3.24371 16.788C3.22477 16.8334 3.05977 17.287 2.87703 17.796C2.69429 18.305 2.53817 18.738 2.53013 18.7582C2.51623 18.7932 2.80466 18.795 8.41051 18.795C14.0163 18.795 14.3048 18.7932 14.2909 18.7582C14.2829 18.738 14.1202 18.2868 13.9294 17.7555C13.7386 17.2242 13.5696 16.7646 13.5539 16.7342C13.5108 16.6505 13.345 16.5139 13.2341 16.4708C13.1398 16.4342 12.9306 16.4323 8.45251 16.4285C4.40048 16.4251 3.75418 16.4287 3.65571 16.4552Z" fill="currentColor"/>
</svg>
