<svg width="21" height="21" viewBox="0 0 21 21" fill="none" xmlns="http://www.w3.org/2000/svg">
<path fill-rule="evenodd" clip-rule="evenodd" d="M5.41801 1.41474C5.15478 1.47226 4.90962 1.66153 4.78247 1.90544C4.74173 1.98356 4.61361 2.27901 4.49773 2.56199C4.14073 3.43389 4.08542 3.5342 3.80981 3.80979C3.53423 4.08539 3.43391 4.14071 2.56201 4.49771C2.27904 4.61358 1.98359 4.7417 1.90547 4.78244C1.73688 4.87033 1.56892 5.04234 1.48639 5.21162C1.28183 5.63116 1.43221 6.17264 1.8229 6.42334C1.87874 6.45919 2.2102 6.60638 2.55947 6.75044C2.90872 6.8945 3.26778 7.05141 3.35735 7.09914C3.67919 7.27063 3.98615 7.5771 4.15411 7.89464C4.20031 7.982 4.34876 8.32281 4.48398 8.65199C4.61919 8.98116 4.75347 9.29724 4.78236 9.35435C4.85992 9.50772 5.04535 9.68235 5.21822 9.76484C5.34477 9.82524 5.39277 9.8362 5.56779 9.84462C5.81462 9.85651 5.99616 9.80852 6.17401 9.68439C6.38168 9.53945 6.44359 9.43458 6.72858 8.7451C6.87149 8.39936 7.00824 8.07104 7.03249 8.0155C7.16003 7.72339 7.45182 7.38308 7.73874 7.1919C7.93058 7.06407 7.90576 7.0755 8.74513 6.72856C9.4346 6.44357 9.53947 6.38166 9.68442 6.17399C9.80855 5.99614 9.85653 5.81459 9.84465 5.56776C9.83623 5.39275 9.82526 5.34474 9.76487 5.21819C9.68238 5.04532 9.50774 4.85989 9.35438 4.78234C9.29726 4.75344 8.98119 4.61917 8.65201 4.48395C8.32284 4.34873 7.98203 4.20028 7.89467 4.15408C7.57713 3.98612 7.27065 3.67917 7.09917 3.35732C7.05144 3.26776 6.89452 2.9087 6.75046 2.55945C6.6064 2.21018 6.45922 1.87871 6.42337 1.82287C6.29157 1.61747 6.07231 1.46976 5.81976 1.41623C5.65445 1.3812 5.57295 1.38089 5.41801 1.41474ZM5.52835 3.97577C5.18783 4.6425 4.64253 5.18781 3.9758 5.52832C3.87976 5.57736 3.80116 5.62356 3.80112 5.63095C3.80106 5.63836 3.84117 5.66033 3.89026 5.67975C4.02156 5.73171 4.28966 5.89238 4.48244 6.03465C4.9226 6.3595 5.34913 6.87631 5.56369 7.34474C5.59147 7.40537 5.62014 7.45499 5.62738 7.45499C5.63465 7.45499 5.65168 7.42429 5.66527 7.38674C5.75561 7.13709 6.09018 6.66058 6.37538 6.37536C6.6606 6.09016 7.13712 5.75558 7.38676 5.66524C7.42431 5.65166 7.45501 5.63462 7.45501 5.62736C7.45501 5.62011 7.40539 5.59145 7.34476 5.56367C6.87634 5.34911 6.35953 4.92258 6.03468 4.48242C5.8924 4.28964 5.73173 4.02153 5.67978 3.89024C5.66035 3.84114 5.63839 3.80103 5.63097 3.80109C5.62358 3.80114 5.57738 3.87974 5.52835 3.97577ZM12.7835 6.27945C12.4548 6.32032 12.1284 6.54598 11.9747 6.83845C11.9375 6.90937 11.6474 7.59779 11.3302 8.36826C11.0129 9.13875 10.7195 9.82967 10.6781 9.90367C10.5074 10.2088 10.2088 10.5074 9.9037 10.678C9.82969 10.7194 9.13877 11.0129 8.36828 11.3301C7.59781 11.6474 6.90939 11.9375 6.83847 11.9747C6.60256 12.0986 6.41184 12.3313 6.31736 12.6105C6.25402 12.7976 6.25778 13.0891 6.32605 13.2854C6.41551 13.5427 6.59317 13.7633 6.81451 13.8921C6.86071 13.919 7.51749 14.1958 8.27401 14.5072C9.03054 14.8187 9.70479 15.098 9.77232 15.128C10.1228 15.2835 10.4814 15.6161 10.6773 15.9672C10.717 16.0383 11.0197 16.7533 11.35 17.556C11.7239 18.4647 11.9794 19.0577 12.0269 19.1273C12.3289 19.5695 12.9244 19.7295 13.4085 19.4984C13.5861 19.4137 13.7834 19.2393 13.8748 19.0862C13.9119 19.0242 14.189 18.3734 14.4908 17.64C14.7925 16.9066 15.0681 16.2403 15.1031 16.1595C15.2987 15.7081 15.7081 15.2986 16.1595 15.1031C16.2404 15.068 16.9066 14.7925 17.64 14.4908C18.3734 14.189 19.0242 13.9118 19.0862 13.8748C19.2393 13.7834 19.4137 13.5861 19.4985 13.4085C19.7295 12.9244 19.5695 12.3289 19.1273 12.0269C19.0577 11.9793 18.4647 11.7239 17.556 11.35C16.7533 11.0197 16.0383 10.717 15.9673 10.6773C15.6161 10.4813 15.2836 10.1228 15.128 9.7723C15.098 9.70476 14.8187 9.03051 14.5073 8.27399C14.1958 7.51746 13.919 6.86069 13.8921 6.81449C13.6726 6.4372 13.2305 6.22384 12.7835 6.27945ZM12.5809 9.28774C12.0824 10.51 11.996 10.6855 11.7054 11.067C11.4554 11.3952 11.0886 11.7241 10.7367 11.9358C10.5234 12.0641 10.1813 12.2164 9.28777 12.5809C8.82314 12.7704 8.44285 12.9302 8.44266 12.936C8.44248 12.9418 8.85569 13.1161 9.36091 13.3235C9.86615 13.5309 10.3693 13.7453 10.479 13.7999C11.1782 14.1484 11.731 14.7039 12.0795 15.4083C12.1411 15.5327 12.3566 16.0383 12.5585 16.5319C12.7603 17.0255 12.9304 17.4295 12.9363 17.4297C12.9423 17.4298 13.1071 17.0402 13.3027 16.5637C13.6978 15.6013 13.8127 15.344 13.9402 15.1363C14.2385 14.6504 14.6504 14.2385 15.1364 13.9401C15.344 13.8127 15.6013 13.6978 16.5638 13.3027C17.0402 13.1071 17.4299 12.9422 17.4297 12.9363C17.4295 12.9304 17.0255 12.7603 16.5319 12.5585C16.0383 12.3566 15.5327 12.141 15.4083 12.0795C14.7039 11.7309 14.1485 11.1782 13.8 10.479C13.7453 10.3693 13.5309 9.86613 13.3235 9.36089C13.1162 8.85567 12.9418 8.44245 12.936 8.44264C12.9302 8.44283 12.7704 8.82312 12.5809 9.28774Z" fill="currentColor"/>
</svg>
