<svg width="21" height="21" viewBox="0 0 21 21" fill="none" xmlns="http://www.w3.org/2000/svg">
<path fill-rule="evenodd" clip-rule="evenodd" d="M9.3555 0.75432C7.81845 1.09282 6.61116 1.63571 5.4075 2.52964C3.77189 3.74438 2.5057 5.53203 1.90392 7.476C0.994664 10.4134 1.46836 13.5269 3.20907 16.0545C3.79365 16.9033 4.56101 17.6997 5.4075 18.3359C7.33845 19.7871 9.83684 20.499 12.1417 20.2546C14.1712 20.0395 15.9864 19.2586 17.535 17.9344C17.8142 17.6957 18.3783 17.1273 18.6089 16.8525C18.9221 16.4793 19.4202 15.7787 19.5347 15.5505C19.7191 15.183 19.5455 14.7181 19.1557 14.5354C19.0546 14.488 19.0093 14.4797 18.858 14.481C18.7598 14.4818 18.5689 14.4982 18.4338 14.5175C17.1738 14.6969 15.7841 14.526 14.5148 14.0355C12.2365 13.1551 10.4969 11.372 9.63818 9.03676C9.29099 8.09256 9.13555 7.1006 9.16329 6.006C9.20033 4.54423 9.54458 3.32375 10.2887 2.016C10.5033 1.63884 10.5346 1.50658 10.4688 1.25393C10.4111 1.03246 10.2848 0.881433 10.0683 0.774837C9.87571 0.680043 9.71397 0.675381 9.3555 0.75432ZM8.0325 2.73796C6.941 3.21846 6.04025 3.84634 5.25775 4.67216C4.15626 5.8346 3.42124 7.26014 3.10827 8.841C2.93901 9.69595 2.91522 10.7567 3.04538 11.646C3.26453 13.1433 3.91772 14.6154 4.87017 15.7585C5.31323 16.2902 5.91408 16.8514 6.46539 17.2483C6.9548 17.6007 7.75899 18.0288 8.36344 18.2586C9.65926 18.7514 11.0471 18.9063 12.39 18.7079C13.8253 18.4959 15.187 17.895 16.3598 16.956C16.6083 16.7571 17.262 16.1403 17.262 16.1048C17.262 16.0944 17.183 16.086 17.0864 16.086C16.6954 16.086 15.9437 15.9876 15.3846 15.8633C11.9923 15.109 9.25648 12.6453 8.15787 9.3555C7.55983 7.5647 7.48459 5.68613 7.93752 3.8535C8.01994 3.51996 8.21184 2.89926 8.30594 2.66175C8.31394 2.64153 8.31239 2.62546 8.3025 2.62601C8.2926 2.62657 8.1711 2.67693 8.0325 2.73796Z" fill="currentColor"/>
</svg>
