<svg width="21" height="21" viewBox="0 0 21 21" fill="none" xmlns="http://www.w3.org/2000/svg">
<path fill-rule="evenodd" clip-rule="evenodd" d="M10.0275 0.7056C9.44979 0.763266 9.17709 0.808332 8.7675 0.913752C7.80598 1.16124 6.89659 1.62009 6.111 2.25414C5.87205 2.44703 5.27879 3.04807 5.07575 3.30299C4.34726 4.21768 3.83534 5.36602 3.65547 6.489C3.5632 7.06501 3.56375 7.04372 3.55079 10.6365L3.53829 14.1015L3.48117 14.2695C3.39757 14.5155 3.28818 14.6876 3.08528 14.8924C2.77005 15.2106 2.55839 15.3139 2.14807 15.3495C1.98392 15.3637 1.90183 15.3818 1.82016 15.4218C1.41078 15.6221 1.26725 16.1424 1.51961 16.5112C1.61759 16.6543 1.78589 16.7824 1.932 16.825C2.00926 16.8475 3.57269 16.8525 10.5 16.8525C17.4273 16.8525 18.9907 16.8475 19.068 16.825C19.2141 16.7824 19.3824 16.6543 19.4804 16.5112C19.6865 16.21 19.6377 15.8104 19.3634 15.5538C19.2148 15.4149 19.1057 15.3715 18.8479 15.3491C18.4419 15.3139 18.2291 15.2097 17.9147 14.8924C17.7118 14.6876 17.6024 14.5155 17.5188 14.2695L17.4617 14.1015L17.4492 10.6365C17.4363 7.04372 17.4368 7.06501 17.3445 6.489C17.165 5.36804 16.6432 4.20048 15.9156 3.29152C15.7169 3.04338 15.1198 2.44022 14.889 2.25458C13.8564 1.42403 12.6625 0.913899 11.3533 0.743841C11.1124 0.712551 10.2167 0.686721 10.0275 0.7056ZM9.86297 2.23581C7.536 2.53023 5.67605 4.22327 5.19049 6.489C5.06724 7.06411 5.07486 6.81849 5.06107 10.668L5.0484 14.2065L5.00084 14.4158C4.94548 14.6594 4.8357 14.9637 4.7278 15.1725C4.68603 15.2533 4.64863 15.3266 4.64468 15.3352C4.64073 15.3439 7.27562 15.351 10.5 15.351C13.7244 15.351 16.3589 15.3439 16.3545 15.3352C16.1352 14.9051 16.0411 14.642 15.981 14.2906C15.9402 14.052 15.939 13.9495 15.939 10.7616C15.939 8.5975 15.9313 7.38662 15.9164 7.20938C15.7618 5.37029 14.7286 3.77032 13.1145 2.87047C12.5992 2.58321 11.9232 2.35473 11.298 2.25658C10.9954 2.20907 10.1688 2.1971 9.86297 2.23581ZM8.97729 18.8157C8.75503 18.8484 8.53004 19.0223 8.42004 19.2465C8.37632 19.3356 8.3685 19.3817 8.3685 19.551C8.3685 19.7216 8.37636 19.7672 8.42271 19.866C8.49198 20.0137 8.65129 20.173 8.79896 20.2423L8.9145 20.2965H10.5H12.0855L12.201 20.2423C12.3487 20.173 12.508 20.0137 12.5773 19.866C12.6236 19.7672 12.6315 19.7216 12.6315 19.551C12.6315 19.3158 12.5892 19.2066 12.4334 19.0396C12.3169 18.9148 12.1848 18.8455 12.0091 18.817C11.8559 18.7921 9.14538 18.791 8.97729 18.8157Z" fill="currentColor"/>
</svg>
