<svg width="21" height="21" viewBox="0 0 21 21" fill="none" xmlns="http://www.w3.org/2000/svg">
<path fill-rule="evenodd" clip-rule="evenodd" d="M5.46722 1.40783C5.25357 1.4501 5.03951 1.62352 4.94298 1.83256L4.8825 1.96347L4.87605 2.72325L4.86962 3.48305L4.01505 3.49151C3.28708 3.49872 3.14183 3.50533 3.0345 3.5361C2.19569 3.77663 1.63777 4.34865 1.43363 5.17742C1.40017 5.31329 1.39719 5.74752 1.39087 11.403C1.38598 15.7901 1.39062 17.5403 1.40759 17.6902C1.52191 18.7007 2.28436 19.4685 3.29645 19.5922C3.54385 19.6225 17.4561 19.6225 17.7035 19.5922C18.4574 19.5 19.0863 19.0478 19.4041 18.3692C19.5069 18.1498 19.5637 17.9443 19.5929 17.6863C19.6093 17.5415 19.614 15.7237 19.6091 11.403C19.6027 5.74137 19.5998 5.31337 19.5662 5.17647C19.3888 4.45363 18.8752 3.85946 18.219 3.618C17.9021 3.50141 17.8948 3.50065 16.9849 3.49158L16.1304 3.48305L16.1239 2.72325L16.1175 1.96347L16.057 1.83256C15.9547 1.61094 15.7458 1.44905 15.5046 1.40447C15.363 1.37831 15.1568 1.40834 15.0284 1.47383C14.8963 1.54122 14.732 1.72275 14.6764 1.86273C14.6296 1.98033 14.6277 2.00996 14.6204 2.73522L14.6127 3.48597H10.5H6.38725L6.37963 2.73522C6.37226 2.00996 6.37035 1.98033 6.32362 1.86273C6.26822 1.72336 6.10379 1.54129 5.97303 1.47459C5.88953 1.43198 5.68052 1.38389 5.59788 1.38828C5.57403 1.38954 5.51523 1.39834 5.46722 1.40783ZM3.42132 4.99818C3.22868 5.03079 3.05739 5.16257 2.95753 5.35497L2.9085 5.44947L2.9027 6.90372L2.89688 8.35797H10.5H18.1031L18.0973 6.90372L18.0915 5.44947L18.0425 5.35497C17.9734 5.22185 17.841 5.0927 17.7156 5.03613C17.6115 4.98919 17.5878 4.98764 16.8694 4.98077L16.1304 4.97369L16.1239 5.73658L16.1175 6.49947L16.0582 6.62778C15.8782 7.01718 15.4074 7.18147 15.0263 6.98785C14.8963 6.92182 14.7317 6.73946 14.6764 6.60021C14.6296 6.48261 14.6277 6.45298 14.6204 5.72772L14.6127 4.97697H10.5H6.38725L6.37963 5.72772C6.37226 6.45298 6.37035 6.48261 6.32362 6.60021C6.26829 6.73946 6.10367 6.92182 5.9737 6.98785C5.59257 7.18147 5.12175 7.01718 4.9418 6.62778L4.8825 6.49947L4.87605 5.73822L4.8696 4.97697L4.19355 4.97945C3.82172 4.98079 3.47422 4.98923 3.42132 4.99818ZM2.898 13.7227V17.5754L2.9418 17.6925C3.00027 17.8488 3.15122 17.9997 3.30748 18.0582L3.42457 18.102H10.5H17.5754L17.6925 18.0582C17.8488 17.9997 17.9997 17.8488 18.0582 17.6925L18.102 17.5754V13.7227V9.86997H10.5H2.898V13.7227Z" fill="currentColor"/>
</svg>
