<svg width="21" height="21" viewBox="0 0 21 21" fill="none" xmlns="http://www.w3.org/2000/svg">
<path fill-rule="evenodd" clip-rule="evenodd" d="M10.3267 0.714483C10.1056 0.77028 9.91248 0.932064 9.81332 1.1445L9.7545 1.2705V2.142V3.0135L9.81334 3.1395C10.0933 3.73899 10.9067 3.73899 11.1867 3.1395L11.2455 3.0135V2.142V1.2705L11.1892 1.15042C11.0651 0.885654 10.8271 0.719817 10.5471 0.703059C10.4692 0.698397 10.37 0.703542 10.3267 0.714483ZM3.92167 3.36048C3.70037 3.41634 3.50698 3.57848 3.40876 3.7905C3.35958 3.89672 3.35034 3.9446 3.34996 4.09544C3.34918 4.39946 3.37779 4.44062 4.06778 5.12816C4.55156 5.61021 4.67128 5.71866 4.767 5.76154C5.06522 5.89514 5.41252 5.82784 5.62731 5.59482C5.84356 5.36021 5.89142 5.0426 5.75362 4.7565C5.70274 4.65085 5.59868 4.53659 5.10922 4.04884C4.62078 3.56212 4.50593 3.45826 4.40559 3.41246C4.2715 3.35122 4.05182 3.32762 3.92167 3.36048ZM16.7145 3.36638C16.6617 3.38136 16.5767 3.41842 16.5255 3.44879C16.4744 3.47913 16.1755 3.76217 15.8614 4.07774C15.1941 4.74806 15.1745 4.7767 15.1745 5.082C15.1745 5.23005 15.1839 5.28083 15.2294 5.37967C15.3055 5.54511 15.4351 5.67806 15.5985 5.75849C15.7208 5.81872 15.755 5.82597 15.916 5.82576C16.2246 5.82532 16.2503 5.80768 16.9322 5.12816C17.6224 4.44043 17.6509 4.39933 17.6498 4.09544C17.6493 3.94504 17.6399 3.89605 17.5905 3.78819C17.4411 3.46126 17.0478 3.27188 16.7145 3.36638ZM9.849 5.26079C8.90053 5.378 8.01209 5.74986 7.224 6.35954C6.9946 6.53701 6.53701 6.9946 6.35953 7.224C5.60234 8.20281 5.229 9.28463 5.229 10.5C5.229 11.7154 5.60234 12.7972 6.35953 13.776C6.53701 14.0054 6.9946 14.463 7.224 14.6405C8.04336 15.2743 8.97025 15.6503 9.96229 15.751C10.3159 15.787 11.025 15.7664 11.3505 15.7107C11.9002 15.6168 12.3111 15.4839 12.8205 15.2355C13.3725 14.9662 13.7864 14.6701 14.2283 14.2283C14.6701 13.7864 14.9662 13.3725 15.2355 12.8205C15.4845 12.3099 15.6145 11.9072 15.7135 11.34C15.7531 11.1131 15.7593 10.9993 15.7593 10.5C15.7593 10.0007 15.7531 9.88695 15.7135 9.66C15.6556 9.32809 15.5578 8.95066 15.4632 8.694C15.3695 8.43975 15.1116 7.91129 14.9815 7.707C14.6765 7.22776 14.1761 6.6684 13.776 6.35932C12.9754 5.74085 12.0976 5.37627 11.1301 5.26042C10.8121 5.22234 10.1587 5.22253 9.849 5.26079ZM10.227 6.73334C8.82708 6.85484 7.64289 7.68447 7.06421 8.94915C6.84039 9.43828 6.73273 9.93676 6.73371 10.479C6.73485 11.0846 6.83701 11.55 7.0905 12.1043C7.44425 12.8778 8.12221 13.5558 8.89571 13.9095C9.26633 14.079 9.62025 14.1847 9.996 14.2382C10.2256 14.2709 10.7744 14.2709 11.004 14.2382C12.5523 14.0178 13.789 12.9031 14.1611 11.3925C14.2386 11.0777 14.2636 10.86 14.2636 10.5C14.2636 9.90744 14.1623 9.44857 13.9095 8.89571C13.5558 8.12221 12.8778 7.44425 12.1043 7.0905C11.7331 6.92076 11.3669 6.81141 11.0145 6.76513C10.8208 6.73968 10.3656 6.7213 10.227 6.73334ZM1.28845 9.76517C1.06787 9.81049 0.863667 9.97765 0.762762 10.1955C0.713328 10.3022 0.704445 10.3488 0.704592 10.5C0.70476 10.6513 0.713895 10.6984 0.76461 10.8094C0.836934 10.9677 0.981582 11.1101 1.15042 11.1892L1.2705 11.2455H2.142H3.0135L3.14181 11.1862C3.73705 10.9111 3.73567 10.0918 3.1395 9.81334L3.0135 9.7545L2.1945 9.75089C1.74405 9.74891 1.33633 9.75534 1.28845 9.76517ZM18.0045 9.76517C17.7447 9.81855 17.5059 10.0435 17.4379 10.2989C17.3407 10.6637 17.5122 11.024 17.8605 11.1867L17.9865 11.2455H18.858H19.7295L19.8496 11.1892C20.0184 11.1101 20.1631 10.9677 20.2354 10.8094C20.2862 10.6982 20.2952 10.6516 20.2952 10.5C20.2952 10.3484 20.2862 10.3018 20.2354 10.1906C20.1631 10.0323 20.0184 9.88991 19.8496 9.81078L19.7295 9.7545L18.9105 9.75089C18.46 9.74891 18.0523 9.75534 18.0045 9.76517ZM4.91868 15.1831C4.7347 15.2218 4.63751 15.301 4.0467 15.8934C3.36943 16.5725 3.35028 16.6004 3.35059 16.905C3.35076 17.0555 3.35998 17.1036 3.40945 17.2118C3.48295 17.3726 3.62609 17.5151 3.7905 17.5913C3.89703 17.6406 3.94407 17.6496 4.095 17.6496C4.39977 17.6496 4.42737 17.6306 5.10922 16.9512C5.74001 16.3226 5.79818 16.2463 5.82794 16.0086C5.86719 15.6949 5.68228 15.368 5.39017 15.2346C5.26632 15.1781 5.05333 15.1548 4.91868 15.1831ZM15.7547 15.1831C15.5384 15.2286 15.3298 15.4022 15.2294 15.6203C15.1838 15.7193 15.1745 15.7701 15.1742 15.92C15.1738 16.2248 15.2008 16.2637 15.8908 16.9512C16.5726 17.6306 16.6002 17.6496 16.905 17.6496C17.0559 17.6496 17.103 17.6406 17.2095 17.5913C17.3739 17.5151 17.517 17.3726 17.5905 17.2118C17.6399 17.104 17.6493 17.055 17.6498 16.9046C17.6509 16.6007 17.6224 16.5596 16.9322 15.8718C16.4526 15.394 16.3279 15.2808 16.233 15.2376C16.1022 15.1781 15.8924 15.1542 15.7547 15.1831ZM10.2898 17.4389C10.0921 17.4935 9.90914 17.6554 9.81334 17.8605L9.7545 17.9865V18.858V19.7295L9.81078 19.8496C9.88991 20.0184 10.0323 20.1631 10.1906 20.2354C10.3018 20.2862 10.3484 20.2952 10.5 20.2952C10.6516 20.2952 10.6982 20.2862 10.8094 20.2354C10.9677 20.1631 11.1101 20.0184 11.1892 19.8496L11.2455 19.7295V18.858V17.9865L11.1867 17.8605C11.0236 17.5115 10.6548 17.3381 10.2898 17.4389Z" fill="currentColor"/>
</svg>
