<svg width="21" height="21" viewBox="0 0 21 21" fill="none" xmlns="http://www.w3.org/2000/svg">
<path fill-rule="evenodd" clip-rule="evenodd" d="M7.22495 2.10172C7.0888 2.12871 6.93099 2.21218 6.84004 2.30534C6.79592 2.35051 6.33757 3.09141 5.80986 3.9706L4.85915 5.55448L3.69482 5.56616L2.5305 5.57781L2.32592 5.63315C1.64163 5.81822 1.11579 6.27209 0.85995 6.89846C0.690585 7.31313 0.705537 6.83155 0.697578 12.1275C0.692286 15.6476 0.696738 16.9007 0.715029 17.0415C0.814107 17.8042 1.32292 18.4638 2.03612 18.754C2.2445 18.8388 2.38776 18.873 2.64298 18.8989C2.9463 18.9297 18.0537 18.9297 18.357 18.8989C18.6122 18.873 18.7555 18.8388 18.9639 18.754C19.6771 18.4638 20.1858 17.8043 20.285 17.0415C20.3033 16.9006 20.3077 15.6504 20.3024 12.1275C20.2944 6.83197 20.3093 7.31283 20.1401 6.89846C19.8846 6.27297 19.3574 5.81795 18.6741 5.63315L18.4695 5.57781L17.3052 5.56616L16.1409 5.55448L15.1901 3.96898C14.1562 2.24509 14.1501 2.23625 13.9075 2.13835L13.7865 2.08948L10.5525 2.08633C8.75335 2.08459 7.277 2.09141 7.22495 2.10172ZM6.83852 5.18173C6.28343 6.10668 5.8501 6.80665 5.80318 6.85411C5.75881 6.89901 5.66108 6.96516 5.586 7.00111L5.4495 7.06648L4.0635 7.07698L2.6775 7.08748L2.55818 7.14607C2.42884 7.2096 2.3372 7.30076 2.26288 7.43982L2.2155 7.52848V12.243V16.9575L2.26361 17.0476C2.32915 17.1703 2.46219 17.2989 2.57987 17.3534L2.6775 17.3985H10.5H18.3225L18.4201 17.3534C18.5378 17.2989 18.6708 17.1703 18.7364 17.0476L18.7845 16.9575V12.243V7.52848L18.7371 7.43982C18.6628 7.30076 18.5712 7.2096 18.4418 7.14607L18.3225 7.08748L16.9365 7.07698L15.5505 7.06648L15.414 7.00111C15.3389 6.96516 15.2412 6.89901 15.1968 6.85411C15.1499 6.80665 14.7166 6.10668 14.1615 5.18173L13.2068 3.59098H10.5H7.79321L6.83852 5.18173ZM10.08 7.37352C8.64463 7.51785 7.3609 8.40244 6.71444 9.69259C6.37678 10.3665 6.22507 11.1261 6.27835 11.8763C6.42056 13.8785 7.93271 15.5045 9.90889 15.7801C10.2158 15.8229 10.7842 15.8229 11.0911 15.7801C13.2809 15.4747 14.8786 13.5033 14.7212 11.3009C14.6466 10.2566 14.2264 9.33226 13.4931 8.59889C12.5918 7.69762 11.337 7.2471 10.08 7.37352ZM10.08 8.89195C9.44286 9.00642 8.95791 9.26298 8.52529 9.71445C7.75116 10.5223 7.555 11.7322 8.03397 12.7449C8.17339 13.0397 8.34261 13.2791 8.57774 13.5142C9.10445 14.0409 9.75028 14.3074 10.5 14.3074C11.2504 14.3074 11.8878 14.0442 12.4219 13.5135C13.3506 12.5908 13.4887 11.1633 12.7563 10.0565C12.6175 9.84665 12.3012 9.52424 12.079 9.36602C11.7817 9.1543 11.4224 8.99728 11.046 8.91461C10.8318 8.86755 10.2869 8.85478 10.08 8.89195Z" fill="currentColor"/>
</svg>
