<svg width="21" height="21" viewBox="0 0 21 21" fill="none" xmlns="http://www.w3.org/2000/svg">
<path fill-rule="evenodd" clip-rule="evenodd" d="M2.00066 1.40812C1.85217 1.43744 1.72787 1.50411 1.61924 1.61275C1.49435 1.73763 1.43933 1.84018 1.4089 2.00475C1.37644 2.1804 1.37644 18.8196 1.4089 18.9952C1.43914 19.1588 1.49427 19.2623 1.61598 19.384C1.7377 19.5057 1.84123 19.5608 2.00476 19.5911C2.1804 19.6235 18.8196 19.6235 18.9952 19.5911C19.1588 19.5608 19.2623 19.5057 19.384 19.384C19.5071 19.2609 19.5616 19.1574 19.5923 18.9881C19.6478 18.6819 19.5056 18.3682 19.2408 18.2131C19.0716 18.1139 18.9675 18.1027 18.2124 18.1023L17.5143 18.102L17.5089 14.1592L17.5035 10.2165L17.4474 10.0969C17.3759 9.94426 17.2297 9.79808 17.0771 9.72656L16.9575 9.67049L15.3985 9.66484L13.8394 9.65921L13.834 5.80084L13.8285 1.94249L13.7827 1.84343C13.7225 1.71313 13.5596 1.54109 13.4381 1.47952C13.255 1.38676 13.1787 1.38376 11.1615 1.39029C9.41652 1.39594 9.24272 1.39962 9.16101 1.4324C8.95076 1.51673 8.78047 1.6858 8.70012 1.88999C8.6656 1.9777 8.66249 2.13033 8.65678 4.01624L8.6506 6.04799L7.13405 6.04822C5.50117 6.04845 5.51764 6.04744 5.34149 6.15885C5.21253 6.24041 5.12359 6.3422 5.05307 6.48899L4.98749 6.62549L4.98201 12.3637L4.97655 18.102H3.93743H2.89831L2.89291 10.0327L2.88749 1.96349L2.83163 1.84431C2.72186 1.61018 2.5232 1.45336 2.27988 1.40881C2.14079 1.38334 2.12643 1.3833 2.00066 1.40812ZM10.164 10.5V18.102H11.2455H12.327V10.5V2.89799H11.2455H10.164V10.5ZM6.48899 12.8205V18.102H7.57049H8.65199V12.8205V7.53899H7.57049H6.48899V12.8205ZM13.839 14.637V18.102H14.931H16.023V14.637V11.172H14.931H13.839V14.637Z" fill="currentColor"/>
</svg>
