<svg width="21" height="21" viewBox="0 0 21 21" fill="none" xmlns="http://www.w3.org/2000/svg">
<path fill-rule="evenodd" clip-rule="evenodd" d="M2.57251 0.707736C1.68958 0.828906 0.972999 1.47266 0.750987 2.34412L0.703506 2.53049V8.76749V15.0045L0.76134 15.2143C0.957543 15.9262 1.46925 16.4761 2.15251 16.7092C2.45751 16.8132 2.56894 16.821 3.76176 16.821H4.87201L4.87226 18.2332C4.87253 19.7527 4.87371 19.7711 4.98221 19.9403C5.19667 20.2748 5.60459 20.3979 5.94154 20.23C6.01348 20.1941 6.89145 19.505 8.15105 18.4957L10.2412 16.821H14.2948C18.6833 16.821 18.5071 16.8253 18.8475 16.7092C19.5323 16.4756 20.0417 15.9261 20.2407 15.2065L20.2965 15.0045V8.76749V2.53049L20.249 2.34412C20.0475 1.55307 19.4634 0.967443 18.6585 0.7494L18.4905 0.703893L10.563 0.701499C6.20288 0.700176 2.60716 0.70299 2.57251 0.707736ZM2.66701 2.22457C2.49241 2.27807 2.35205 2.39588 2.26502 2.56199L2.21551 2.65649V8.75699V14.8575L2.26775 14.9598C2.29648 15.016 2.36505 15.1026 2.42013 15.1521C2.60098 15.3147 2.53767 15.309 4.14599 15.3094C4.96861 15.3096 5.63607 15.3186 5.71818 15.3305C5.94992 15.364 6.1247 15.471 6.2435 15.6521C6.37466 15.8521 6.37082 15.8167 6.38317 16.9396L6.39451 17.9717L7.97282 16.7065C8.8409 16.0107 9.59371 15.4214 9.64575 15.397C9.69777 15.3725 9.80022 15.3428 9.87343 15.3309C9.96134 15.3166 11.411 15.3093 14.145 15.3092C18.782 15.309 18.39 15.3229 18.5799 15.1521C18.635 15.1026 18.7035 15.016 18.7323 14.9598L18.7845 14.8575V8.75699V2.65649L18.7371 2.56783C18.6665 2.43566 18.5799 2.34645 18.4552 2.27736L18.3435 2.21549L10.5315 2.21199C6.23491 2.21008 2.69588 2.21572 2.66701 2.22457Z" fill="currentColor"/>
</svg>
