<svg width="21" height="21" viewBox="0 0 21 21" fill="none" xmlns="http://www.w3.org/2000/svg">
<path fill-rule="evenodd" clip-rule="evenodd" d="M9.84901 0.716405C7.95233 0.841838 6.13209 1.51785 4.60951 2.66227C3.89055 3.20264 3.20263 3.89056 2.66226 4.60951C1.74624 5.82823 1.12126 7.25673 0.85229 8.74651C0.404885 11.2247 0.924803 13.7848 2.3002 15.876C3.03566 16.9942 4.00578 17.9644 5.12401 18.6998C6.03076 19.2962 7.10993 19.7671 8.15279 20.0215C10.8088 20.6695 13.6101 20.1901 15.876 18.6998C16.9925 17.9655 17.9655 16.9925 18.6998 15.876C19.413 14.7916 19.9203 13.522 20.1472 12.2535C20.5159 10.193 20.2328 8.1078 19.332 6.24751C18.8302 5.21129 18.2385 4.37826 17.4302 3.56986C16.3014 2.44109 14.9823 1.63908 13.4457 1.14724C12.3256 0.788708 11.0557 0.636605 9.84901 0.716405ZM9.91201 2.21776C8.24519 2.36106 6.77702 2.91149 5.50728 3.86918C4.74808 4.44178 3.98919 5.26286 3.49346 6.04801C2.81228 7.12689 2.40631 8.28554 2.2426 9.61801C2.20629 9.9135 2.20629 11.0865 2.2426 11.382C2.45768 13.1327 3.11223 14.6397 4.21044 15.9127C4.44079 16.1798 4.93568 16.6681 5.18701 16.8764C6.44486 17.9188 7.87284 18.5316 9.54451 18.7462C9.96259 18.7999 11.0374 18.7999 11.4555 18.7462C13.1265 18.5317 14.5665 17.9135 15.813 16.8757C16.0743 16.6581 16.544 16.1947 16.7823 15.9194C17.8742 14.658 18.525 13.1787 18.7462 11.4555C18.7999 11.0374 18.7999 9.9626 18.7462 9.54451C18.5317 7.87352 17.9135 6.43349 16.8757 5.18701C16.6581 4.92569 16.1947 4.45602 15.9194 4.21771C14.6679 3.13447 13.1836 2.47782 11.487 2.2568C11.2372 2.22427 10.1499 2.1973 9.91201 2.21776ZM14.3726 6.63761C14.3254 6.64891 14.2356 6.68862 14.1731 6.72583C14.0713 6.7865 13.7897 7.13065 11.4594 10.0422L8.85936 13.291L7.72208 12.4383C7.0966 11.9693 6.54201 11.566 6.48966 11.5421C6.37834 11.4911 6.11212 11.4817 5.97327 11.5237C5.76726 11.586 5.56423 11.7931 5.48999 12.0166C5.4125 12.2499 5.48749 12.582 5.65573 12.7507C5.69245 12.7875 6.381 13.3115 7.18585 13.9151C8.75959 15.0953 8.73296 15.0782 8.98658 15.0779C9.13918 15.0777 9.24572 15.0479 9.38507 14.9661C9.48768 14.9059 9.77446 14.5548 12.354 11.3313C13.9245 9.36878 15.2295 7.71976 15.254 7.6668C15.29 7.58884 15.2985 7.53055 15.2983 7.36051C15.2981 7.16154 15.2943 7.14354 15.2263 7.01767C15.0972 6.77892 14.8706 6.63408 14.6091 6.62326C14.5263 6.61986 14.4199 6.62631 14.3726 6.63761Z" fill="currentColor"/>
</svg>
