<svg width="21" height="21" viewBox="0 0 21 21" fill="none" xmlns="http://www.w3.org/2000/svg">
<path fill-rule="evenodd" clip-rule="evenodd" d="M10.584 0.705489C10.5436 0.710235 10.416 0.724053 10.3005 0.736191C10.0103 0.766704 9.52835 0.865425 9.22853 0.955809C7.53425 1.46661 6.11012 2.71191 5.39841 4.30499C5.34939 4.41472 5.303 4.51113 5.29534 4.51926C5.28767 4.52736 5.21054 4.54465 5.12394 4.55765C4.37604 4.67002 3.66433 4.94654 3.01724 5.37618C2.42428 5.76989 1.96241 6.23405 1.56093 6.83969C0.593584 8.29896 0.426214 10.1503 1.11621 11.7592C1.58464 12.8514 2.43083 13.7654 3.48619 14.3191C3.76946 14.4677 4.11043 14.6077 4.38711 14.689C4.73096 14.79 4.99466 14.7379 5.20724 14.5268C5.32314 14.4118 5.4139 14.2204 5.43125 14.0544C5.45645 13.8132 5.31976 13.5181 5.1198 13.382C5.07013 13.3482 4.91333 13.2806 4.77132 13.2319C4.45897 13.1246 4.22417 13.0184 4.00031 12.8832C3.3832 12.5103 2.89626 11.9775 2.5826 11.3319C2.30353 10.7574 2.18692 10.2029 2.21119 9.56549C2.2482 8.59435 2.64092 7.72041 3.34519 7.04209C3.96469 6.4454 4.67277 6.12351 5.5965 6.01864C5.88596 5.98577 5.99936 5.95448 6.15098 5.86563C6.38555 5.72816 6.52804 5.53849 6.66718 5.17847C6.82584 4.76796 7.00732 4.43752 7.27379 4.07399C7.45321 3.82922 7.99186 3.28927 8.22698 3.11849C8.84085 2.67262 9.5093 2.3912 10.2795 2.25436C10.58 2.20096 11.3869 2.2005 11.697 2.25353C12.5708 2.40296 13.3503 2.75666 13.9886 3.29342C14.8562 4.02296 15.4469 5.09149 15.5928 6.19499C15.6569 6.67986 15.7138 6.82531 15.9284 7.0528C16.0926 7.22683 16.2311 7.30445 16.534 7.39195C17.0943 7.55384 17.5361 7.81309 17.9166 8.20327C18.1926 8.48616 18.351 8.71369 18.5087 9.05351C18.6979 9.46089 18.7707 9.76976 18.7878 10.2375C18.7982 10.5228 18.7934 10.6127 18.7556 10.8333C18.6989 11.1637 18.593 11.4805 18.4468 11.7572C18.2922 12.0495 18.1725 12.2138 17.9344 12.4606C17.4819 12.9295 16.9905 13.1983 16.317 13.3454C16.0087 13.4127 15.9373 13.4453 15.8055 13.579C15.3759 14.0148 15.6057 14.7379 16.2084 14.8465C16.3231 14.8672 16.3738 14.8643 16.5759 14.8261C17.4001 14.67 18.0613 14.354 18.711 13.8057C19.0374 13.5301 19.2759 13.2594 19.539 12.8653C20.321 11.6943 20.5124 10.2393 20.0626 8.88526C19.7365 7.90366 19.076 7.06637 18.1606 6.47421C17.9614 6.34533 17.5632 6.15041 17.3088 6.05721C17.1415 5.99593 17.091 5.96836 17.0839 5.93434C17.0788 5.91023 17.055 5.78348 17.0309 5.65269C16.9796 5.37387 16.8751 5.00095 16.767 4.71086C15.9658 2.56092 14.0519 1.03886 11.7795 0.744675C11.5327 0.712713 10.7429 0.686841 10.584 0.705489ZM10.3215 10.4653C10.2637 10.4802 10.1834 10.5093 10.143 10.5298C10.1026 10.5504 9.39748 11.2396 8.5761 12.0614C7.38664 13.2514 7.0725 13.5769 7.0326 13.6605C6.9896 13.7506 6.98252 13.7968 6.98265 13.986C6.98277 14.1839 6.9885 14.2174 7.03857 14.3125C7.15279 14.5294 7.37272 14.6892 7.60068 14.7209C7.74379 14.7408 7.93487 14.7128 8.05079 14.655C8.10568 14.6276 8.43209 14.318 8.94037 13.8113L9.74324 13.011L9.74887 16.3702L9.7545 19.7295L9.81078 19.8496C9.88991 20.0184 10.0323 20.1631 10.1906 20.2354C10.3018 20.2862 10.3484 20.2952 10.5 20.2952C10.6516 20.2952 10.6982 20.2862 10.8094 20.2354C10.9677 20.1631 11.1101 20.0184 11.1892 19.8496L11.2455 19.7295L11.2511 16.3702L11.2568 13.011L12.0596 13.8113C12.5679 14.318 12.8943 14.6276 12.9492 14.655C13.0651 14.7128 13.2562 14.7408 13.3993 14.7209C13.6273 14.6892 13.8472 14.5294 13.9614 14.3125C14.0115 14.2174 14.0172 14.1839 14.0174 13.986C14.0175 13.7965 14.0104 13.7507 13.9673 13.6605C13.9274 13.5772 13.6147 13.2524 12.4553 12.0902C11.6513 11.2842 10.9586 10.6005 10.9159 10.5708C10.7563 10.4598 10.5109 10.4163 10.3215 10.4653Z" fill="currentColor"/>
</svg>
