<svg width="21" height="21" viewBox="0 0 21 21" fill="none" xmlns="http://www.w3.org/2000/svg">
<path fill-rule="evenodd" clip-rule="evenodd" d="M10.584 0.705489C10.5436 0.710235 10.416 0.724053 10.3005 0.736191C10.0103 0.766704 9.52835 0.865425 9.22854 0.955809C7.53426 1.46661 6.11012 2.71191 5.39841 4.30499C5.34939 4.41472 5.30301 4.51113 5.29534 4.51926C5.28768 4.52736 5.21054 4.54465 5.12394 4.55765C4.37604 4.67002 3.66433 4.94654 3.01724 5.37618C2.42428 5.76989 1.96241 6.23405 1.56093 6.83969C0.593588 8.29896 0.426218 10.1503 1.11621 11.7592C1.37424 12.3608 1.72906 12.8857 2.20055 13.3634C3.03809 14.2119 4.09502 14.7295 5.29286 14.8778C5.61238 14.9173 7.3479 14.9245 7.55024 14.8871C7.71857 14.856 7.82172 14.7993 7.95109 14.6668C8.09328 14.5211 8.1525 14.3703 8.1525 14.154C8.1525 13.9377 8.09328 13.7869 7.95109 13.6412C7.71851 13.403 7.67464 13.3956 6.51023 13.399C5.5855 13.4017 5.46258 13.3952 5.124 13.325C4.75027 13.2476 4.23518 13.0345 3.90182 12.8195C3.32772 12.4493 2.8804 11.9448 2.5826 11.3319C2.30353 10.7574 2.18692 10.2029 2.2112 9.56549C2.2482 8.59435 2.64092 7.72041 3.3452 7.04209C3.9647 6.4454 4.67277 6.12351 5.5965 6.01864C5.88597 5.98577 5.99937 5.95448 6.15099 5.86563C6.38556 5.72816 6.52804 5.53849 6.66719 5.17847C6.82584 4.76796 7.00732 4.43752 7.27379 4.07399C7.45322 3.82922 7.99187 3.28927 8.22698 3.11849C8.84085 2.67262 9.50931 2.3912 10.2795 2.25436C10.58 2.20096 11.3869 2.2005 11.697 2.25353C12.5708 2.40296 13.3503 2.75666 13.9886 3.29342C14.8562 4.02296 15.447 5.09149 15.5928 6.19499C15.6569 6.67986 15.7138 6.82531 15.9284 7.0528C16.0926 7.22683 16.2312 7.30445 16.534 7.39195C17.0943 7.55384 17.5361 7.81309 17.9166 8.20327C18.1926 8.48616 18.351 8.71369 18.5088 9.05351C18.6979 9.46089 18.7707 9.76976 18.7878 10.2375C18.7982 10.5228 18.7934 10.6127 18.7556 10.8333C18.6769 11.2925 18.4891 11.7526 18.2329 12.1142C18.0927 12.3121 17.7653 12.6446 17.556 12.8016C17.3639 12.9457 16.9165 13.1781 16.695 13.2489C16.6199 13.2729 16.4687 13.3131 16.359 13.3382C16.1691 13.3817 16.0944 13.3846 14.805 13.3975C13.829 13.4072 13.4289 13.4182 13.3732 13.4366C13.1767 13.5016 12.9682 13.7115 12.9015 13.9115C12.8571 14.0445 12.8571 14.2635 12.9015 14.3965C12.9701 14.6023 13.182 14.8115 13.3841 14.8729C13.4507 14.8932 13.7887 14.8994 14.805 14.899C15.9836 14.8986 16.1665 14.8941 16.38 14.8607C17.3477 14.7094 18.2023 14.2969 18.8831 13.6525C20.0184 12.5778 20.5222 10.9731 20.2092 9.42899C19.9629 8.21395 19.2415 7.17347 18.1606 6.47421C17.9614 6.34533 17.5632 6.15041 17.3088 6.05721C17.1415 5.99593 17.091 5.96836 17.0839 5.93434C17.0788 5.91023 17.055 5.78348 17.0309 5.65269C16.9796 5.37387 16.8751 5.00095 16.767 4.71086C15.9658 2.56092 14.0519 1.03886 11.7795 0.744675C11.5327 0.712713 10.7429 0.686841 10.584 0.705489ZM10.3713 10.4584C10.2188 10.4841 10.0895 10.5515 9.97725 10.6638C9.85732 10.7837 9.80062 10.8859 9.76758 11.0418C9.75072 11.1214 9.744 12.0892 9.744 14.4432V17.7333L8.94075 16.935C8.0342 16.034 8.04334 16.041 7.749 16.0273C7.60127 16.0204 7.54879 16.0271 7.4445 16.0664C7.2719 16.1314 7.08082 16.3214 7.0174 16.491C6.95625 16.6547 6.95585 16.8803 7.01644 17.0459C7.05861 17.1613 7.13708 17.2439 8.54419 18.6552C9.36002 19.4734 10.064 20.1664 10.1085 20.1951C10.3375 20.3428 10.6625 20.3428 10.8915 20.1951C10.936 20.1664 11.64 19.4734 12.4558 18.6552C13.8629 17.2439 13.9414 17.1613 13.9836 17.0459C14.0442 16.8803 14.0438 16.6547 13.9826 16.491C13.9192 16.3214 13.7281 16.1314 13.5555 16.0664C13.4512 16.0271 13.3987 16.0204 13.251 16.0273C12.9567 16.041 12.9658 16.034 12.0593 16.935L11.256 17.7333V14.4432C11.256 12.0892 11.2493 11.1214 11.2324 11.0418C11.1986 10.8821 11.1402 10.7793 11.0128 10.6549C10.8463 10.4924 10.6059 10.4187 10.3713 10.4584Z" fill="currentColor"/>
</svg>
