<svg width="21" height="21" viewBox="0 0 21 21" fill="none" xmlns="http://www.w3.org/2000/svg">
<path fill-rule="evenodd" clip-rule="evenodd" d="M9.57224 0.72444C9.04781 0.812703 8.55055 1.11361 8.23318 1.53481C8.05606 1.76988 7.99821 1.89233 7.6966 2.67089C7.55267 3.04248 7.42759 3.35351 7.41869 3.36206C7.40979 3.37061 7.04848 3.57847 6.61578 3.82396L5.82905 4.27033L5.10378 4.16199C4.16766 4.02218 4.20449 4.02568 3.94808 4.05199C3.58044 4.08971 3.23889 4.20935 2.94651 4.40282C2.79268 4.50461 2.53884 4.74397 2.4326 4.8874C2.33577 5.01814 1.72435 6.07847 1.6242 6.28933C1.50131 6.54814 1.44476 6.81402 1.44331 7.14C1.44184 7.47449 1.48046 7.68995 1.59193 7.96902C1.69256 8.22096 1.8266 8.4139 2.35087 9.0615L2.79287 9.6075L2.79294 10.5023L2.793 11.397L2.34933 11.9618C1.8312 12.6213 1.76471 12.7157 1.65797 12.944C1.53434 13.2084 1.48655 13.4236 1.4755 13.7655C1.46473 14.0986 1.50297 14.3435 1.60665 14.6056C1.66553 14.7545 2.22165 15.7514 2.38562 16.002C2.59182 16.3172 2.8954 16.5809 3.24303 16.7468C3.4793 16.8596 3.6867 16.918 3.9585 16.9484C4.21046 16.9765 4.22929 16.9748 5.13717 16.8383L5.85381 16.7306L6.60717 17.1633C7.0215 17.4014 7.37705 17.6083 7.39727 17.6233C7.41747 17.6383 7.552 17.9552 7.69618 18.3276C7.99814 19.1075 8.05594 19.23 8.23318 19.4652C8.56775 19.9092 9.08781 20.2105 9.6495 20.2857C9.94543 20.3254 11.3904 20.3037 11.571 20.2569C12.1832 20.0983 12.6759 19.7273 12.9681 19.2048C13.0083 19.1329 13.167 18.7505 13.3208 18.3548L13.6005 17.6355L14.3865 17.1828L15.1725 16.7301L15.897 16.8382C16.8324 16.9778 16.7956 16.9743 17.0519 16.948C17.66 16.8856 18.1932 16.5939 18.5547 16.1259C18.6442 16.0101 19.2148 15.0334 19.3536 14.7586C19.6767 14.1185 19.619 13.2666 19.2116 12.663C19.1454 12.5648 18.8923 12.2388 18.6491 11.9385L18.2071 11.3925L18.2071 10.4977L18.207 9.60297L18.6507 9.03823C19.1688 8.37875 19.2353 8.28427 19.342 8.056C19.4657 7.79157 19.5135 7.5764 19.5245 7.2345C19.5353 6.90144 19.497 6.65654 19.3934 6.3944C19.3345 6.24555 18.7783 5.24862 18.6144 4.998C18.4082 4.68281 18.1046 4.41912 17.757 4.25317C17.5209 4.14051 17.3136 4.08205 17.0415 4.05145C16.7865 4.02276 16.7603 4.0252 15.8628 4.16098L15.1462 4.26943L14.3928 3.83666C13.9785 3.59865 13.623 3.39167 13.6027 3.37672C13.5825 3.36175 13.448 3.04479 13.3038 2.67238C13.0019 1.89248 12.9441 1.77003 12.7668 1.53481C12.4445 1.107 11.9512 0.811464 11.4135 0.723936C11.1641 0.683343 9.81429 0.683721 9.57224 0.72444ZM9.7088 2.2394C9.60779 2.27518 9.45048 2.40635 9.39044 2.50486C9.36778 2.54207 9.2114 2.92931 9.04296 3.36542C8.87449 3.80153 8.71697 4.19696 8.69289 4.24417C8.60254 4.42128 8.50924 4.48354 7.37031 5.1268C6.76431 5.46905 6.23637 5.75965 6.19712 5.77255C6.06474 5.81606 5.8423 5.79651 5.01432 5.66857C4.44022 5.57987 4.15525 5.54438 4.07679 5.55182C3.937 5.56504 3.76055 5.64928 3.67966 5.74138C3.58256 5.85201 2.98784 6.90862 2.95976 7.02043C2.92723 7.15 2.94584 7.30355 3.01073 7.44087C3.0392 7.50112 3.30145 7.84409 3.59959 8.211C3.93947 8.62928 4.16218 8.92253 4.20531 9.00856L4.2735 9.14462V10.5V11.8554L4.20508 11.9914C4.16541 12.0703 3.90743 12.4187 3.5911 12.8205C3.04019 13.5203 3.00056 13.5821 2.97106 13.7865C2.94981 13.9339 3.00856 14.0732 3.32947 14.6359C3.71521 15.3123 3.77708 15.3804 4.06008 15.4397C4.15978 15.4606 4.26025 15.4495 5.03616 15.3313C5.90472 15.1991 6.0653 15.1844 6.21081 15.2237C6.25409 15.2353 6.52575 15.3804 6.8145 15.546C7.10325 15.7116 7.59421 15.993 7.90551 16.1713C8.48837 16.5051 8.61172 16.5967 8.69289 16.7558C8.71697 16.803 8.87449 17.1985 9.04296 17.6346C9.2114 18.0707 9.36778 18.4579 9.39044 18.4951C9.45743 18.6051 9.61462 18.7294 9.72989 18.7636C9.81433 18.7887 9.9742 18.795 10.524 18.795C11.3066 18.795 11.3631 18.7855 11.5265 18.627C11.6406 18.5163 11.6534 18.4885 11.9888 17.6256C12.3637 16.6606 12.3322 16.7281 12.4707 16.5919C12.569 16.4953 12.7793 16.3664 13.6608 15.8627C14.2497 15.5263 14.7636 15.2404 14.8029 15.2275C14.9348 15.1841 15.1567 15.2034 15.9827 15.33C16.4347 15.3993 16.8369 15.456 16.8763 15.456C16.9158 15.456 17.0007 15.4375 17.065 15.4149C17.2817 15.3387 17.3262 15.2843 17.6861 14.6554C17.8707 14.3327 18.0261 14.0362 18.0403 13.9796C18.0728 13.8498 18.0541 13.6961 17.989 13.5591C17.9606 13.4994 17.6957 13.1528 17.4001 12.789C17.0604 12.3707 16.8378 12.0775 16.7947 11.9914L16.7265 11.8554V10.4899V9.1245L16.7957 8.9985C16.8338 8.9292 17.1101 8.56065 17.4097 8.1795C17.9596 7.47997 17.9995 7.41773 18.0289 7.2135C18.0502 7.0661 17.9914 6.92683 17.6705 6.36412C17.2846 5.68739 17.223 5.61965 16.9393 5.56015C16.8388 5.53907 16.7404 5.55001 15.9606 5.66889C15.0271 5.81121 14.8511 5.82177 14.7 5.74449C14.6596 5.7238 14.1544 5.43636 13.5775 5.10569C12.498 4.48705 12.3956 4.4176 12.3071 4.24417C12.283 4.19696 12.1255 3.80153 11.957 3.36542C11.7886 2.92931 11.6322 2.54207 11.6096 2.50486C11.547 2.40221 11.3912 2.27508 11.2826 2.23808C11.1444 2.191 9.84236 2.19207 9.7088 2.2394ZM9.9645 7.00237C8.53245 7.24154 7.41531 8.26516 7.06828 9.65616C6.9854 9.98846 6.96517 10.2068 6.97809 10.6301C6.99098 11.0526 7.03095 11.2922 7.14372 11.6235C7.33994 12.1999 7.7171 12.7676 8.16247 13.157C9.12939 14.0023 10.4704 14.257 11.697 13.8282C12.6672 13.4891 13.4892 12.6671 13.8282 11.697C14.202 10.6272 14.0621 9.4789 13.4428 8.5364C12.9498 7.78607 12.1257 7.22801 11.2245 7.03423C10.9563 6.97658 10.2291 6.95818 9.9645 7.00237ZM10.2375 8.48507C9.57075 8.57409 8.98308 8.99703 8.67791 9.6075C8.52909 9.90524 8.4453 10.3347 8.4732 10.6568C8.51657 11.1578 8.73428 11.6137 9.09596 11.9609C9.27393 12.1317 9.38053 12.2079 9.5865 12.3113C10.3623 12.7007 11.2829 12.5619 11.904 11.9618C12.0946 11.7777 12.2157 11.6109 12.3262 11.3805C12.7101 10.5798 12.5429 9.65251 11.904 9.03914C11.7204 8.8628 11.6202 8.79247 11.3833 8.67355C11.0576 8.51 10.6065 8.43581 10.2375 8.48507Z" fill="currentColor"/>
</svg>
