<svg width="21" height="21" viewBox="0 0 21 21" fill="none" xmlns="http://www.w3.org/2000/svg">
<path fill-rule="evenodd" clip-rule="evenodd" d="M7.5075 0.705522C4.76561 0.770958 2.52424 1.47828 1.41679 2.62759C1.01714 3.04234 0.800121 3.44831 0.722211 3.92699C0.677208 4.20343 0.679245 12.6506 0.724374 12.9289C0.868959 13.8204 1.64275 14.6435 2.8811 15.2231C3.30553 15.4218 3.36832 15.4407 3.56899 15.431C3.7229 15.4236 3.76727 15.4123 3.88013 15.352C4.03717 15.2682 4.14296 15.1569 4.21817 14.9965C4.26514 14.8963 4.2735 14.8498 4.2735 14.689C4.2735 14.5176 4.26699 14.4864 4.20504 14.3606C4.11457 14.1768 4.00888 14.0858 3.73997 13.9604C3.33919 13.7735 3.14265 13.6687 2.9295 13.5282C2.66259 13.3523 2.36517 13.0578 2.27829 12.8835L2.2155 12.7575L2.20968 11.7232C2.20647 11.1544 2.20748 10.689 2.21191 10.689C2.21634 10.689 2.30402 10.7377 2.40675 10.7972C2.61725 10.9192 3.02618 11.1178 3.23952 11.2017C3.63298 11.3564 4.04053 11.1964 4.21817 10.8175C4.26514 10.7173 4.2735 10.6708 4.2735 10.51C4.2735 10.3383 4.26705 10.3075 4.20447 10.1804C4.10951 9.98748 4.00287 9.90067 3.68084 9.75411C3.12425 9.5008 2.81438 9.30322 2.52907 9.01972C2.39772 8.88916 2.31956 8.7914 2.27707 8.70448L2.2155 8.57848L2.20968 7.54423C2.20647 6.97541 2.20807 6.50998 2.21319 6.50998C2.21834 6.50998 2.29654 6.55404 2.38701 6.60791C2.57811 6.72166 3.08362 6.96697 3.26317 7.03305C3.64293 7.17285 4.04563 7.00649 4.21817 6.6385C4.26514 6.53833 4.2735 6.49184 4.2735 6.33104C4.2735 6.15933 4.26705 6.1285 4.20447 6.00141C4.10951 5.80848 4.00287 5.72167 3.68084 5.57511C3.12425 5.3218 2.81438 5.12422 2.52907 4.84072C2.30777 4.6208 2.22268 4.47219 2.20889 4.28149C2.16182 3.63097 3.39499 2.86138 5.082 2.48842C5.95919 2.29451 6.93092 2.20572 8.18181 2.20517C9.73295 2.20452 11.194 2.59579 12.5492 3.37481C12.9341 3.59607 13.0559 3.63259 13.272 3.59138C13.6651 3.51641 13.9335 3.1679 13.8926 2.78553C13.8727 2.59968 13.7862 2.42595 13.6548 2.30778C13.5621 2.22443 13.3509 2.09452 12.915 1.85275C12.8515 1.81751 12.6625 1.72543 12.495 1.64811C11.4397 1.16089 10.3901 0.871632 9.219 0.745317C8.91832 0.712893 8.04731 0.692649 7.5075 0.705522ZM12.6945 4.88446C11.7042 4.94485 11.1935 5.00611 10.5 5.14771C8.4609 5.56404 6.99445 6.4242 6.47684 7.50748C6.36863 7.73399 6.30846 7.94542 6.27967 8.20048C6.25084 8.45599 6.2508 16.6928 6.27963 16.968C6.35557 17.6925 6.78527 18.3297 7.5705 18.882C8.62422 19.6232 10.2681 20.1131 12.222 20.2682C12.6415 20.3015 13.9229 20.3016 14.343 20.2683C16.3897 20.1061 18.0425 19.5951 19.131 18.7879C19.4024 18.5866 19.7459 18.2359 19.9059 17.9968C20.0635 17.7612 20.1164 17.6585 20.188 17.4499C20.3127 17.0861 20.307 17.3176 20.307 12.5895C20.307 7.86142 20.3127 8.09286 20.188 7.72912C20.0726 7.39253 19.8656 7.07776 19.5527 6.76274C18.5559 5.75923 16.6869 5.09198 14.3745 4.91401C14.0739 4.89088 12.9216 4.8706 12.6945 4.88446ZM12.4005 6.40702C10.9709 6.51295 9.7616 6.81115 8.85641 7.28089C8.54341 7.44333 8.34313 7.57989 8.14582 7.76543C7.9477 7.95172 7.84669 8.09941 7.79829 8.2735C7.76372 8.39784 7.76364 8.41296 7.79709 8.5405C7.92504 9.02833 8.66101 9.54797 9.744 9.91516C11.1348 10.3867 12.9811 10.552 14.7315 10.3617C16.1285 10.2098 17.4167 9.79972 18.1764 9.26508C18.3987 9.10865 18.6286 8.86686 18.7128 8.70089C18.7744 8.57956 18.7845 8.53869 18.7845 8.41048C18.7845 8.20441 18.6989 8.03715 18.482 7.81957C17.7552 7.09028 16.1566 6.56104 14.238 6.41454C13.82 6.38262 12.7869 6.3784 12.4005 6.40702ZM7.77 11.6512C7.77 12.4945 7.77481 12.6506 7.80387 12.7484C7.96872 13.3037 8.94715 13.9015 10.2585 14.2482C11.2059 14.4987 12.1715 14.616 13.2864 14.616C14.8197 14.6159 16.1616 14.3814 17.304 13.914C17.9862 13.6349 18.5334 13.2334 18.7125 12.8806L18.7845 12.7388L18.7903 11.7018L18.7962 10.6649L18.6643 10.7409C18.4226 10.8801 18.0524 11.0599 17.787 11.1669C15.3964 12.1309 11.8643 12.2075 9.29158 11.3512C8.82143 11.1947 8.34914 10.9912 8.01914 10.8029C7.88915 10.7287 7.77991 10.668 7.77638 10.668C7.77288 10.668 7.77 11.1104 7.77 11.6512ZM7.77 15.8302C7.77 16.6735 7.77481 16.8296 7.80387 16.9274C7.94399 17.3993 8.6886 17.9158 9.744 18.273C11.3287 18.8095 13.5129 18.9455 15.4012 18.6253C17.1244 18.3331 18.4938 17.6553 18.7563 16.9645C18.792 16.8705 18.795 16.7834 18.795 15.853V14.8435L18.6848 14.909C17.7613 15.4575 16.3907 15.8697 14.952 16.0314C14.172 16.1192 12.9312 16.1454 12.222 16.0892C10.5348 15.9554 9.03101 15.5592 8.01914 14.9819C7.88915 14.9077 7.77991 14.847 7.77638 14.847C7.77288 14.847 7.77 15.2894 7.77 15.8302Z" fill="currentColor"/>
</svg>
