<svg width="21" height="21" viewBox="0 0 21 21" fill="none" xmlns="http://www.w3.org/2000/svg">
<path fill-rule="evenodd" clip-rule="evenodd" d="M7.47208 0.732403C7.24627 0.82306 7.09114 0.970774 7.00949 1.1729C6.96209 1.29027 6.96153 1.30274 6.95525 2.37824L6.94891 3.46499L6.32521 3.46518C5.45362 3.46543 5.22109 3.48941 4.87201 3.61512C4.31651 3.81514 3.81516 4.31649 3.61514 4.87199C3.48943 5.22107 3.46545 5.4536 3.4652 6.32519L3.46501 6.94889L2.37826 6.95523C1.29991 6.96153 1.29058 6.96195 1.17176 7.00991C1.00397 7.07764 0.856218 7.21739 0.772407 7.38766C0.709974 7.51446 0.703506 7.54539 0.703506 7.71705C0.703506 7.87847 0.711801 7.92419 0.759576 8.0261C0.831102 8.17871 0.977284 8.32489 1.12989 8.39642L1.24951 8.45249L2.35726 8.45828L3.46501 8.46406V10.5V12.5359L2.35726 12.5417L1.24951 12.5475L1.12989 12.6036C0.977284 12.6751 0.831102 12.8213 0.759576 12.9739C0.711801 13.0758 0.703506 13.1215 0.703506 13.2829C0.703506 13.4546 0.709974 13.4855 0.772407 13.6123C0.856218 13.7826 1.00397 13.9223 1.17176 13.9901C1.29058 14.038 1.29991 14.0384 2.37826 14.0447L3.46501 14.0511L3.4652 14.6748C3.46545 15.5464 3.48943 15.7789 3.61514 16.128C3.81516 16.6835 4.31651 17.1848 4.87201 17.3849C5.22109 17.5106 5.45362 17.5345 6.32521 17.5348L6.94891 17.535L6.95525 18.6217C6.96155 19.7001 6.96197 19.7094 7.00993 19.8282C7.07766 19.996 7.21741 20.1438 7.38768 20.2276C7.51448 20.29 7.54541 20.2965 7.71707 20.2965C7.87849 20.2965 7.92421 20.2882 8.02612 20.2404C8.17873 20.1689 8.32491 20.0227 8.39644 19.8701L8.45251 19.7505L8.4583 18.6427L8.46408 17.535H10.5H12.5359L12.5417 18.6427L12.5475 19.7505L12.6036 19.8701C12.6751 20.0227 12.8213 20.1689 12.9739 20.2404C13.0758 20.2882 13.1215 20.2965 13.2829 20.2965C13.4546 20.2965 13.4855 20.29 13.6123 20.2276C13.7826 20.1438 13.9224 19.996 13.9901 19.8282C14.038 19.7094 14.0385 19.7 14.0447 18.6243L14.0511 17.54L14.8428 17.5289C15.6868 17.5171 15.7764 17.5077 16.0941 17.3969C16.6869 17.1904 17.1904 16.6869 17.397 16.0941C17.5077 15.7763 17.5171 15.6867 17.529 14.8428L17.54 14.0511L18.6243 14.0447C19.7 14.0384 19.7094 14.038 19.8282 13.9901C19.996 13.9223 20.1438 13.7826 20.2276 13.6123C20.29 13.4855 20.2965 13.4546 20.2965 13.2829C20.2965 13.1215 20.2882 13.0758 20.2404 12.9739C20.1689 12.8213 20.0227 12.6751 19.8701 12.6036L19.7505 12.5475L18.6428 12.5417L17.535 12.5359V10.5V8.46406L18.6428 8.45828L19.7505 8.45249L19.8701 8.39642C20.0227 8.32489 20.1689 8.17871 20.2404 8.0261C20.2882 7.92419 20.2965 7.87847 20.2965 7.71705C20.2965 7.54539 20.29 7.51446 20.2276 7.38766C20.1438 7.21739 19.996 7.07764 19.8282 7.00991C19.7094 6.96195 19.7 6.96153 18.6243 6.95525L17.54 6.94891L17.529 6.15719C17.5171 5.31324 17.5077 5.22363 17.397 4.90586C17.1951 4.32668 16.697 3.82003 16.128 3.61512C15.7789 3.48941 15.5464 3.46543 14.6748 3.46518L14.0511 3.46499L14.0448 2.37824C14.0385 1.29989 14.038 1.29056 13.9901 1.17174C13.9224 1.00395 13.7826 0.856198 13.6123 0.772387C13.4855 0.709954 13.4546 0.703486 13.2829 0.703486C13.1215 0.703486 13.0758 0.711781 12.9739 0.759556C12.8213 0.831082 12.6751 0.977263 12.6036 1.12987L12.5475 1.24949L12.5417 2.35724L12.5359 3.46499H10.5H8.46408L8.4583 2.35724L8.45251 1.24949L8.39644 1.12987C8.32476 0.97699 8.17846 0.830851 8.02612 0.759997C7.86745 0.686182 7.61811 0.673771 7.47208 0.732403ZM5.43888 5.01752C5.28932 5.06325 5.13413 5.19501 5.0537 5.34449L5.00851 5.42849V10.5V15.5715L5.0537 15.6555C5.11147 15.7629 5.23711 15.8885 5.34451 15.9463L5.42851 15.9915H10.5H15.5715L15.6555 15.9463C15.7629 15.8885 15.8885 15.7629 15.9463 15.6555L15.9915 15.5715V10.5V5.42849L15.9463 5.34449C15.8885 5.23709 15.7629 5.11145 15.6555 5.05368L15.5715 5.00849L10.5315 5.00496C7.75951 5.00301 5.46782 5.00868 5.43888 5.01752ZM9.88534 11.5375C9.615 11.6493 9.45314 11.8503 9.40748 12.1307C9.38474 12.2705 9.41141 12.4444 9.47533 12.5733C9.53531 12.6942 9.68949 12.8551 9.79823 12.9103C9.97301 12.9989 10.0405 13.0021 11.613 12.9951L13.1145 12.9885L13.2405 12.9297C13.8345 12.6524 13.8407 11.8448 13.251 11.5544L13.1355 11.4975L11.571 11.4925L10.0065 11.4874L9.88534 11.5375Z" fill="currentColor"/>
</svg>
