<svg width="21" height="21" viewBox="0 0 21 21" fill="none" xmlns="http://www.w3.org/2000/svg">
<path fill-rule="evenodd" clip-rule="evenodd" d="M3.2655 1.40998C2.78714 1.47076 2.32371 1.70512 1.99054 2.05481C1.65885 2.40292 1.46704 2.81161 1.40775 3.29645C1.37999 3.52361 1.37951 4.22304 1.40702 4.36813C1.45124 4.60137 1.61443 4.81259 1.827 4.91175C1.9975 4.99128 2.23845 4.99909 2.40811 4.93057C2.56699 4.86637 2.66962 4.785 2.76454 4.64787C2.87647 4.48621 2.89728 4.36288 2.89766 3.85955C2.89806 3.34085 2.91866 3.25733 3.088 3.08801C3.25733 2.91866 3.34084 2.89806 3.85954 2.89766C4.36287 2.89729 4.48621 2.87647 4.64786 2.76454C4.78499 2.66962 4.86637 2.567 4.93057 2.40811C4.99909 2.23845 4.99128 1.9975 4.91175 1.827C4.81259 1.61444 4.60137 1.45125 4.36812 1.40702C4.23477 1.38174 3.47178 1.38377 3.2655 1.40998ZM7.56277 1.40864C7.34901 1.45064 7.14987 1.60369 7.04172 1.80902C6.98766 1.91171 6.9825 1.94069 6.9825 2.142C6.9825 2.33556 6.9889 2.37516 7.035 2.46616C7.09724 2.58905 7.25825 2.75663 7.36692 2.81158C7.51648 2.88723 7.64645 2.898 8.4105 2.898C9.17454 2.898 9.30451 2.88723 9.45407 2.81158C9.56275 2.75663 9.72375 2.58905 9.786 2.46616C9.83209 2.37516 9.8385 2.33556 9.8385 2.142C9.8385 1.94069 9.83333 1.91171 9.77928 1.80902C9.66699 1.59581 9.47358 1.45129 9.24166 1.40731C9.10625 1.38163 7.6945 1.38274 7.56277 1.40864ZM12.4361 1.40773C12.2192 1.45202 12.0044 1.62298 11.9092 1.827C11.8297 1.9975 11.8219 2.23845 11.8904 2.40811C11.9546 2.567 12.036 2.66962 12.1731 2.76454C12.3506 2.88742 12.4325 2.89731 13.2762 2.89766C14.2308 2.89808 14.2996 2.88471 14.5241 2.65478C14.776 2.39671 14.7998 1.98179 14.5792 1.69226C14.4919 1.57775 14.3391 1.46366 14.2208 1.42474C14.1272 1.39392 12.5761 1.37913 12.4361 1.40773ZM6.64944 4.90545C5.74814 5.06902 5.06003 5.76446 4.90381 6.66968C4.87513 6.83594 4.8721 7.4776 4.87727 12.3274L4.88306 17.7975L4.92849 17.9655C5.03928 18.3753 5.24149 18.7226 5.52997 18.9986C5.88785 19.3411 6.28683 19.5312 6.7725 19.5907C7.02912 19.6222 17.4469 19.6236 17.7035 19.5922C18.7089 19.4693 19.4693 18.7089 19.5922 17.7035C19.6236 17.4469 19.6222 7.02912 19.5907 6.7725C19.5312 6.28683 19.3411 5.88785 18.9986 5.52997C18.7226 5.24149 18.3753 5.03929 17.9655 4.92849L17.7975 4.88307L12.306 4.87929C7.62984 4.87605 6.78999 4.87994 6.64944 4.90545ZM6.8145 6.4118C6.64024 6.48037 6.52654 6.58127 6.44357 6.741L6.3945 6.8355V12.243V17.6505L6.45682 17.763C6.53446 17.9032 6.65152 18.0051 6.79786 18.0598C6.90963 18.1016 6.9549 18.102 12.243 18.102H17.5754L17.6925 18.0582C17.8488 17.9997 17.9997 17.8488 18.0582 17.6925L18.102 17.5754V12.243C18.102 6.95491 18.1016 6.90963 18.0598 6.79787C18.0051 6.65152 17.9032 6.53446 17.763 6.45683L17.6505 6.3945L12.264 6.39076C8.16665 6.38793 6.86242 6.39297 6.8145 6.4118ZM1.932 6.99046C1.65799 7.08023 1.45977 7.30273 1.40731 7.57934C1.37953 7.72586 1.37953 9.09514 1.40731 9.24166C1.45129 9.47358 1.59581 9.66699 1.80902 9.77928C1.91171 9.83333 1.94069 9.8385 2.142 9.8385C2.33555 9.8385 2.37516 9.83209 2.46615 9.786C2.58904 9.72375 2.75662 9.56275 2.81158 9.45407C2.88722 9.30451 2.898 9.17454 2.898 8.4105C2.898 7.4723 2.88485 7.40147 2.67107 7.18843C2.51641 7.03426 2.40057 6.98546 2.1735 6.9788C2.06955 6.97576 1.96087 6.98101 1.932 6.99046ZM1.86484 11.8942C1.61817 11.9957 1.45431 12.1979 1.40569 12.461C1.37428 12.6308 1.39041 14.1161 1.42478 14.2208C1.46361 14.339 1.57771 14.4919 1.69226 14.5792C1.98179 14.7998 2.39671 14.776 2.65477 14.5241C2.78222 14.3997 2.84056 14.2969 2.87441 14.1372C2.91039 13.9675 2.90564 12.5618 2.86855 12.4041C2.83569 12.2644 2.72632 12.0938 2.61147 12.0029C2.40716 11.8413 2.10163 11.7968 1.86484 11.8942Z" fill="currentColor"/>
</svg>
