<svg width="21" height="21" viewBox="0 0 21 21" fill="none" xmlns="http://www.w3.org/2000/svg">
<path fill-rule="evenodd" clip-rule="evenodd" d="M14.4375 0.723011C14.3567 0.738992 14.2484 0.767384 14.197 0.786095C13.9347 0.88154 13.6337 1.11695 13.4798 1.34709C13.3839 1.4905 9.30057 8.86018 9.20659 9.05949C8.92097 9.66521 9.04844 10.3924 9.5235 10.8675C9.7481 11.0921 10.0189 11.2336 10.3307 11.2892C10.5657 11.3311 18.7923 11.3311 19.0273 11.2892C19.3391 11.2336 19.6099 11.0921 19.8345 10.8675C20.1555 10.5465 20.3262 10.0986 20.2987 9.64948C20.2841 9.4114 20.2434 9.25346 20.1416 9.04048C20.0975 8.94808 19.1771 7.25055 18.0963 5.26819C17.0155 3.28583 16.1061 1.61434 16.0754 1.55377C15.9843 1.37399 15.8169 1.16015 15.6793 1.04769C15.5374 0.931668 15.229 0.773895 15.0713 0.736599C14.9061 0.697497 14.5996 0.690923 14.4375 0.723011ZM14.6827 2.25771C14.6692 2.28749 13.736 3.97469 12.6091 6.00705C11.2451 8.46697 10.5624 9.71798 10.5668 9.74936L10.5735 9.79648H14.679H18.7845L18.7912 9.74951C18.7956 9.71857 18.1185 8.45582 16.8096 6.0535C15.716 4.04653 14.7957 2.35927 14.7643 2.30402L14.7074 2.20355L14.6827 2.25771ZM14.5485 4.45261C14.3343 4.48869 14.1188 4.6511 14.016 4.85388C13.9338 5.01621 13.9184 5.21686 13.9274 6.00995C13.9353 6.69928 13.9377 6.73571 13.9833 6.85117C14.0461 7.01022 14.2069 7.18461 14.36 7.25981C14.4654 7.31153 14.5031 7.31848 14.679 7.31848C14.8513 7.31848 14.8948 7.31084 14.9981 7.26241C15.1507 7.19089 15.2969 7.0447 15.3684 6.8921L15.4245 6.77248L15.4307 5.93248C15.4352 5.33176 15.4298 5.06556 15.4119 4.99798C15.3387 4.72126 15.1042 4.50713 14.816 4.45385C14.6805 4.4288 14.6895 4.42884 14.5485 4.45261ZM2.604 6.28215C1.77431 6.36853 1.0302 7.00569 0.79082 7.83466C0.688109 8.19044 0.690041 8.07509 0.696971 13.4085L0.703502 18.4275L0.75911 18.6285C0.833723 18.8983 0.923939 19.1091 1.0461 19.299C1.40196 19.8521 1.94492 20.2028 2.5725 20.2848C2.71499 20.3034 4.52403 20.3078 9.9225 20.3027L17.0835 20.296L17.2515 20.2504C17.661 20.1393 17.9548 19.9722 18.2405 19.6883C18.6452 19.286 18.85 18.8413 18.9004 18.2547C18.916 18.0738 18.9213 17.2245 18.9169 15.645C18.9107 13.4721 18.9076 13.2967 18.8734 13.209C18.7929 13.0024 18.582 12.7996 18.3889 12.7429C18.3408 12.7288 18.2306 12.7173 18.144 12.7173C18.0164 12.7172 17.9626 12.7282 17.8605 12.7752C17.6735 12.8613 17.5098 13.035 17.4436 13.2177C17.4271 13.2634 17.417 14.0169 17.4093 15.771C17.3974 18.5055 17.4063 18.3289 17.2713 18.5237C17.205 18.6194 17.0535 18.7356 16.9491 18.7709C16.8959 18.7888 15.0749 18.795 9.80761 18.795C1.92776 18.795 2.63454 18.8091 2.45139 18.6479C2.40083 18.6034 2.32705 18.5072 2.28747 18.4342L2.2155 18.3015L2.20998 15.1252L2.20448 11.949L4.65648 11.9487C6.64024 11.9485 7.1287 11.9431 7.2143 11.9203C7.47422 11.8511 7.68607 11.6305 7.74886 11.3638C7.83099 11.0148 7.62945 10.6325 7.29124 10.4959L7.1715 10.4475L4.68771 10.4416L2.20391 10.4358L2.20971 9.36014L2.2155 8.28448L2.27111 8.16587C2.33883 8.02141 2.46994 7.88615 2.60087 7.82561L2.6985 7.78048L5.3025 7.76998L7.9065 7.75948L8.02204 7.70528C8.50899 7.47684 8.61385 6.83187 8.22266 6.4713C8.1013 6.35941 7.99235 6.3063 7.83029 6.28001C7.66401 6.25303 2.86482 6.255 2.604 6.28215ZM14.574 7.55198C14.4295 7.57674 14.3216 7.6146 14.2151 7.67804C13.6856 7.99334 13.5978 8.70163 14.0351 9.13105C14.4023 9.49167 14.956 9.49133 15.3237 9.13026C15.7522 8.70935 15.6766 8.01986 15.1658 7.69163C15.0026 7.58674 14.737 7.52405 14.574 7.55198ZM12.4788 15.3297C12.2238 15.3684 11.9758 15.5683 11.8855 15.8078C11.8229 15.9738 11.8331 16.2375 11.9081 16.3905C11.9778 16.5328 12.1343 16.6857 12.28 16.754L12.4005 16.8105H13.6395C14.8682 16.8105 14.8793 16.8101 14.9776 16.7647C15.1094 16.7038 15.2801 16.5412 15.3435 16.416C15.4688 16.1688 15.4528 15.882 15.3014 15.6608C15.2067 15.5224 15.0376 15.3911 14.8995 15.3487C14.8012 15.3185 12.663 15.3018 12.4788 15.3297Z" fill="currentColor"/>
</svg>
