<svg width="21" height="21" viewBox="0 0 21 21" fill="none" xmlns="http://www.w3.org/2000/svg">
<path fill-rule="evenodd" clip-rule="evenodd" d="M2.436 2.82426C1.67693 2.97695 1.03112 3.56512 0.799869 4.3143C0.688359 4.67558 0.693168 4.39649 0.693168 10.5C0.693168 15.3774 0.697431 16.1858 0.724017 16.3497C0.87549 17.2835 1.5594 18.0063 2.4536 18.1775C2.68466 18.2218 18.3153 18.2218 18.5464 18.1775C19.4366 18.0071 20.1247 17.2823 20.2748 16.3573C20.3029 16.1834 20.3068 15.475 20.3068 10.5C20.3068 5.52499 20.3029 4.8166 20.2748 4.64278C20.1349 3.7802 19.5318 3.09457 18.6999 2.85225L18.5325 2.80351L10.5525 2.80015C4.05405 2.79742 2.54715 2.8019 2.436 2.82426ZM2.68571 4.31287C2.5129 4.35955 2.34975 4.5076 2.26233 4.69704C2.21554 4.79845 2.2155 4.79952 2.20968 6.23176L2.20389 7.66501H10.5H18.7961L18.7903 6.23176L18.7845 4.79851L18.73 4.68301C18.6642 4.54343 18.5335 4.4088 18.4001 4.34309L18.3015 4.29451L10.542 4.29061C4.40546 4.28752 2.76226 4.29218 2.68571 4.31287ZM2.21002 12.6788L2.2155 16.2015L2.26997 16.317C2.33583 16.4566 2.46649 16.5912 2.59991 16.6569L2.6985 16.7055H10.5H18.3015L18.4001 16.6569C18.5335 16.5912 18.6642 16.4566 18.73 16.317L18.7845 16.2015L18.79 12.6788L18.7955 9.15601H10.5H2.20452L2.21002 12.6788ZM13.7088 12.587C13.5735 12.6429 13.4811 12.7133 13.3834 12.8346C13.2792 12.9642 13.2405 13.0882 13.2405 13.293C13.2405 13.4429 13.2496 13.4908 13.2969 13.592C13.3657 13.7386 13.5191 13.8964 13.6605 13.9659L13.7655 14.0175H15.0255H16.2855L16.3834 13.9693C16.5405 13.8919 16.6651 13.7677 16.7415 13.6125C16.804 13.4853 16.8105 13.4544 16.8105 13.2828C16.8105 13.1232 16.802 13.0754 16.7563 12.978C16.687 12.8303 16.5277 12.671 16.38 12.6017L16.2645 12.5475L15.0465 12.5425L13.8285 12.5375L13.7088 12.587Z" fill="currentColor"/>
</svg>
