<svg width="21" height="21" viewBox="0 0 21 21" fill="none" xmlns="http://www.w3.org/2000/svg">
<path fill-rule="evenodd" clip-rule="evenodd" d="M2.71375 2.10372C2.40912 2.15066 2.15219 2.40885 2.10395 2.7165C2.08087 2.86365 2.10418 3.03807 2.16405 3.1659C2.20103 3.2449 2.95783 4.01327 5.82494 6.88273L9.43921 10.5L5.82494 14.1172C2.95783 16.9867 2.20103 17.7551 2.16405 17.8341C2.03066 18.119 2.09101 18.4661 2.31248 18.6875C2.53392 18.909 2.88101 18.9693 3.16592 18.8359C3.24492 18.799 4.01329 18.0422 6.88275 15.175L10.5 11.5608L14.1173 15.175C16.9867 18.0422 17.7551 18.799 17.8341 18.8359C18.1157 18.9678 18.4695 18.9065 18.688 18.688C18.9065 18.4695 18.9678 18.1157 18.836 17.8341C18.799 17.7551 18.0422 16.9867 15.1751 14.1172L11.5608 10.5L15.1751 6.88273C18.0422 4.01327 18.799 3.2449 18.836 3.1659C18.9693 2.88099 18.909 2.53391 18.6875 2.31246C18.4661 2.09099 18.119 2.03064 17.8341 2.16403C17.7551 2.20101 16.9867 2.95783 14.1172 5.82494L10.4999 9.43925L6.89323 5.83561C4.90953 3.85361 3.25343 2.21286 3.213 2.18953C3.06772 2.10563 2.89449 2.07585 2.71375 2.10372Z" fill="currentColor"/>
</svg>
