<svg width="21" height="21" viewBox="0 0 21 21" fill="none" xmlns="http://www.w3.org/2000/svg">
<path fill-rule="evenodd" clip-rule="evenodd" d="M10.143 1.3961C10.0564 1.41084 9.91018 1.44831 9.81814 1.47937C9.72607 1.5104 8.20462 2.23574 6.43714 3.0912C2.62635 4.93563 2.63139 4.93315 2.45701 5.0563C1.95183 5.41309 1.62803 5.99254 1.57476 6.63508C1.55197 6.91016 1.55128 11.0968 1.57368 13.2195C1.58775 14.5526 1.59006 14.6118 1.63387 14.7704C1.7676 15.2547 2.10018 15.7185 2.50951 15.9914C2.61444 16.0614 3.92321 16.7046 5.99551 17.7045C7.82041 18.5851 9.42218 19.3545 9.55501 19.4142C9.94884 19.5912 10.2281 19.6481 10.6105 19.6291C10.9069 19.6144 11.1311 19.5569 11.4444 19.4151C11.5776 19.3549 13.1796 18.5852 15.0045 17.7046C17.0827 16.7018 18.3853 16.0617 18.4905 15.9915C18.899 15.7189 19.2279 15.2611 19.3676 14.7704L19.4145 14.6055L19.42 10.5945C19.4261 6.15651 19.4338 6.42632 19.2915 6.04714C19.1411 5.64661 18.8422 5.26558 18.4943 5.03118C18.2899 4.89344 11.4373 1.5654 11.18 1.47888C10.8545 1.36947 10.4768 1.33932 10.143 1.3961ZM10.269 2.9168C10.1902 2.94838 4.13583 5.87502 4.12193 5.8883C4.11941 5.89069 5.55339 6.58514 7.30857 7.43152L10.4998 8.97036L13.6928 7.43196L16.8858 5.89357L16.6592 5.78489C16.5345 5.72515 15.1804 5.06856 13.65 4.32585C12.1196 3.58312 10.8155 2.95352 10.752 2.92673C10.6081 2.86602 10.4062 2.86188 10.269 2.9168ZM3.06601 10.6575C3.06601 13.1174 3.07306 14.2898 3.08831 14.3609C3.11777 14.4983 3.21231 14.6436 3.32292 14.7214C3.39405 14.7715 9.70318 17.829 9.7354 17.829C9.74012 17.829 9.74401 16.1302 9.74401 14.0538V10.2786L6.89326 8.90459C5.32536 8.14886 3.82278 7.42424 3.55426 7.29433L3.06601 7.0581V10.6575ZM14.5688 8.68006L11.256 10.2788V14.0539C11.256 16.1302 11.26 17.829 11.2648 17.829C11.2971 17.829 17.6056 14.7717 17.6771 14.7214C17.7877 14.6436 17.8822 14.4983 17.9117 14.3609C17.9465 14.1985 17.9427 7.07629 17.9078 7.07916C17.8933 7.08034 16.3908 7.80074 14.5688 8.68006Z" fill="currentColor"/>
</svg>
