<svg width="21" height="21" viewBox="0 0 21 21" fill="none" xmlns="http://www.w3.org/2000/svg">
<path fill-rule="evenodd" clip-rule="evenodd" d="M1.23883 0.721679C0.792542 0.850829 0.568955 1.36378 0.777821 1.77932C0.830489 1.88409 2.07919 3.14046 9.99012 11.0482C18.3179 19.3726 19.1519 20.2002 19.257 20.2446C19.433 20.3188 19.6856 20.3155 19.8578 20.2367C20.0186 20.163 20.1612 20.0198 20.2373 19.8555C20.2868 19.7485 20.2955 19.7026 20.2951 19.551C20.2941 19.2219 20.39 19.3365 18.6937 17.6362L17.192 16.1308L18.1037 16.1231C18.901 16.1164 19.0274 16.1109 19.11 16.0795C19.3153 16.0014 19.5203 15.7884 19.5754 15.5959C19.5891 15.5478 19.6004 15.4375 19.6005 15.3506C19.6005 15.1539 19.5315 14.988 19.3895 14.8433C19.2519 14.7031 19.092 14.6372 18.8355 14.6149C18.4984 14.5856 18.3461 14.5279 18.1084 14.3394C17.7939 14.09 17.576 13.775 17.4927 13.4494C17.4522 13.2908 17.451 13.2104 17.4506 10.5334C17.4502 7.77982 17.4378 7.13924 17.3762 6.69467C17.1973 5.40543 16.6621 4.19565 15.8203 3.17838C15.6084 2.92225 15.1131 2.43648 14.847 2.22375C13.8095 1.39443 12.6355 0.906668 11.256 0.731864C10.9645 0.694925 10.0355 0.694925 9.744 0.731864C8.36529 0.906584 7.21527 1.38377 6.15309 2.22186C5.75667 2.53465 5.20618 3.12078 4.81608 3.64542L4.77066 3.70651L3.31458 2.25554C2.01852 0.96404 1.84582 0.799253 1.743 0.756098C1.60419 0.697844 1.37523 0.682199 1.23883 0.721679ZM10.0275 2.21742C9.99285 2.22219 9.8511 2.24115 9.7125 2.25959C9.42153 2.29827 9.01035 2.39937 8.69493 2.50977C7.59516 2.89472 6.66303 3.61762 5.98477 4.61157L5.85795 4.79742L10.7672 9.70672L15.6765 14.616H16.0195C16.2081 14.616 16.3593 14.6089 16.3553 14.6003C16.3514 14.5916 16.3116 14.514 16.267 14.4277C16.1601 14.2211 16.056 13.9301 15.9983 13.6766L15.9517 13.4715L15.9387 10.3005C15.9272 7.51631 15.9215 7.10387 15.8915 6.9193C15.7809 6.2371 15.6404 5.78663 15.3612 5.21851C14.5808 3.63039 13.073 2.53104 11.298 2.25613C11.0888 2.22372 10.1826 2.19613 10.0275 2.21742ZM4.032 7.71029C3.87095 7.77371 3.67777 7.96939 3.61015 8.13751L3.5595 8.26351L3.54885 10.8255L3.53821 13.3875L3.49123 13.524C3.40431 13.7766 3.28455 13.9606 3.06739 14.175C2.75054 14.4879 2.56112 14.5804 2.16792 14.6146C1.90773 14.6372 1.7488 14.7024 1.61047 14.8433C1.46847 14.988 1.39948 15.1539 1.39955 15.3506C1.39959 15.4375 1.41087 15.5478 1.42462 15.5959C1.48138 15.7943 1.69002 16.0069 1.9005 16.0807C1.99937 16.1154 2.27806 16.1175 6.678 16.1175H11.3505L11.4702 16.0691C11.8069 15.9331 12.0096 15.5487 11.9279 15.2014C11.8651 14.9345 11.6533 14.7139 11.3933 14.6447C11.3069 14.6217 10.6765 14.6165 7.96251 14.6163C6.13374 14.6161 4.64073 14.6089 4.64468 14.6003C4.64862 14.5916 4.68718 14.5163 4.73036 14.4329C4.88309 14.138 4.99305 13.7736 5.03948 13.4085C5.05665 13.2733 5.06165 12.5079 5.05701 10.7201L5.0505 8.22061L4.98147 8.08042C4.90493 7.92493 4.78897 7.80954 4.62819 7.72887C4.48033 7.6547 4.19563 7.64582 4.032 7.71029ZM8.97156 18.8184C8.69501 18.8644 8.45569 19.0864 8.37951 19.3675C8.34114 19.5091 8.36107 19.7285 8.42493 19.868C8.49131 20.0131 8.6511 20.1729 8.79896 20.2423L8.9145 20.2965L10.4265 20.303C12.1099 20.3101 12.1081 20.3103 12.3035 20.1787C12.5112 20.0389 12.62 19.8534 12.6375 19.6094C12.6546 19.3704 12.5753 19.1684 12.4017 19.0083C12.2803 18.8964 12.1713 18.8433 12.0093 18.817C11.8448 18.7904 9.13275 18.7915 8.97156 18.8184Z" fill="currentColor"/>
</svg>
