<svg width="21" height="21" viewBox="0 0 21 21" fill="none" xmlns="http://www.w3.org/2000/svg">
<path fill-rule="evenodd" clip-rule="evenodd" d="M8.0745 0.71666C7.73678 0.758849 7.32131 0.919226 7.00484 1.12956C6.72116 1.3181 6.41831 1.64658 6.23866 1.9606L6.17293 2.07549L5.0657 2.0855C4.39851 2.09153 3.91259 2.10457 3.843 2.11828C3.23528 2.23809 2.69159 2.62168 2.38132 3.14957C2.22085 3.42253 2.13406 3.69454 2.10069 4.02897C2.07188 4.31774 2.07159 18.0671 2.10038 18.3633C2.19513 19.3377 2.92603 20.1189 3.88905 20.2751C4.06027 20.3029 4.87971 20.3068 10.5 20.3068C17.4863 20.3068 17.107 20.3131 17.4546 20.1916C18.2632 19.9092 18.8175 19.2077 18.8996 18.3633C18.9284 18.0671 18.9281 4.31774 18.8993 4.02897C18.8659 3.69454 18.7791 3.42253 18.6187 3.14957C18.3084 2.62168 17.7647 2.23809 17.157 2.11828C17.0874 2.10457 16.6015 2.09153 15.9343 2.0855L14.8271 2.07549L14.7613 1.9606C14.3744 1.28431 13.666 0.809585 12.9045 0.716282C12.6753 0.688184 8.29966 0.688541 8.0745 0.71666ZM8.10121 2.25424C7.84692 2.34088 7.64576 2.51359 7.52953 2.74501C7.45998 2.88348 7.43043 3.02443 7.43114 3.21419C7.43211 3.4689 7.5108 3.65977 7.69831 3.86229C7.83178 4.00648 8.04134 4.12311 8.22961 4.15801C8.38312 4.18647 12.6169 4.18647 12.7704 4.15801C12.9587 4.12311 13.1682 4.00648 13.3017 3.86229C13.427 3.72699 13.4765 3.64452 13.5332 3.47669C13.5741 3.35546 13.5802 3.10234 13.5457 2.95146C13.4714 2.62632 13.209 2.34905 12.8792 2.24718C12.7459 2.20602 12.6875 2.20501 10.4925 2.20554L8.2425 2.20608L8.10121 2.25424ZM4.0635 3.62025C3.86343 3.68379 3.71099 3.82162 3.64153 4.00173C3.60244 4.10306 3.6015 4.27293 3.6015 11.214V18.3225L3.64728 18.4216C3.71076 18.559 3.86125 18.6991 4.00191 18.7517L4.11758 18.795H10.5H16.8824L16.9985 18.7516C17.1366 18.6999 17.2908 18.5551 17.3547 18.4172L17.3985 18.3225V11.2035V4.08449L17.349 3.975C17.2873 3.83863 17.1361 3.69465 16.9989 3.64175C16.9017 3.60427 16.831 3.60149 15.9722 3.60149H15.0498L15.0215 3.72749C14.8725 4.39111 14.4513 4.97466 13.8647 5.33017C13.6978 5.43131 13.3867 5.55821 13.1872 5.60657C13.0895 5.63026 12.8961 5.65874 12.7575 5.66985C12.4351 5.69568 8.54984 5.69662 8.23933 5.67094C7.59116 5.6173 7.06455 5.37156 6.61823 4.91448C6.30573 4.59444 6.07843 4.17271 5.97847 3.72749L5.95018 3.60149L5.04884 3.59752C4.3688 3.59454 4.12688 3.60013 4.0635 3.62025Z" fill="currentColor"/>
</svg>
