<svg width="21" height="21" viewBox="0 0 21 21" fill="none" xmlns="http://www.w3.org/2000/svg">
<path fill-rule="evenodd" clip-rule="evenodd" d="M3.87002 0.726224C3.55185 0.779648 3.18278 0.941516 2.92244 1.14186C2.64024 1.359 2.38324 1.69871 2.24595 2.03612C2.16115 2.2445 2.12694 2.38776 2.10105 2.64298C2.07028 2.9463 2.07028 18.0537 2.10105 18.357C2.12694 18.6122 2.16115 18.7555 2.24595 18.9639C2.52806 19.6571 3.15455 20.1555 3.8955 20.2761C4.18028 20.3224 16.8197 20.3224 17.1045 20.2761C17.8454 20.1555 18.4719 19.6571 18.754 18.9639C18.8388 18.7555 18.8731 18.6122 18.8989 18.357C18.9269 18.0818 18.9291 6.41403 18.9012 6.22159C18.8908 6.1496 18.8608 6.04565 18.8346 5.99059C18.7973 5.91224 18.2371 5.34028 16.2552 3.35679C14.851 1.95145 13.6908 0.806675 13.65 0.786263C13.4579 0.690083 13.6375 0.693401 8.7045 0.695396C4.84682 0.69695 4.01274 0.702263 3.87002 0.726224ZM4.02565 2.23533C3.9098 2.27665 3.78804 2.36702 3.71553 2.46551C3.58071 2.64865 3.59024 2.00244 3.59614 10.5425L3.6015 18.3225L3.64663 18.4201C3.70104 18.5378 3.82964 18.6709 3.95239 18.7364L4.0425 18.7845H10.5H16.9575L17.0476 18.7364C17.1704 18.6709 17.299 18.5378 17.3534 18.4201L17.3985 18.3225L17.4039 12.4742L17.4093 6.62588L15.1989 4.41544L12.9886 2.205L8.54704 2.20593C4.86339 2.20668 4.09187 2.2117 4.02565 2.23533ZM10.2585 4.9085C10.2007 4.92918 10.1299 4.96257 10.101 4.98269C10.0721 5.00281 9.38437 5.68306 8.57264 6.49438C6.91439 8.15182 6.98783 8.06516 6.97546 8.379C6.96561 8.62863 7.01809 8.76477 7.19065 8.93735C7.36447 9.11115 7.50031 9.16331 7.749 9.15172C8.04333 9.13801 8.0342 9.14496 8.94075 8.24403L9.744 7.44574V10.0305C9.744 11.668 9.7517 12.6559 9.76502 12.7261C9.8092 12.9591 9.97199 13.17 10.185 13.2702C10.2839 13.3167 10.3292 13.3245 10.5 13.3245C10.6708 13.3245 10.7161 13.3167 10.815 13.2702C11.028 13.17 11.1908 12.9591 11.235 12.7261C11.2483 12.6559 11.256 11.668 11.256 10.0305V7.44574L12.0592 8.24403C12.9658 9.14496 12.9567 9.13801 13.251 9.15172C13.4997 9.16331 13.6355 9.11115 13.8093 8.93735C13.9822 8.76444 14.0344 8.62882 14.0245 8.37745C14.0124 8.06591 14.0791 8.14458 12.411 6.47672C10.756 4.82206 10.8367 4.89071 10.5338 4.87803C10.4086 4.87278 10.3357 4.88086 10.2585 4.9085ZM7.5765 14.6376C7.364 14.6734 7.1485 14.8366 7.03901 15.0447C6.98844 15.1407 6.98277 15.1737 6.98264 15.372C6.98252 15.5654 6.98896 15.6054 7.035 15.6975C7.10656 15.8406 7.26299 15.9931 7.40804 16.0611L7.5285 16.1175H10.5H13.4715L13.5927 16.0607C13.7354 15.9939 13.8914 15.841 13.965 15.696C14.0111 15.605 14.0175 15.5658 14.0173 15.372C14.0172 15.1737 14.0116 15.1407 13.961 15.0447C13.8468 14.8278 13.6379 14.6745 13.4044 14.6362C13.2563 14.6119 7.72084 14.6133 7.5765 14.6376Z" fill="currentColor"/>
</svg>
