<svg width="21" height="21" viewBox="0 0 21 21" fill="none" xmlns="http://www.w3.org/2000/svg">
<path fill-rule="evenodd" clip-rule="evenodd" d="M11.7418 1.40757C11.5119 1.45538 11.6762 1.29721 6.88151 6.08761C4.36582 8.60103 2.27609 10.7 2.23766 10.752C2.1992 10.804 2.15235 10.8922 2.1335 10.9481C2.11466 11.004 1.93708 12.0234 1.73893 13.2133C1.38638 15.3303 1.3792 15.3797 1.40505 15.5057C1.47395 15.8412 1.74873 16.0938 2.07499 16.1213C2.16657 16.129 2.69495 16.0477 4.3365 15.7731C5.5146 15.5761 6.51 15.4057 6.54851 15.3944C6.58703 15.3831 6.6579 15.3505 6.70601 15.3218C6.75413 15.2932 8.86874 13.1925 11.4051 10.6536C15.473 6.58182 16.022 6.0248 16.0614 5.92971C16.1522 5.71049 16.1392 5.44734 16.0279 5.25C15.9946 5.19103 15.2947 4.47481 14.1665 3.34528C12.4806 1.65728 12.3493 1.53082 12.222 1.47214C12.0698 1.40198 11.8869 1.37739 11.7418 1.40757ZM7.71509 7.39725L3.53371 11.5815L3.29786 13.0058C3.16817 13.7891 3.06758 14.4356 3.07438 14.4424C3.08116 14.4492 3.73399 14.347 4.5251 14.2154L5.9635 13.976L10.1375 9.80202L14.3115 5.628L13.104 4.4205L11.8965 3.213L7.71509 7.39725ZM13.419 11.8751C12.4593 12.0386 11.6538 12.7026 11.3116 13.6123C11.0372 14.342 11.1105 15.2282 11.5015 15.9075C11.6596 16.1822 11.761 16.3 12.3517 16.8954L12.915 17.4632L12.8258 17.5487C12.6026 17.7624 12.2706 17.947 11.9385 18.0421L11.7705 18.0902L6.867 18.1013L1.9635 18.1125L1.84433 18.1684C1.52116 18.3199 1.34614 18.6484 1.40774 18.9881C1.43844 19.1574 1.49287 19.2609 1.61599 19.384C1.74065 19.5086 1.84563 19.5631 2.01814 19.5927C2.11386 19.6092 3.54182 19.6138 6.9825 19.6088C12.1882 19.6012 11.8826 19.6075 12.3068 19.4986C12.8414 19.3614 13.4111 19.0585 13.7865 18.7119C14 18.5147 13.9576 18.5155 14.1722 18.7051C14.6852 19.1584 15.2559 19.4315 15.9705 19.5659C16.1931 19.6078 18.7614 19.6315 18.9784 19.5937C19.1546 19.563 19.2589 19.5091 19.384 19.384C19.5071 19.2609 19.5616 19.1574 19.5923 18.9881C19.6539 18.6484 19.4788 18.3199 19.1557 18.1684L19.0365 18.1125L17.619 18.101C16.2535 18.0899 16.1956 18.0878 16.0403 18.0445C15.6951 17.9482 15.4183 17.7996 15.1611 17.5725L15.049 17.4736L15.6147 16.9004C16.2286 16.2785 16.3764 16.0948 16.5492 15.7395C16.7465 15.3337 16.8316 14.9213 16.8138 14.4585C16.7931 13.9228 16.6587 13.5016 16.3679 13.062C15.9379 12.4118 15.2668 11.9831 14.4965 11.8668C14.2948 11.8364 13.6159 11.8416 13.419 11.8751ZM13.67 13.3558C12.8195 13.4918 12.3698 14.4862 12.8334 15.2055C12.887 15.2887 13.1228 15.5444 13.4479 15.8717L13.9755 16.4029L14.5437 15.8297C15.1516 15.2163 15.2062 15.1452 15.2757 14.8755C15.3174 14.714 15.3187 14.4099 15.2784 14.2555C15.1694 13.8367 14.8093 13.4747 14.4054 13.3778C14.2768 13.3469 13.8124 13.333 13.67 13.3558Z" fill="currentColor"/>
</svg>
