<svg width="21" height="21" viewBox="0 0 21 21" fill="none" xmlns="http://www.w3.org/2000/svg">
<path fill-rule="evenodd" clip-rule="evenodd" d="M1.24469 0.725311C0.82345 0.838942 0.585226 1.31625 0.747598 1.72132C0.768283 1.7729 2.33308 3.98228 4.22495 6.63104L7.66468 11.447L7.6701 15.5987L7.6755 19.7505L7.7297 19.8661C7.79085 19.9964 7.94709 20.1637 8.06127 20.221C8.25461 20.3181 8.50762 20.3284 8.69784 20.2469C8.83069 20.1899 13.0579 17.3664 13.1393 17.2802C13.176 17.2413 13.2327 17.1575 13.2653 17.094L13.3245 16.9785L13.33 14.2124L13.3356 11.4463L16.7765 6.62896C18.8712 3.69633 20.2329 1.77149 20.2569 1.70906C20.32 1.54565 20.3117 1.30319 20.2377 1.14451C20.1612 0.980503 20.0184 0.837031 19.8578 0.762817L19.7295 0.703513L10.542 0.699586C2.69123 0.696247 1.33852 0.699985 1.24469 0.725311ZM2.93256 2.23099C2.94141 2.24527 4.32965 4.19044 6.01757 6.55359C7.70549 8.91674 9.09978 10.8825 9.11601 10.9219C9.14079 10.9821 9.14718 11.5647 9.156 14.5688L9.1665 18.1441L10.5049 17.2517L11.8434 16.3593L11.8489 13.6764C11.8545 10.9985 11.8546 10.9933 11.8987 10.899C11.923 10.847 13.3028 8.90034 14.965 6.57301C16.6272 4.24569 18.0089 2.31081 18.0355 2.27326L18.0839 2.20501H10.5002C4.48232 2.20501 2.91984 2.21037 2.93256 2.23099Z" fill="currentColor"/>
</svg>
