<svg width="21" height="21" viewBox="0 0 21 21" fill="none" xmlns="http://www.w3.org/2000/svg">
<path fill-rule="evenodd" clip-rule="evenodd" d="M5.48667 1.40815C5.25283 1.4543 5.05879 1.6045 4.95153 1.82243C4.88983 1.94776 4.8825 1.98166 4.8825 2.14201C4.8825 2.48282 4.68136 2.25812 7.55389 5.12607C10.4058 7.97348 10.1654 7.75867 10.5 7.75867C10.8346 7.75867 10.5942 7.97348 13.4461 5.12607C16.3189 2.25791 16.1179 2.48238 16.117 2.14245C16.1167 1.99379 16.1072 1.94335 16.0612 1.84434C15.9526 1.61073 15.7534 1.45342 15.5099 1.40884C15.3593 1.38127 5.62626 1.38059 5.48667 1.40815ZM8.97227 4.42574L10.5 5.95347L12.0277 4.42574L13.5555 2.89801H10.5H7.44454L8.97227 4.42574ZM1.9635 9.77303C1.81539 9.81033 1.73061 9.85941 1.61572 9.97428C1.49287 10.0971 1.43844 10.2007 1.40773 10.3699C1.38008 10.5225 1.40635 10.7112 1.47359 10.843C1.528 10.9497 1.69281 11.1143 1.79999 11.1689C1.96026 11.2507 2.1004 11.2586 3.276 11.2519L4.3995 11.2455L4.536 11.1802C4.70257 11.1006 4.83796 10.9688 4.91137 10.815C4.9589 10.7154 4.9665 10.672 4.9665 10.5C4.9665 10.328 4.9589 10.2846 4.91137 10.185C4.83796 10.0312 4.70257 9.89945 4.536 9.81978L4.3995 9.75451L3.234 9.75054C2.35538 9.74756 2.04265 9.75311 1.9635 9.77303ZM6.86977 9.76665C6.65838 9.80819 6.44322 9.97379 6.34632 10.1695C6.20455 10.4559 6.26249 10.7954 6.49255 11.0262C6.60618 11.1402 6.72781 11.2046 6.88634 11.2347C7.03493 11.2629 9.09174 11.2631 9.24012 11.235C9.46617 11.1921 9.6709 11.0381 9.78213 10.8273C9.83293 10.7311 9.8385 10.6987 9.8385 10.5C9.8385 10.3009 9.83298 10.2691 9.78174 10.1719C9.66943 9.95901 9.469 9.80844 9.24012 9.76503C9.10455 9.73933 7.00152 9.74076 6.86977 9.76665ZM11.7431 9.76592C11.5311 9.80882 11.3262 9.96737 11.2183 10.1719C11.167 10.2691 11.1615 10.3009 11.1615 10.5C11.1615 10.6991 11.167 10.731 11.2183 10.8281C11.3321 11.0439 11.5326 11.1928 11.7678 11.2363C11.8427 11.2501 12.2963 11.2556 13.0145 11.2514C14.2691 11.244 14.2218 11.2491 14.4276 11.0981C14.5382 11.0168 14.6579 10.8515 14.7002 10.7213C14.715 10.6756 14.7272 10.576 14.7272 10.5C14.7272 10.424 14.715 10.3244 14.7002 10.2787C14.6579 10.1485 14.5382 9.98318 14.4276 9.90193C14.2208 9.75019 14.2731 9.75565 12.9885 9.75143C12.3532 9.74933 11.7928 9.75586 11.7431 9.76592ZM16.6151 9.76642C16.4011 9.80857 16.1866 9.97904 16.0885 10.185C16.0411 10.2845 16.0335 10.3282 16.0335 10.5C16.0335 10.672 16.0411 10.7154 16.0886 10.815C16.162 10.9688 16.2974 11.1006 16.464 11.1802L16.6005 11.2455L17.724 11.2519C18.8996 11.2586 19.0397 11.2507 19.2 11.1689C19.316 11.1098 19.4825 10.9379 19.5318 10.8262C19.5986 10.6753 19.6193 10.5192 19.5923 10.3703C19.5616 10.2006 19.5072 10.0972 19.384 9.974C19.2672 9.85722 19.1641 9.80042 19.0092 9.7676C18.8769 9.73956 16.7569 9.73851 16.6151 9.76642ZM10.296 13.2592C10.2473 13.2751 10.167 13.3122 10.1175 13.3417C10.068 13.3711 8.89257 14.5322 7.50544 15.9219C4.66992 18.7625 4.88529 18.5213 4.88346 18.8585C4.8826 19.0194 4.88945 19.0515 4.95165 19.1779C5.03433 19.3458 5.18576 19.488 5.355 19.5567L5.4705 19.6035L10.416 19.6095C13.963 19.6138 15.4001 19.6089 15.498 19.5922C15.7506 19.5492 15.9501 19.3945 16.0612 19.1557C16.1076 19.0559 16.1165 19.0075 16.1161 18.858C16.1151 18.5217 16.3316 18.764 13.4841 15.9119C10.6589 13.0822 10.8462 13.2521 10.5361 13.2375C10.4447 13.2331 10.3493 13.2418 10.296 13.2592ZM8.967 16.5795L7.4446 18.102H10.5H13.5554L12.033 16.5795C11.1957 15.7421 10.5058 15.057 10.5 15.057C10.4942 15.057 9.80431 15.7421 8.967 16.5795Z" fill="currentColor"/>
</svg>
