<svg width="21" height="21" viewBox="0 0 21 21" fill="none" xmlns="http://www.w3.org/2000/svg">
<path fill-rule="evenodd" clip-rule="evenodd" d="M10.332 1.41515C10.1776 1.44938 10.0933 1.49676 9.97372 1.61629C9.74354 1.84649 9.73978 1.87389 9.74788 3.26552L9.7545 4.39952L9.81977 4.53602C9.89944 4.70259 10.0312 4.83798 10.185 4.9114C10.2846 4.95892 10.328 4.96652 10.5 4.96652C10.672 4.96652 10.7154 4.95892 10.815 4.9114C10.9688 4.83798 11.1006 4.70259 11.1802 4.53602L11.2455 4.39952L11.2519 3.27602C11.2586 2.10042 11.2507 1.96029 11.1689 1.80002C11.1144 1.693 10.9498 1.52807 10.8435 1.47384C10.7661 1.43436 10.5532 1.38388 10.4804 1.38779C10.4623 1.38875 10.3955 1.40106 10.332 1.41515ZM1.95151 4.89941C1.75062 4.95636 1.56412 5.10752 1.47206 5.28797C1.4491 5.33299 1.42 5.43029 1.40742 5.50416C1.39121 5.59925 1.38627 7.08425 1.39051 10.584L1.3965 15.5295L1.44335 15.645C1.512 15.8143 1.65421 15.9657 1.82215 16.0484C1.94777 16.1102 1.98158 16.1175 2.142 16.1175C2.48281 16.1175 2.25811 16.3187 5.12606 13.4461C7.97341 10.5943 7.75652 10.837 7.75811 10.5C7.75967 10.1665 7.97433 10.4067 5.12606 7.55391C2.31871 4.74207 2.49352 4.90136 2.19332 4.88172C2.10737 4.8761 2.0081 4.88336 1.95151 4.89941ZM18.6675 4.89941C18.6147 4.91438 18.5297 4.95151 18.4785 4.98194C18.4253 5.01354 17.3052 6.11951 15.8634 7.56389C13.0278 10.4046 13.2413 10.1655 13.2413 10.5C13.2413 10.8346 13.0265 10.5942 15.8739 13.4461C18.7419 16.3187 18.5172 16.1175 18.858 16.1175C19.0184 16.1175 19.0522 16.1102 19.1779 16.0484C19.3458 15.9657 19.488 15.8143 19.5566 15.645L19.6035 15.5295L19.6095 10.584C19.6138 7.03704 19.6089 5.59995 19.5922 5.50206C19.5495 5.25145 19.3934 5.04853 19.1618 4.9425C19.0242 4.87948 18.8051 4.86039 18.6675 4.89941ZM10.3695 6.27942C10.2281 6.30355 10.0874 6.37938 9.97378 6.49257C9.85977 6.6062 9.79539 6.72784 9.76531 6.88636C9.73713 7.03496 9.73688 9.09176 9.76502 9.24015C9.80843 9.46903 9.959 9.66945 10.1719 9.78176C10.269 9.833 10.3009 9.83852 10.5 9.83852C10.6987 9.83852 10.7311 9.83296 10.8273 9.78216C11.041 9.66939 11.1933 9.46462 11.2363 9.23221C11.2501 9.15735 11.2556 8.70377 11.2514 7.98552C11.2454 6.97574 11.2409 6.84686 11.2085 6.76503C11.0736 6.42428 10.7199 6.21959 10.3695 6.27942ZM2.898 10.5V13.5555L4.42573 12.0278L5.95346 10.5L4.42573 8.97229L2.898 7.44456V10.5ZM16.569 8.97754L15.0466 10.5001L16.5743 12.0278L18.102 13.5555V10.5053C18.102 8.82762 18.0996 7.45502 18.0967 7.45502C18.0938 7.45502 17.4063 8.14015 16.569 8.97754ZM10.29 11.1695C10.0172 11.2589 9.8154 11.4883 9.76372 11.7678C9.74988 11.8427 9.74438 12.2963 9.74862 13.0145C9.75599 14.2691 9.75087 14.2218 9.90192 14.4276C9.98317 14.5383 10.1485 14.6579 10.2787 14.7002C10.3855 14.7349 10.6145 14.7349 10.7213 14.7002C10.8515 14.6579 11.0168 14.5383 11.0981 14.4276C11.2491 14.2218 11.244 14.2691 11.2514 13.0145C11.2556 12.2963 11.2501 11.8427 11.2363 11.7678C11.1932 11.5347 11.0394 11.3284 10.8273 11.2193C10.7397 11.1742 10.6866 11.1632 10.5315 11.1583C10.4275 11.155 10.3189 11.16 10.29 11.1695ZM10.2189 16.0738C9.98038 16.1738 9.81282 16.3799 9.76502 16.6319C9.73495 16.7905 9.7372 18.8658 9.76758 19.0092C9.8004 19.1641 9.85721 19.2673 9.97399 19.384C10.0971 19.5072 10.2006 19.5616 10.3699 19.5923C10.5225 19.6199 10.7112 19.5937 10.843 19.5264C10.9497 19.472 11.1142 19.3072 11.1689 19.2C11.2507 19.0398 11.2586 18.8996 11.2519 17.724L11.2455 16.6005L11.1802 16.464C11.1005 16.2972 10.9686 16.1619 10.815 16.089C10.6452 16.0084 10.3903 16.0019 10.2189 16.0738Z" fill="currentColor"/>
</svg>
