<svg width="21" height="21" viewBox="0 0 21 21" fill="none" xmlns="http://www.w3.org/2000/svg">
<path fill-rule="evenodd" clip-rule="evenodd" d="M8.08501 1.40032C7.90219 1.41924 7.67188 1.47731 7.49105 1.55007C7.06542 1.72135 7.16154 1.6329 4.39697 4.39721C1.61987 7.17406 1.71023 7.07561 1.54393 7.50519C1.385 7.91576 1.39874 7.44628 1.39095 12.7365C1.38593 16.1494 1.39059 17.5408 1.40754 17.6902C1.5222 18.701 2.28439 19.4685 3.29647 19.5922C3.54387 19.6225 17.4562 19.6225 17.7036 19.5922C18.7089 19.4693 19.4693 18.7089 19.5923 17.7035C19.6225 17.4561 19.6225 3.54385 19.5923 3.29645C19.4693 2.2911 18.7089 1.53067 17.7036 1.40776C17.5385 1.38757 8.27739 1.38041 8.08501 1.40032ZM9.15601 4.578V6.258H11.886H14.616V4.578V2.898H11.886H9.15601V4.578ZM16.1235 4.75125L16.1175 6.6045L16.0582 6.77229C15.9034 7.21037 15.5571 7.55759 15.1305 7.70244L14.9625 7.7595L11.97 7.76538C8.60816 7.77197 8.79525 7.77985 8.46301 7.61764C8.31778 7.54673 8.24917 7.49507 8.09484 7.34049C7.87822 7.12352 7.77289 6.94604 7.70642 6.68621C7.66696 6.53188 7.66501 6.44784 7.66501 4.89493V3.26556L5.33624 5.59427C3.65344 7.27703 2.99375 7.9498 2.95799 8.01973L2.90851 8.1165L2.90307 12.8455L2.89765 17.5745L2.94165 17.692C3.0003 17.8488 3.151 17.9996 3.30749 18.0582C3.41789 18.0995 3.46602 18.102 4.14831 18.102H4.87201V15.6231C4.87201 12.8431 4.86563 12.9679 5.02449 12.642C5.09537 12.4966 5.14678 12.4283 5.30152 12.2738C5.5185 12.0572 5.69597 11.9519 5.9558 11.8854C6.11441 11.8448 6.20721 11.844 10.5 11.844C14.7928 11.844 14.8856 11.8448 15.0442 11.8854C15.3041 11.9519 15.4815 12.0572 15.6985 12.2738C15.8532 12.4283 15.9047 12.4966 15.9755 12.642C16.1344 12.9679 16.128 12.8431 16.128 15.6231V18.102H16.8517C17.534 18.102 17.5821 18.0995 17.6925 18.0582C17.8488 17.9997 17.9997 17.8488 18.0582 17.6925L18.102 17.5754V10.5V3.42457L18.0582 3.30748C17.9997 3.15122 17.8488 3.00027 17.6925 2.94181C17.5822 2.90052 17.534 2.898 16.8525 2.898H16.1295L16.1235 4.75125ZM6.38401 15.7185V18.102H10.5H14.616V15.7185V13.335H10.5H6.38401V15.7185Z" fill="currentColor"/>
</svg>
