<svg width="21" height="21" viewBox="0 0 21 21" fill="none" xmlns="http://www.w3.org/2000/svg">
<path fill-rule="evenodd" clip-rule="evenodd" d="M2.60984 2.10145C2.36741 2.1249 2.14481 2.19 1.9005 2.30893C1.27531 2.61326 0.843275 3.1903 0.724247 3.87996C0.696506 4.04076 0.693251 4.69012 0.698039 9.11402L0.703499 14.1645L0.759359 14.2837C0.870995 14.5218 1.07329 14.6792 1.31859 14.7187C1.56343 14.7581 1.78979 14.6893 1.96037 14.5235C2.08767 14.3998 2.15685 14.2717 2.18263 14.112C2.19759 14.0195 2.20473 12.3874 2.20483 9.04657C2.205 4.12058 2.20502 4.11753 2.24828 4.00193C2.30091 3.86127 2.441 3.71078 2.57838 3.6473L2.6775 3.60152L9.1245 3.59102L15.5715 3.58052L15.6871 3.52371C15.9803 3.37976 16.1528 3.07786 16.1202 2.76597C16.0846 2.42554 15.8316 2.15561 15.4974 2.10138C15.335 2.07505 2.88206 2.07511 2.60984 2.10145ZM6.03954 5.58877C5.24685 5.69135 4.55156 6.25985 4.29355 7.01639C4.17348 7.36848 4.179 7.11646 4.179 12.243C4.179 17.4582 4.17085 17.1378 4.31306 17.5164C4.40929 17.7726 4.55918 18.0139 4.746 18.2134C5.12908 18.6224 5.58342 18.848 6.12805 18.8997C6.42707 18.9281 18.0717 18.928 18.3633 18.8996C19.3428 18.8044 20.1245 18.0688 20.2763 17.0993C20.3045 16.9192 20.3077 16.3217 20.3021 12.138L20.2958 7.38152L20.2504 7.21352C20.1891 6.98666 20.0762 6.72867 19.958 6.54576C19.751 6.22517 19.3714 5.90131 19.0365 5.75954C18.8114 5.66424 18.7747 5.65141 18.6165 5.61267C18.4795 5.57913 18.0504 5.57644 12.327 5.57334C8.82159 5.57145 6.12225 5.57808 6.03954 5.58877ZM6.08139 7.12904C5.93565 7.18895 5.82202 7.29273 5.75186 7.42999L5.7015 7.52852L5.69598 9.93254L5.69047 12.3366L6.92448 11.1071C8.0774 9.95841 8.16747 9.87365 8.295 9.81727C8.41075 9.76607 8.45863 9.75696 8.61 9.75721C8.95123 9.75784 8.55592 9.39221 12.8008 13.6333L16.5821 17.4112L17.4523 17.4049C18.2831 17.3988 18.3268 17.3965 18.4172 17.3547C18.5551 17.2909 18.6999 17.1366 18.7516 16.9985C18.795 16.8825 18.795 16.8816 18.795 12.243V7.60359L18.75 7.48331C18.6901 7.32329 18.5487 7.18189 18.3887 7.12202L18.2684 7.07702L12.237 7.07752L6.2055 7.07801L6.08139 7.12904ZM14.7449 8.02496C13.8241 8.12126 13.0145 8.75759 12.6843 9.6445C12.5779 9.93029 12.5485 10.1152 12.5485 10.5C12.5485 10.8111 12.5558 10.8965 12.5958 11.0565C12.7817 11.8002 13.2543 12.3997 13.9184 12.7345C14.5274 13.0415 15.3189 13.0723 15.9539 12.8139C17.2963 12.2676 17.899 10.7024 17.2649 9.4089C17.0935 9.05917 16.8413 8.74956 16.5474 8.52812C16.1478 8.227 15.7575 8.07269 15.27 8.02313C15.0284 7.99856 14.9962 7.99869 14.7449 8.02496ZM14.7619 9.55136C14.5028 9.61901 14.2498 9.83577 14.1267 10.0956C14.0623 10.2317 14.0595 10.2482 14.0595 10.5C14.0595 10.7515 14.0623 10.7684 14.1264 10.9037C14.3337 11.3414 14.7963 11.5652 15.2652 11.4547C15.4461 11.412 15.5759 11.3378 15.7181 11.1959C16.1062 10.8084 16.1062 10.1916 15.7181 9.80418C15.4584 9.54488 15.1247 9.45663 14.7619 9.55136ZM7.14521 13.0253L5.691 14.4796V15.6995V16.9193L5.75631 17.05C5.801 17.1394 5.85461 17.2068 5.92612 17.2633C6.12511 17.4206 5.78401 17.4097 10.3376 17.4038L14.4271 17.3985L11.5132 14.4847L8.59941 11.571L7.14521 13.0253Z" fill="currentColor"/>
</svg>
