<svg width="21" height="21" viewBox="0 0 21 21" fill="none" xmlns="http://www.w3.org/2000/svg">
<path fill-rule="evenodd" clip-rule="evenodd" d="M1.30479 2.10062C0.79457 2.2064 0.533582 2.79902 0.806855 3.23124C0.979559 3.50441 6.6362 11.5572 6.70628 11.6297C6.75426 11.6793 6.84549 11.7455 6.90901 11.7767C7.01133 11.827 7.0485 11.8335 7.23451 11.8332C7.41054 11.8331 7.4598 11.8253 7.53901 11.7855C7.59099 11.7593 8.47456 11.1476 9.50251 10.426L11.3715 9.11414L11.4171 9.17181C11.5732 9.36914 16.944 17.0635 16.9291 17.0685C16.9191 17.0718 16.1417 16.9315 15.2017 16.7567C13.2766 16.3986 13.3185 16.4032 13.0849 16.5277C12.8588 16.6482 12.7212 16.8421 12.6886 17.0865C12.6388 17.4599 12.8515 17.7964 13.209 17.9096C13.2494 17.9224 14.4827 18.156 15.9495 18.4287C18.0203 18.8137 18.6394 18.9219 18.7191 18.9129C18.9527 18.8865 19.2148 18.6994 19.3119 18.4898C19.3854 18.3313 20.3163 12.7691 20.2987 12.5939C20.2737 12.3456 20.0998 12.1022 19.8706 11.9948C19.7668 11.9461 19.7235 11.9385 19.551 11.9385C19.3767 11.9385 19.3369 11.9457 19.236 11.9952C19.0192 12.1018 18.8726 12.2886 18.8192 12.5265C18.8062 12.5842 18.6627 13.43 18.5003 14.406C18.3378 15.382 18.2025 16.1893 18.1995 16.2C18.1965 16.2107 16.8385 14.2831 15.1818 11.9164C13.525 9.54968 12.1302 7.57358 12.0823 7.52509C11.8702 7.31075 11.517 7.24844 11.2563 7.37939C11.2008 7.40724 10.3183 8.01683 9.29518 8.73402C8.27202 9.45119 7.42761 10.0378 7.4187 10.0375C7.4098 10.0372 6.22126 8.34863 4.77751 6.28511C3.33376 4.22158 2.11194 2.47879 2.06234 2.41226C2.01274 2.34572 1.9325 2.26209 1.88401 2.22644C1.73669 2.1181 1.48461 2.06335 1.30479 2.10062Z" fill="currentColor"/>
</svg>
