<svg width="21" height="21" viewBox="0 0 21 21" fill="none" xmlns="http://www.w3.org/2000/svg">
<path fill-rule="evenodd" clip-rule="evenodd" d="M16.548 2.4571C15.445 2.66388 14.2433 2.88915 13.8775 2.95767C13.1449 3.09497 13.046 3.12733 12.8983 3.27811C12.7294 3.45054 12.6563 3.67188 12.6886 3.91351C12.7212 4.15789 12.8587 4.35176 13.0849 4.47232C13.3185 4.59681 13.2765 4.60136 15.2016 4.24329C16.1417 4.06847 16.9191 3.92819 16.9293 3.93157C16.9443 3.93659 11.5705 11.6347 11.4171 11.8279L11.3715 11.8854L9.471 10.5519C7.96343 9.49405 7.54698 9.21137 7.45679 9.18465C7.20376 9.10975 6.88985 9.18214 6.71664 9.35536C6.65872 9.41326 1.15664 17.2445 0.836934 17.724C0.520275 18.199 0.772213 18.798 1.33218 18.9015C1.58319 18.9479 1.86694 18.8369 2.03131 18.6279C2.07486 18.5726 3.3012 16.8253 4.7565 14.7452C6.2118 12.665 7.40979 10.9628 7.41869 10.9625C7.4276 10.9622 8.27201 11.5488 9.29517 12.266C10.3183 12.9832 11.2008 13.5927 11.2563 13.6206C11.5169 13.7515 11.87 13.6893 12.0822 13.475C12.1302 13.4266 13.525 11.4505 15.1817 9.08365C16.8385 6.71682 18.1964 4.78915 18.1994 4.79992C18.2024 4.81067 18.3378 5.61801 18.5002 6.59399C18.6627 7.56996 18.8062 8.41574 18.8192 8.47349C18.8726 8.71142 19.0192 8.89821 19.236 9.00475C19.3369 9.05431 19.3767 9.06149 19.551 9.06149C19.7235 9.06149 19.7668 9.05387 19.8706 9.00519C20.0998 8.89775 20.2737 8.65436 20.2987 8.40604C20.3163 8.23056 19.3857 2.6693 19.3121 2.5105C19.2068 2.28324 18.9365 2.10152 18.6836 2.08804C18.5827 2.08267 18.1028 2.16559 16.548 2.4571Z" fill="currentColor"/>
</svg>
