<svg width="21" height="21" viewBox="0 0 21 21" fill="none" xmlns="http://www.w3.org/2000/svg">
<path fill-rule="evenodd" clip-rule="evenodd" d="M9.84901 0.716405C7.95233 0.841838 6.13209 1.51785 4.60951 2.66227C3.89055 3.20264 3.20263 3.89056 2.66226 4.60951C1.74624 5.82823 1.12126 7.25673 0.85229 8.74651C0.404885 11.2247 0.924803 13.7848 2.3002 15.876C3.03566 16.9942 4.00578 17.9644 5.12401 18.6998C6.03076 19.2962 7.10993 19.7671 8.15279 20.0215C10.8088 20.6695 13.6101 20.1901 15.876 18.6998C16.9925 17.9655 17.9655 16.9925 18.6998 15.876C19.413 14.7916 19.9203 13.522 20.1472 12.2535C20.5159 10.193 20.2328 8.1078 19.332 6.24751C18.8302 5.21129 18.2385 4.37826 17.4302 3.56986C16.3014 2.44109 14.9823 1.63908 13.4457 1.14724C12.3256 0.788708 11.0557 0.636605 9.84901 0.716405ZM9.91201 2.21776C8.24519 2.36106 6.77702 2.91149 5.50728 3.86918C4.74808 4.44178 3.98919 5.26286 3.49346 6.04801C2.81228 7.12689 2.40631 8.28554 2.2426 9.61801C2.20629 9.9135 2.20629 11.0865 2.2426 11.382C2.45768 13.1327 3.11223 14.6397 4.21044 15.9127C4.44079 16.1798 4.93568 16.6681 5.18701 16.8764C6.44486 17.9188 7.87284 18.5316 9.54451 18.7462C9.96259 18.7999 11.0374 18.7999 11.4555 18.7462C13.1265 18.5317 14.5665 17.9135 15.813 16.8757C16.0743 16.6581 16.544 16.1947 16.7823 15.9194C17.8742 14.658 18.525 13.1787 18.7462 11.4555C18.7999 11.0374 18.7999 9.9626 18.7462 9.54451C18.5317 7.87352 17.9135 6.43349 16.8757 5.18701C16.6581 4.92569 16.1947 4.45602 15.9194 4.21771C14.6679 3.13447 13.1836 2.47782 11.487 2.2568C11.2372 2.22427 10.1499 2.1973 9.91201 2.21776ZM10.0065 5.26055C9.04922 5.41291 8.21531 5.98976 7.73082 6.83473C7.48659 7.26066 7.36116 7.68813 7.31653 8.24654C7.2974 8.48618 7.33447 8.66667 7.43296 8.81317C7.59354 9.05206 7.81373 9.16471 8.09551 9.15215C8.389 9.13904 8.61484 8.98908 8.73916 8.72473C8.78857 8.61965 8.80249 8.55216 8.82053 8.33004C8.85967 7.8479 8.99242 7.55111 9.31134 7.2326C9.42428 7.11983 9.56267 7.00645 9.64951 6.95557C10.1623 6.65512 10.8364 6.65504 11.3505 6.9553C11.4416 7.00855 11.5736 7.11781 11.6977 7.24285C11.866 7.41244 11.9136 7.47622 11.9971 7.64401C12.1404 7.93211 12.1689 8.05939 12.1689 8.41051C12.1689 8.76146 12.1402 8.88971 11.9979 9.1743C11.8259 9.51834 11.4747 9.84004 11.1225 9.97627C10.9431 10.0456 10.7923 10.0756 10.5095 10.0982C10.2541 10.1186 10.1141 10.1763 9.97333 10.3191C9.85955 10.4344 9.7939 10.5576 9.76503 10.7099C9.73561 10.865 9.73773 12.2533 9.76759 12.3942C9.80041 12.5491 9.85722 12.6522 9.974 12.769C10.1546 12.9496 10.3829 13.0221 10.6301 12.9773C10.7994 12.9466 10.9029 12.8921 11.026 12.769C11.2207 12.5743 11.256 12.4407 11.256 11.898V11.513L11.4393 11.4558C12.4613 11.1372 13.2611 10.327 13.5553 9.31234C13.6489 8.98963 13.6783 8.77371 13.6783 8.41051C13.6783 8.04732 13.6489 7.83139 13.5553 7.50869C13.2128 6.32767 12.2022 5.44731 10.9725 5.25875C10.7416 5.22334 10.2344 5.22429 10.0065 5.26055ZM10.3425 13.589C10.0559 13.6307 9.79766 13.7871 9.61547 14.0293C9.45448 14.2433 9.41842 14.3645 9.41899 14.6895C9.41943 14.9364 9.42464 14.9743 9.47355 15.0854C9.66156 15.5126 10.0541 15.7772 10.5 15.7772C11.0097 15.7772 11.4618 15.4187 11.5713 14.9277C11.6122 14.7444 11.5895 14.4247 11.5247 14.2726C11.3823 13.9383 11.0706 13.6699 10.7527 13.6081C10.585 13.5755 10.4716 13.5702 10.3425 13.589Z" fill="currentColor"/>
</svg>
