<svg width="21" height="21" viewBox="0 0 21 21" fill="none" xmlns="http://www.w3.org/2000/svg">
<path fill-rule="evenodd" clip-rule="evenodd" d="M10.3215 1.41414C10.1913 1.4477 10.1369 1.47601 10.0175 1.57252C9.7841 1.76108 2.05312 8.86372 1.92905 9.00356C1.64618 9.32236 1.45361 9.7545 1.40722 10.1745C1.37812 10.4381 1.37862 17.4652 1.40777 17.7035C1.53068 18.7089 2.29111 19.4693 3.29647 19.5922C3.41596 19.6069 5.78203 19.614 10.5 19.614C15.218 19.614 17.5841 19.6069 17.7036 19.5922C18.7089 19.4693 19.4693 18.7089 19.5923 17.7035C19.6219 17.4612 19.6219 10.436 19.5923 10.1745C19.5529 9.82699 19.4097 9.45468 19.2045 9.1665C19.1551 9.0972 19.0263 8.95381 18.9181 8.84785C18.6066 8.54259 11.0082 1.58363 10.9188 1.52164C10.756 1.40885 10.5123 1.365 10.3215 1.41414ZM6.75733 6.59406C3.57344 9.51342 3.01658 10.0324 2.96683 10.1268L2.90851 10.2375L2.90303 13.9058L2.89755 17.5742L2.94159 17.6919C3.00031 17.8488 3.15094 17.9996 3.30749 18.0582L3.42459 18.102H10.5H17.5754L17.6925 18.0582C17.849 17.9996 17.9997 17.8488 18.0584 17.6921L18.1024 17.5745L18.0969 13.9165L18.0915 10.2585L18.0365 10.1412C17.9857 10.0329 17.6925 9.75889 14.2496 6.60265C12.1972 4.72101 10.5115 3.17936 10.5037 3.17673C10.4959 3.17411 8.81004 4.71192 6.75733 6.59406Z" fill="currentColor"/>
</svg>
