<svg width="21" height="21" viewBox="0 0 21 21" fill="none" xmlns="http://www.w3.org/2000/svg">
<path fill-rule="evenodd" clip-rule="evenodd" d="M3.08699 7.69501C2.46606 7.80637 1.96902 8.06077 1.53812 8.48774C0.931154 9.08918 0.627368 9.92254 0.710318 10.7587C0.835856 12.0243 1.73037 13.0197 2.98199 13.2864C3.23378 13.3401 3.84385 13.34 4.09499 13.2863C4.80798 13.1338 5.40592 12.7486 5.83171 12.1677C6.5517 11.1854 6.5517 9.81456 5.83171 8.83228C5.41119 8.25859 4.81636 7.87204 4.11599 7.71737C3.90188 7.67008 3.29905 7.65698 3.08699 7.69501ZM10.0245 7.69799C9.26828 7.82502 8.56673 8.28301 8.13258 8.93304C7.66518 9.63291 7.53656 10.5526 7.79372 11.3558C8.12115 12.3784 8.99425 13.1333 10.0452 13.3025C11.5898 13.551 13.05 12.4969 13.3035 10.9504C13.3429 10.7097 13.3429 10.2903 13.3035 10.0496C13.1062 8.84575 12.1538 7.89081 10.9568 7.69669C10.719 7.65811 10.2581 7.65876 10.0245 7.69799ZM17.115 7.67777C16.6023 7.7713 16.3499 7.85879 16.0125 8.05982C15.5576 8.33085 15.1597 8.75994 14.9219 9.23605C14.4541 10.1724 14.551 11.3256 15.1683 12.1677C15.5941 12.7486 16.192 13.1338 16.905 13.2863C17.1561 13.34 17.7662 13.3401 18.018 13.2864C19.457 12.9798 20.4281 11.6772 20.2888 10.2406C20.1673 8.98756 19.2775 7.98956 18.039 7.71721C17.8864 7.68367 17.235 7.65587 17.115 7.67777ZM3.35999 9.17633C3.0528 9.21913 2.82783 9.33145 2.602 9.55477C2.33148 9.82229 2.20499 10.1234 2.20499 10.5C2.20499 10.8766 2.33148 11.1777 2.602 11.4452C2.87661 11.7168 3.15489 11.8293 3.54899 11.8281C3.81699 11.8272 4.03661 11.765 4.24363 11.6314C5.07697 11.0935 5.07697 9.90648 4.24363 9.36858C4.00476 9.2144 3.64637 9.13643 3.35999 9.17633ZM10.3093 9.17731C9.81365 9.23658 9.35625 9.64217 9.20732 10.1544C9.15832 10.323 9.15832 10.677 9.20732 10.8456C9.27966 11.0944 9.36456 11.2342 9.56518 11.4348C9.84985 11.7195 10.1091 11.8288 10.5 11.8288C10.8908 11.8288 11.1501 11.7195 11.4348 11.4348C11.7195 11.1501 11.8288 10.8909 11.8288 10.5C11.8288 10.2692 11.7909 10.1013 11.6927 9.89719C11.5982 9.70051 11.302 9.403 11.1078 9.3097C10.8516 9.1866 10.5919 9.14353 10.3093 9.17731ZM17.2824 9.1757C16.9845 9.21617 16.6662 9.38656 16.4644 9.61361C16.2599 9.8436 16.1287 10.1901 16.1287 10.5C16.1287 10.8099 16.2599 11.1564 16.4644 11.3864C16.6106 11.5508 16.8466 11.7042 17.058 11.772C17.273 11.841 17.5922 11.8498 17.808 11.7926C18.1314 11.7069 18.4722 11.4414 18.6343 11.1489C18.8475 10.7642 18.8475 10.2358 18.6343 9.85112C18.5302 9.66321 18.2803 9.4189 18.0915 9.32032C17.8523 9.19546 17.5434 9.14025 17.2824 9.1757Z" fill="currentColor"/>
</svg>
