<svg width="21" height="21" viewBox="0 0 21 21" fill="none" xmlns="http://www.w3.org/2000/svg">
<path fill-rule="evenodd" clip-rule="evenodd" d="M9.84901 0.716405C7.95233 0.841838 6.13209 1.51785 4.60951 2.66227C3.89055 3.20264 3.20263 3.89056 2.66226 4.60951C1.74624 5.82823 1.12126 7.25673 0.85229 8.74651C0.404885 11.2247 0.924803 13.7848 2.3002 15.876C3.03566 16.9942 4.00578 17.9644 5.12401 18.6998C6.03076 19.2962 7.10993 19.7671 8.15279 20.0215C10.8088 20.6695 13.6101 20.1901 15.876 18.6998C16.9925 17.9655 17.9655 16.9925 18.6998 15.876C19.413 14.7916 19.9203 13.522 20.1472 12.2535C20.5159 10.193 20.2328 8.1078 19.332 6.24751C18.8302 5.21129 18.2385 4.37826 17.4302 3.56986C16.3014 2.44109 14.9823 1.63908 13.4457 1.14724C12.3256 0.788708 11.0557 0.636605 9.84901 0.716405ZM9.91201 2.21776C8.24519 2.36106 6.77702 2.91149 5.50728 3.86918C4.74808 4.44178 3.98919 5.26286 3.49346 6.04801C2.81228 7.12689 2.40631 8.28554 2.2426 9.61801C2.20629 9.9135 2.20629 11.0865 2.2426 11.382C2.45768 13.1327 3.11223 14.6397 4.21044 15.9127C4.44079 16.1798 4.93568 16.6681 5.18701 16.8764C6.44486 17.9188 7.87284 18.5316 9.54451 18.7462C9.96259 18.7999 11.0374 18.7999 11.4555 18.7462C13.1265 18.5317 14.5665 17.9135 15.813 16.8757C16.0743 16.6581 16.544 16.1947 16.7823 15.9194C17.8742 14.658 18.525 13.1787 18.7462 11.4555C18.7999 11.0374 18.7999 9.9626 18.7462 9.54451C18.5317 7.87352 17.9135 6.43349 16.8757 5.18701C16.6581 4.92569 16.1947 4.45602 15.9194 4.21771C14.6679 3.13447 13.1836 2.47782 11.487 2.2568C11.2372 2.22427 10.1499 2.1973 9.91201 2.21776ZM10.416 5.22118C10.2565 5.24512 10.121 5.28172 10.0305 5.3253C9.79165 5.44027 9.58699 5.65684 9.47355 5.91464C9.42464 6.02577 9.41943 6.06359 9.41899 6.31051C9.41842 6.63557 9.45448 6.75674 9.61547 6.97075C9.98815 7.4662 10.665 7.56873 11.1525 7.20362C11.308 7.08713 11.4475 6.9087 11.5247 6.72738C11.5895 6.57532 11.6122 6.25566 11.5713 6.07229C11.4835 5.67854 11.1461 5.33729 10.7625 5.25417C10.6277 5.22496 10.4827 5.21116 10.416 5.22118ZM8.89573 9.08253C8.77202 9.11704 8.60043 9.23193 8.51922 9.33464C8.40261 9.4821 8.36855 9.58891 8.36853 9.80701C8.36851 10.0422 8.41084 10.1515 8.56662 10.3184C8.74934 10.5141 8.92131 10.5626 9.43426 10.5628L9.74401 10.563V12.243V13.923H9.04492C8.2601 13.923 8.17276 13.9343 7.99051 14.0595C7.8572 14.1511 7.7753 14.2548 7.71144 14.4129C7.64291 14.5826 7.65073 14.8235 7.73025 14.994C7.82941 15.2066 8.04063 15.3698 8.27388 15.414C8.42443 15.4425 12.5756 15.4425 12.7261 15.414C12.9591 15.3698 13.17 15.207 13.2702 14.994C13.3167 14.8951 13.3245 14.8498 13.3245 14.679C13.3245 14.5075 13.3168 14.4633 13.2697 14.364C13.2107 14.2397 13.1041 14.1193 12.9812 14.0384C12.8254 13.9358 12.7119 13.923 11.9557 13.923H11.2571L11.2513 11.7758L11.2455 9.62851L11.1867 9.50251C11.1102 9.3385 10.9674 9.19503 10.8068 9.12082L10.6785 9.06151L9.83851 9.05769C9.18339 9.05471 8.97589 9.06017 8.89573 9.08253Z" fill="currentColor"/>
</svg>
