<svg width="21" height="21" viewBox="0 0 21 21" fill="none" xmlns="http://www.w3.org/2000/svg">
<path fill-rule="evenodd" clip-rule="evenodd" d="M10.3095 0.720398C10.032 0.799085 9.82701 1.01746 9.76758 1.29779C9.75036 1.37904 9.744 3.61302 9.744 9.57148V17.7339L7.54425 15.5377C5.13935 13.1368 5.28337 13.267 5.0014 13.2376C4.76404 13.2128 4.55521 13.2953 4.37923 13.4834C4.23123 13.6416 4.19019 13.7483 4.18981 13.9755C4.18925 14.3224 3.92773 14.0323 7.15892 17.2691C8.73663 18.8496 10.064 20.1663 10.1085 20.1951C10.3374 20.3429 10.6626 20.3429 10.8915 20.1951C10.936 20.1663 12.2634 18.8496 13.8411 17.2691C17.0033 14.1013 16.7963 14.3265 16.8168 14.0324C16.8321 13.8123 16.7716 13.6447 16.617 13.4794C16.4449 13.2954 16.2341 13.2129 15.9986 13.2376C15.7166 13.267 15.8606 13.1368 13.4557 15.5377L11.256 17.7339L11.2557 9.56518C11.2553 0.741104 11.2622 1.26621 11.1449 1.06616C10.9824 0.788879 10.6107 0.635012 10.3095 0.720398Z" fill="currentColor"/>
</svg>
