<svg width="21" height="21" viewBox="0 0 21 21" fill="none" xmlns="http://www.w3.org/2000/svg">
<path fill-rule="evenodd" clip-rule="evenodd" d="M7.53341 0.715878C7.48992 0.726126 7.41432 0.754476 7.36541 0.778878C7.25823 0.832365 3.68565 4.38951 3.59197 4.53603C3.47342 4.72144 3.44915 4.97951 3.52951 5.19986C3.57281 5.31859 3.64858 5.3976 5.42556 7.17747C6.96763 8.72204 7.29578 9.04093 7.392 9.08847C7.49438 9.13904 7.53138 9.14553 7.7175 9.14553C7.89951 9.14553 7.94151 9.13854 8.0325 9.09303C8.17562 9.02146 8.32805 8.86503 8.39605 8.71999C8.44421 8.61721 8.4525 8.57179 8.4525 8.41053C8.4525 8.07474 8.50158 8.13654 7.19666 6.82963L6.0585 5.68973L8.7885 5.69647C11.5019 5.70315 11.5203 5.70348 11.8125 5.75042C13.1035 5.95781 14.2236 6.48042 15.183 7.32305C16.4081 8.39898 17.1667 9.85451 17.3699 11.5185C17.4061 11.8153 17.406 12.6636 17.3697 12.9675C17.0429 15.7043 15.1018 17.931 12.4635 18.5954C11.8443 18.7514 11.5565 18.7845 10.836 18.7831C10.3144 18.7821 10.1716 18.7749 9.93273 18.7377C9.12797 18.6124 8.33622 18.3491 7.69671 17.9943C5.79944 16.9417 4.54205 15.0469 4.32613 12.915C4.31384 12.7938 4.29614 12.5475 4.28677 12.3678C4.27207 12.0854 4.26264 12.0256 4.21716 11.9268C4.12073 11.7174 3.91379 11.5536 3.68796 11.5079C3.35236 11.44 3.0143 11.6071 2.856 11.9191C2.80457 12.0204 2.80352 12.032 2.80487 12.4845C2.80718 13.2719 2.92807 13.9775 3.20061 14.7945C3.89447 16.8746 5.39274 18.5682 7.3815 19.5206C8.21524 19.9199 9.1027 20.1679 10.059 20.2688C10.4457 20.3096 11.36 20.3036 11.739 20.2578C14.1346 19.968 16.1951 18.723 17.5225 16.7632C18.5123 15.3017 18.9852 13.6119 18.8985 11.8458C18.8682 11.2294 18.7994 10.7765 18.6476 10.1955C18.3618 9.10112 17.8612 8.10485 17.1439 7.20253C16.8594 6.84458 16.2416 6.2264 15.8869 5.94469C14.831 5.10593 13.5854 4.53792 12.2922 4.30547C11.6448 4.18911 11.7311 4.19207 8.77907 4.18447L6.03964 4.17739L7.19592 3.01796C8.10541 2.10599 8.36292 1.83612 8.40235 1.75353C8.44433 1.66565 8.4525 1.61602 8.4525 1.44903C8.4525 1.2775 8.44481 1.23334 8.39771 1.13403C8.24313 0.808215 7.88237 0.633663 7.53341 0.715878Z" fill="currentColor"/>
</svg>
