<svg width="21" height="21" viewBox="0 0 21 21" fill="none" xmlns="http://www.w3.org/2000/svg">
<path fill-rule="evenodd" clip-rule="evenodd" d="M15.8408 3.51523C15.6387 3.58075 15.4463 3.76466 15.372 3.96343C15.3118 4.1242 15.3124 4.33941 15.3733 4.50586C15.4168 4.62449 15.4748 4.68642 16.5715 5.78596C17.2054 6.42144 17.724 6.94826 17.724 6.95671C17.724 6.96513 15.2174 6.97204 12.1538 6.97204C6.09508 6.97208 6.36508 6.96718 5.76349 7.08781C3.67175 7.50724 1.91066 8.98713 1.12699 10.9839C0.954682 11.423 0.840631 11.8553 0.753313 12.4005C0.707323 12.6876 0.706021 12.7427 0.697915 14.7525C0.689263 16.902 0.690712 16.9443 0.778639 17.1177C0.836872 17.2326 1.00412 17.3885 1.13396 17.4489C1.29818 17.5253 1.53913 17.5351 1.70699 17.4721C1.87597 17.4086 2.05447 17.2397 2.13358 17.0684L2.1945 16.9365L2.20592 14.8365C2.21724 12.7587 2.21787 12.7337 2.26575 12.474C2.44425 11.5056 2.86923 10.6611 3.52523 9.97119C4.15544 9.30839 4.95167 8.84125 5.82983 8.61911C6.44496 8.4635 5.92614 8.47585 12.1483 8.46864L17.7341 8.46217L16.5974 9.60184C15.3757 10.8267 15.367 10.8369 15.3345 11.0826C15.3005 11.3398 15.3688 11.5485 15.5446 11.7246C15.6926 11.8727 15.8452 11.9364 16.0545 11.9375C16.2689 11.9386 16.3682 11.9077 16.5202 11.7925C16.5875 11.7415 17.4419 10.8983 18.4189 9.91865C20.4286 7.90362 20.2965 8.05853 20.2965 7.71707C20.2965 7.36919 20.4206 7.51365 18.3287 5.42658C16.276 3.3787 16.4204 3.50378 16.0965 3.49261C15.9964 3.48914 15.8931 3.4983 15.8408 3.51523Z" fill="currentColor"/>
</svg>
