<svg width="21" height="21" viewBox="0 0 21 21" fill="none" xmlns="http://www.w3.org/2000/svg">
<path fill-rule="evenodd" clip-rule="evenodd" d="M13.7618 4.20816C13.6412 4.24731 13.5498 4.30731 13.4485 4.41394C13.2815 4.58967 13.2141 4.77733 13.2375 5.00138C13.267 5.28334 13.1367 5.13933 15.5377 7.54422L17.7338 9.74398L9.56516 9.74431C2.84483 9.74456 1.37548 9.74958 1.27791 9.77253C1.04664 9.82699 0.863665 9.97901 0.759295 10.2035C0.680566 10.3728 0.680566 10.6272 0.759295 10.7965C0.863665 11.0209 1.04664 11.173 1.27791 11.2274C1.37548 11.2504 2.84483 11.2554 9.56516 11.2556L17.7338 11.256L15.5377 13.4557C13.1367 15.8606 13.267 15.7166 13.2375 15.9986C13.2127 16.2359 13.2952 16.4448 13.4834 16.6207C13.6416 16.7687 13.7483 16.8098 13.9755 16.8102C14.3224 16.8107 14.0323 17.0722 17.2691 13.8411C18.8496 12.2633 20.1663 10.936 20.195 10.8915C20.3429 10.6626 20.3429 10.3374 20.195 10.1085C20.1663 10.0639 18.8496 8.7366 17.2691 7.1589C14.0682 3.96354 14.325 4.19764 14.007 4.18565C13.915 4.18219 13.813 4.19155 13.7618 4.20816Z" fill="currentColor"/>
</svg>
