<svg width="21" height="21" viewBox="0 0 21 21" fill="none" xmlns="http://www.w3.org/2000/svg">
<path fill-rule="evenodd" clip-rule="evenodd" d="M4.65826 3.5348C4.59266 3.56246 4.50288 3.61412 4.45876 3.64959C4.41462 3.68508 3.57435 4.52038 2.59149 5.5058C0.570193 7.53241 0.703501 7.37623 0.703501 7.7175C0.703501 8.05844 0.571663 7.90388 2.58109 9.91864C3.55812 10.8983 4.41254 11.7415 4.4798 11.7925C4.63176 11.9077 4.73111 11.9386 4.9455 11.9375C5.15479 11.9364 5.30739 11.8727 5.45536 11.7246C5.63119 11.5485 5.69955 11.3397 5.66553 11.0826C5.63304 10.8369 5.62433 10.8267 4.40265 9.60183L3.26592 8.46216L8.85171 8.46863C14.0773 8.47468 14.4522 8.47749 14.6662 8.51227C15.7781 8.69301 16.7292 9.18704 17.4748 9.97118C18.1308 10.6611 18.5557 11.5056 18.7342 12.474C18.7821 12.7337 18.7828 12.7587 18.7941 14.8365L18.8055 16.9365L18.8708 17.073C18.9491 17.2368 19.0789 17.3696 19.2359 17.4467C19.3369 17.4963 19.3767 17.5035 19.551 17.5035C19.7216 17.5035 19.7672 17.4956 19.866 17.4493C19.9909 17.3907 20.1616 17.2344 20.2164 17.1284C20.3058 16.9556 20.3065 16.9397 20.3066 14.9415C20.3066 13.868 20.2976 12.9247 20.286 12.789C20.2124 11.9273 20.0058 11.1939 19.6233 10.437C18.7481 8.70507 17.1261 7.4667 15.2365 7.08779C14.6349 6.96717 14.9049 6.97206 8.84625 6.97202C5.78262 6.97202 3.276 6.96511 3.276 6.95669C3.276 6.94825 3.79462 6.42142 4.4285 5.78594C5.52523 4.6864 5.58321 4.62447 5.62666 4.50584C5.68779 4.33898 5.68821 4.12423 5.62769 3.96247C5.56914 3.80602 5.40918 3.63132 5.25569 3.55622C5.08517 3.47279 4.82719 3.46355 4.65826 3.5348Z" fill="currentColor"/>
</svg>
