<svg width="21" height="21" viewBox="0 0 21 21" fill="none" xmlns="http://www.w3.org/2000/svg">
<path fill-rule="evenodd" clip-rule="evenodd" d="M6.7515 4.23062C6.6822 4.25985 6.62092 4.28383 6.61533 4.28387C6.58986 4.28413 0.851274 10.0368 0.804948 10.1085C0.657129 10.3374 0.657129 10.6626 0.804948 10.8915C0.833718 10.936 2.1504 12.2633 3.73088 13.8411C6.89869 17.0033 6.67346 16.7963 6.96757 16.8168C7.18775 16.8321 7.35535 16.7716 7.5206 16.617C7.70465 16.4449 7.78707 16.2341 7.76246 15.9986C7.73298 15.7166 7.86326 15.8606 5.46231 13.4557L3.26615 11.256L11.4348 11.2556C18.1552 11.2554 19.6245 11.2504 19.7221 11.2274C19.9534 11.173 20.1363 11.0209 20.2407 10.7965C20.3194 10.6272 20.3194 10.3728 20.2407 10.2035C20.1363 9.97901 19.9534 9.82699 19.7221 9.77254C19.6245 9.74959 18.1552 9.74457 11.4348 9.74432L3.26615 9.74398L5.46231 7.54423C7.86326 5.13933 7.73298 5.28335 7.76246 5.00138C7.78726 4.76402 7.70475 4.55519 7.51661 4.37921C7.37201 4.24395 7.25151 4.19429 7.0455 4.18501C6.9023 4.17856 6.85889 4.1853 6.7515 4.23062Z" fill="currentColor"/>
</svg>
