<svg width="21" height="21" viewBox="0 0 21 21" fill="none" xmlns="http://www.w3.org/2000/svg">
<path fill-rule="evenodd" clip-rule="evenodd" d="M10.2774 0.724321C10.23 0.739273 10.1544 0.775309 10.1094 0.804373C10.0644 0.833458 8.73663 2.15039 7.15892 3.73087C3.92773 6.96773 4.18925 6.67763 4.18981 7.02449C4.19019 7.25173 4.23123 7.35839 4.37923 7.5166C4.55521 7.70474 4.76404 7.78725 5.0014 7.76245C5.28337 7.73297 5.13935 7.86325 7.54425 5.4623L9.744 3.26614L9.74434 11.4348C9.74459 18.1552 9.74961 19.6245 9.77256 19.7221C9.82701 19.9534 9.97903 20.1363 10.2035 20.2407C10.3728 20.3194 10.6272 20.3194 10.7965 20.2407C11.021 20.1363 11.173 19.9534 11.2274 19.7221C11.2504 19.6245 11.2554 18.1552 11.2557 11.4348L11.256 3.26614L13.4558 5.4623C15.8606 7.86325 15.7166 7.73297 15.9986 7.76245C16.2341 7.78706 16.4449 7.70464 16.617 7.52059C16.7716 7.35534 16.8322 7.18774 16.8168 6.96756C16.7963 6.67345 17.0033 6.89868 13.8411 3.73087C12.2634 2.15039 10.936 0.83371 10.8915 0.80494C10.7251 0.697462 10.469 0.663841 10.2774 0.724321Z" fill="currentColor"/>
</svg>
