<svg width="21" height="21" viewBox="0 0 21 21" fill="none" xmlns="http://www.w3.org/2000/svg">
<path fill-rule="evenodd" clip-rule="evenodd" d="M13.0762 0.72321C12.8809 0.779511 12.6934 0.942009 12.6023 1.13397C12.5559 1.23187 12.5475 1.27826 12.5475 1.43847C12.5475 1.77737 12.4737 1.68444 13.7932 3.0074L14.96 4.17733L12.2208 4.18441C9.26892 4.19201 9.35523 4.18905 8.70784 4.30541C7.40439 4.53971 6.16035 5.10927 5.0925 5.96063C4.75396 6.23054 4.13269 6.85452 3.85608 7.20247C2.92452 8.37429 2.34467 9.73733 2.15368 11.2043C2.07442 11.8131 2.07446 12.674 2.15376 13.2816C2.50041 15.9378 4.14658 18.252 6.54328 19.4523C7.3903 19.8764 8.27392 20.1383 9.261 20.2577C9.63999 20.3036 10.5543 20.3096 10.941 20.2688C11.8973 20.1678 12.7848 19.9199 13.6185 19.5206C15.6096 18.5671 17.1023 16.8795 17.7992 14.7945C18.0701 13.9837 18.1909 13.281 18.1944 12.495C18.1965 12.0306 18.1956 12.0207 18.144 11.919C18.0793 11.7916 17.9269 11.6316 17.8163 11.5752C17.4357 11.381 16.9617 11.5427 16.7823 11.928C16.7351 12.0292 16.7265 12.0836 16.7125 12.369C16.6743 13.1459 16.5873 13.654 16.3874 14.2667C16.0306 15.3605 15.4408 16.2748 14.574 17.0777C13.6146 17.9665 12.4356 18.5245 11.0673 18.7376C10.8284 18.7748 10.6856 18.782 10.164 18.783C9.61523 18.7841 9.50733 18.7786 9.219 18.7348C7.68621 18.5016 6.33387 17.7838 5.30662 16.6581C4.37121 15.633 3.80358 14.3808 3.62897 12.957C3.59344 12.6671 3.59419 11.8148 3.63025 11.5185C3.83279 9.85349 4.58917 8.40121 5.81391 7.32567C6.86654 6.4013 8.14078 5.84719 9.5219 5.71323C9.66943 5.69891 10.6773 5.69097 12.346 5.69097H14.9406L13.8029 6.83022C12.4982 8.13663 12.5475 8.0746 12.5475 8.41091C12.5475 8.58263 12.5539 8.61346 12.6165 8.74055C12.6928 8.89546 12.808 9.01038 12.9698 9.09303C13.0591 9.1386 13.1 9.14547 13.2825 9.14547C13.4686 9.14547 13.5056 9.13898 13.608 9.08841C13.7042 9.04087 14.0324 8.72198 15.5744 7.17741C17.3514 5.39754 17.4272 5.31853 17.4705 5.1998C17.5509 4.97949 17.5266 4.72146 17.4081 4.53597C17.3749 4.48399 16.5275 3.62318 15.5251 2.62304C13.9044 1.00604 13.69 0.799398 13.5893 0.757461C13.4477 0.698451 13.2159 0.682974 13.0762 0.72321Z" fill="currentColor"/>
</svg>
