<svg width="21" height="21" viewBox="0 0 21 21" fill="none" xmlns="http://www.w3.org/2000/svg">
<path fill-rule="evenodd" clip-rule="evenodd" d="M10.017 0.705518C9.04707 0.789224 8.41991 0.915602 7.707 1.17098C6.5314 1.5921 5.52764 2.21517 4.65402 3.06604C3.92003 3.78095 3.39221 4.50284 2.95764 5.38625C2.17694 6.97322 1.91614 8.71593 2.2058 10.4102C2.50322 12.15 3.49148 14.0716 5.0383 15.918C6.01874 17.0884 7.37934 18.3889 8.69618 19.4146C9.69776 20.1948 9.89906 20.2927 10.5 20.2927C11.1009 20.2927 11.3022 20.1948 12.3038 19.4146C13.5926 18.4108 14.9395 17.1281 15.909 15.981C16.7517 14.984 17.4296 13.9697 17.9232 12.9675C18.1926 12.4205 18.327 12.0974 18.4894 11.6067C18.9859 10.107 19.0418 8.59037 18.6574 7.05092C18.0064 4.44385 16.0941 2.2672 13.5905 1.28354C12.8605 0.996725 12.2343 0.841157 11.424 0.745292C11.1569 0.713687 10.227 0.687395 10.017 0.705518ZM9.9645 2.21804C9.40959 2.27416 8.9923 2.35165 8.55221 2.48035C6.88802 2.96699 5.45599 4.07967 4.55889 5.58317C3.75629 6.92828 3.43255 8.56725 3.67477 10.059C3.95507 11.7853 4.98523 13.6455 6.70805 15.5363C7.65177 16.5721 8.85866 17.6648 9.99753 18.5146C10.3343 18.7659 10.3866 18.795 10.5 18.795C10.6134 18.795 10.6657 18.7659 11.0025 18.5146C12.6514 17.2842 14.272 15.7005 15.3461 14.2695C16.7742 12.3669 17.4666 10.5491 17.4015 8.87254C17.3379 7.23488 16.7487 5.75518 15.6747 4.53604C14.5711 3.28325 13.0775 2.48808 11.3925 2.25633C11.1523 2.22327 10.1724 2.197 9.9645 2.21804ZM10.227 4.88443C9.96259 4.91577 9.79643 4.94307 9.6495 4.97933C8.53921 5.25336 7.62008 6.06319 7.20363 7.13433C6.94218 7.80684 6.89644 8.5931 7.07748 9.30304C7.32826 10.2864 8.07509 11.188 8.98514 11.6059C9.50204 11.8433 9.92913 11.9365 10.5 11.9365C10.8696 11.9365 11.0376 11.9177 11.3505 11.8413C12.4576 11.571 13.3796 10.7588 13.7964 9.68676C13.9601 9.2656 14.028 8.89153 14.028 8.41054C14.028 7.94027 13.9615 7.56469 13.8064 7.15806C13.3557 5.97721 12.3175 5.12976 11.067 4.922C10.886 4.89195 10.3616 4.86849 10.227 4.88443ZM10.1464 6.40624C9.97162 6.43741 9.72924 6.52521 9.534 6.62804C9.05083 6.88254 8.67804 7.35914 8.53392 7.90654C8.48683 8.08538 8.47864 8.16018 8.47864 8.41054C8.47864 8.66091 8.48683 8.73571 8.53392 8.91454C8.68518 9.4891 9.06236 9.95549 9.5865 10.2161C9.94407 10.3938 10.084 10.426 10.5 10.426C10.916 10.426 11.0559 10.3938 11.4135 10.2161C11.9376 9.95549 12.3148 9.4891 12.4661 8.91454C12.5132 8.73571 12.5214 8.66091 12.5214 8.41054C12.5214 8.16018 12.5132 8.08538 12.4661 7.90654C12.3148 7.33192 11.9375 6.86543 11.4135 6.60509C11.0815 6.44018 10.9319 6.40301 10.563 6.39383C10.3955 6.38965 10.2081 6.39524 10.1464 6.40624Z" fill="currentColor"/>
</svg>
