<svg width="21" height="21" viewBox="0 0 21 21" fill="none" xmlns="http://www.w3.org/2000/svg">
<path fill-rule="evenodd" clip-rule="evenodd" d="M8.4945 0.715553C7.40561 0.802157 6.43165 1.0617 5.46687 1.52233C3.76479 2.33497 2.33499 3.76477 1.52235 5.46685C0.562337 7.47755 0.43157 9.75851 1.15617 11.8541C2.15882 14.7538 4.6747 16.8898 7.686 17.398C8.24472 17.4923 8.40008 17.5035 9.1245 17.5023C9.8461 17.5011 10.0486 17.4852 10.605 17.386C11.9379 17.1484 13.3015 16.5313 14.3325 15.6991L14.5005 15.5635L16.821 17.8795C19.4316 20.4851 19.2157 20.2941 19.551 20.2951C19.7026 20.2955 19.7485 20.2868 19.8555 20.2372C20.0199 20.1611 20.163 20.0186 20.2365 19.8578C20.2862 19.7491 20.2952 19.7022 20.2949 19.551C20.2943 19.2158 20.4854 19.4318 17.8796 16.821L15.5635 14.5005L15.6991 14.3325C16.5313 13.3015 17.1484 11.9379 17.386 10.605C17.4862 10.0435 17.5014 9.84766 17.502 9.11398C17.5027 8.37944 17.4869 8.17387 17.3862 7.60866C17.2307 6.73546 16.9057 5.82166 16.4757 5.04794C15.2574 2.85617 13.1806 1.33963 10.7309 0.852893C10.0335 0.714314 9.17389 0.66152 8.4945 0.715553ZM8.47524 2.22606C7.15495 2.35252 5.91807 2.84422 4.8506 3.66691C4.54062 3.90581 3.90583 4.5406 3.66693 4.85058C2.82597 5.94174 2.3373 7.19088 2.22409 8.53866C2.19347 8.90329 2.21069 9.66353 2.25733 10.0065C2.59365 12.4789 4.19292 14.5533 6.49108 15.498C7.33713 15.8458 8.15991 16.0057 9.1035 16.0058C9.89478 16.0059 10.5208 15.9088 11.2401 15.6743C12.2965 15.3299 13.1971 14.7767 13.9869 13.9869C14.7767 13.197 15.33 12.2964 15.6743 11.2401C15.8714 10.6357 15.9649 10.1275 16.0004 9.46741C16.1007 7.60528 15.442 5.78285 14.1762 4.42048C13.0675 3.22715 11.6275 2.47993 10.0065 2.25683C9.71563 2.21678 8.77027 2.1978 8.47524 2.22606Z" fill="currentColor"/>
</svg>
