<svg width="21" height="21" viewBox="0 0 21 21" fill="none" xmlns="http://www.w3.org/2000/svg">
<path fill-rule="evenodd" clip-rule="evenodd" d="M3.87003 0.726227C3.55186 0.779651 3.18279 0.941519 2.92245 1.14186C2.64025 1.359 2.38326 1.69872 2.24596 2.03612C2.16116 2.24451 2.12695 2.38777 2.10106 2.64298C2.07128 2.93673 2.07059 11.0723 2.10032 11.386C2.18842 12.3149 2.80111 13.0259 3.73801 13.2865C3.86835 13.3228 4.17325 13.3245 10.5 13.3245C16.8268 13.3245 17.1317 13.3228 17.262 13.2865C18.1983 13.0261 18.8117 12.3142 18.8997 11.386C18.9294 11.0723 18.9287 2.93673 18.899 2.64298C18.8731 2.38777 18.8389 2.24451 18.7541 2.03612C18.4719 1.34291 17.8455 0.844541 17.1045 0.723938C16.8298 0.679208 4.13699 0.681413 3.87003 0.726227ZM4.02567 2.23527C3.73736 2.33836 3.58236 2.58876 3.59533 2.93043L3.60151 3.0928L7.02451 4.96262C8.97906 6.0303 10.47 6.83244 10.5 6.83244C10.53 6.83244 12.0208 6.03032 13.9755 4.96241L17.3985 3.09236V2.89544C17.3985 2.75495 17.3875 2.66999 17.3601 2.59899C17.3145 2.4808 17.1766 2.33239 17.0491 2.26439L16.9575 2.21551L10.5315 2.21112C5.1595 2.20742 4.0924 2.21139 4.02567 2.23527ZM3.59601 8.07908L3.60151 11.3505L3.64983 11.4555C3.74063 11.6528 3.90859 11.7821 4.12512 11.8214C4.3007 11.8533 16.6993 11.8533 16.8749 11.8214C17.0914 11.7821 17.2594 11.6528 17.3502 11.4555L17.3985 11.3505L17.404 8.07908L17.4095 4.80766L17.341 4.84286C17.3033 4.86222 15.8172 5.672 14.0385 6.64235C12.2598 7.61269 10.7628 8.4193 10.7119 8.43482C10.5935 8.47088 10.4065 8.47088 10.2881 8.43482C10.2372 8.4193 8.74021 7.61269 6.96151 6.64235C5.18281 5.672 3.69668 4.86222 3.65901 4.84286L3.59048 4.80766L3.59601 8.07908ZM5.48342 14.6397C5.25412 14.6778 5.04677 14.8431 4.93837 15.0743L4.88251 15.1935V16.7689V18.3444L4.95166 18.4849C5.03535 18.6549 5.18865 18.7976 5.35501 18.8604C5.48775 18.9106 5.71638 18.9193 5.84991 18.8793C6.05781 18.8169 6.28428 18.5868 6.34598 18.375C6.36756 18.3009 6.37351 17.9518 6.37351 16.758C6.37351 15.087 6.37876 15.1593 6.24285 14.9571C6.0756 14.7082 5.78996 14.5888 5.48342 14.6397ZM15.2404 14.6378C15.0954 14.6622 14.9628 14.7332 14.848 14.848C14.7251 14.9709 14.6623 15.0957 14.6349 15.2716C14.6222 15.3533 14.6166 15.9709 14.6206 16.8638C14.6278 18.4867 14.6199 18.3968 14.7739 18.6066C14.8547 18.7166 15.0204 18.8369 15.1484 18.8784C15.2749 18.9195 15.5113 18.9109 15.645 18.8604C15.8114 18.7976 15.9647 18.6549 16.0484 18.4849L16.1175 18.3444V16.7689V15.1935L16.0616 15.0743C15.9492 14.8345 15.748 14.679 15.4974 14.6384C15.4226 14.6262 15.3568 14.6174 15.351 14.6186C15.3452 14.6199 15.2954 14.6285 15.2404 14.6378ZM10.3814 15.3314C10.322 15.3394 10.2281 15.3683 10.1728 15.3957C10.0534 15.4548 9.88557 15.6162 9.82983 15.7254C9.74468 15.8924 9.7414 15.9791 9.74808 17.892L9.75451 19.7295L9.81079 19.8496C9.88991 20.0184 10.0323 20.1631 10.1906 20.2354C10.3018 20.2862 10.3484 20.2952 10.5 20.2952C10.6516 20.2952 10.6982 20.2862 10.8094 20.2354C10.9677 20.1631 11.1101 20.0184 11.1892 19.8496L11.2455 19.7295L11.2517 17.9025C11.258 16.0368 11.2529 15.8862 11.1781 15.7414C11.1201 15.6294 11.0209 15.5203 10.9107 15.4478C10.7449 15.3386 10.5872 15.3039 10.3814 15.3314Z" fill="currentColor"/>
</svg>
