<svg width="21" height="21" viewBox="0 0 21 21" fill="none" xmlns="http://www.w3.org/2000/svg">
<path fill-rule="evenodd" clip-rule="evenodd" d="M2.60983 2.10142C1.7117 2.18832 0.954819 2.86652 0.741501 3.7755C0.705255 3.93002 0.703491 4.2405 0.703491 10.5C0.703491 16.7595 0.705255 17.07 0.741501 17.2245C0.958116 18.1475 1.70666 18.8092 2.63667 18.8996C2.92019 18.9272 18.0798 18.9272 18.3633 18.8996C19.3377 18.8049 20.1189 18.074 20.2751 17.1109C20.3029 16.9397 20.3068 16.1203 20.3068 10.5C20.3068 3.51369 20.3131 3.89302 20.1916 3.54538C19.9092 2.73684 19.2077 2.18248 18.3633 2.10037C18.1092 2.07568 2.8655 2.07668 2.60983 2.10142ZM2.66262 3.62037C2.47211 3.67178 2.31944 3.81523 2.24403 4.0137C2.20812 4.10818 2.20503 4.18941 2.20556 5.02448L2.20613 5.93249L6.19615 8.69399C8.57225 10.3385 10.2263 11.47 10.2853 11.4914C10.3399 11.5111 10.4365 11.5273 10.5 11.5273C10.5635 11.5273 10.6601 11.5111 10.7147 11.4914C10.7737 11.47 12.4277 10.3385 14.8038 8.69399L18.7939 5.93249L18.7944 5.02504C18.795 4.15928 18.793 4.11226 18.7517 4.0019C18.6991 3.86124 18.559 3.71076 18.4216 3.64727L18.3225 3.60149L10.542 3.59759C4.30652 3.59446 2.74186 3.59897 2.66262 3.62037ZM2.20499 12.325C2.20499 16.876 2.20505 16.8826 2.24827 16.9981C2.3009 17.1387 2.44099 17.2892 2.57837 17.3527L2.67749 17.3985H10.5H18.3225L18.4172 17.3547C18.5551 17.2908 18.6999 17.1366 18.7516 16.9983L18.7951 16.8822L18.7898 12.326L18.7845 7.76995L15.2065 10.247C13.2386 11.6095 11.5565 12.7612 11.4685 12.8065C11.1335 12.9788 10.9078 13.03 10.4895 13.0287C10.0572 13.0274 9.79385 12.9597 9.44936 12.7616C9.36307 12.712 7.70962 11.5752 5.77499 10.2354C3.84037 8.89566 2.24569 7.79228 2.23124 7.7835C2.21028 7.77073 2.20499 8.68448 2.20499 12.325Z" fill="currentColor"/>
</svg>
