<svg width="21" height="21" viewBox="0 0 21 21" fill="none" xmlns="http://www.w3.org/2000/svg">
<path fill-rule="evenodd" clip-rule="evenodd" d="M19.3935 0.706812C19.3194 0.72693 1.16795 7.71033 1.10249 7.74391C0.862211 7.86714 0.692993 8.14718 0.692993 8.42154C0.692993 8.63003 0.81284 8.87027 0.98084 8.99854C1.03242 9.03791 2.65368 9.78658 4.80444 10.7642L8.53851 12.4615L10.2349 16.1935C11.1907 18.2965 11.9603 19.9635 11.9979 20.0123C12.1304 20.1848 12.3747 20.3061 12.5909 20.3067C12.8543 20.3075 13.1357 20.1344 13.2563 19.8975C13.274 19.8628 14.8647 15.7379 16.7913 10.731L20.2941 1.62749L20.2951 1.44899C20.2959 1.29158 20.2883 1.25437 20.2309 1.13399C20.1055 0.871326 19.8686 0.712671 19.5848 0.701373C19.5027 0.698097 19.4166 0.700554 19.3935 0.706812ZM10.857 5.5966C6.82027 7.14932 3.49181 8.43181 3.46044 8.44661C3.40617 8.47217 3.53522 8.53341 6.08407 9.69149C7.55846 10.3614 8.80628 10.9276 8.857 10.9496L8.94923 10.9898L10.9164 9.02525C12.7941 7.15007 12.889 7.05875 13.005 7.01639C13.1699 6.95616 13.396 6.95635 13.5599 7.01685C13.7282 7.07893 13.9211 7.27175 13.9831 7.44004C14.0437 7.60409 14.0438 7.83012 13.9835 7.99495C13.9411 8.11091 13.8489 8.20677 11.9747 10.0837L10.0103 12.0509L10.0504 12.1431C10.4076 12.9641 12.5304 17.5877 12.5413 17.5684C12.5601 17.5351 18.228 2.79902 18.228 2.7835C18.228 2.77718 18.2209 2.77233 18.2122 2.77275C18.2036 2.77317 14.8937 4.0439 10.857 5.5966Z" fill="currentColor"/>
</svg>
