<svg width="21" height="21" viewBox="0 0 21 21" fill="none" xmlns="http://www.w3.org/2000/svg">
<path fill-rule="evenodd" clip-rule="evenodd" d="M7.53342 0.715653C7.3352 0.762819 7.12828 0.931827 7.03412 1.12349C6.99328 1.20661 6.98101 1.26896 6.97524 1.42264C6.96854 1.60148 6.9728 1.62718 7.02944 1.7482C7.14028 1.98504 7.34639 2.14397 7.59564 2.18479C7.66998 2.19697 9.50469 2.20481 12.3 2.20487C16.8808 2.20499 16.8825 2.20502 16.9985 2.24842C17.1366 2.3001 17.2908 2.44488 17.3547 2.58283L17.3985 2.67749L17.409 9.47099L17.4195 16.2645L17.4737 16.38C17.543 16.5277 17.7023 16.687 17.85 16.7563C17.9488 16.8026 17.9944 16.8105 18.165 16.8105C18.344 16.8105 18.377 16.8042 18.4859 16.749C18.6207 16.6807 18.7684 16.5354 18.8342 16.4065C18.8579 16.3601 18.887 16.2619 18.899 16.1883C18.9278 16.0103 18.9285 2.9334 18.8996 2.63667C18.8726 2.35895 18.8147 2.15436 18.6911 1.90049C18.407 1.31684 17.9155 0.924036 17.241 0.741504C17.1128 0.706833 16.8148 0.704334 12.3585 0.700722C9.62031 0.698475 7.57905 0.704817 7.53342 0.715653ZM3.9165 3.50088C3.88185 3.50573 3.7968 3.52382 3.7275 3.54108C2.82864 3.76479 2.18799 4.51048 2.10032 5.43505C2.07195 5.73432 2.07201 18.0714 2.10038 18.3633C2.19562 19.3428 2.93139 20.1246 3.90073 20.2763C4.08093 20.3045 4.71776 20.3076 9.2085 20.3024L14.3115 20.2965L14.5112 20.2412C14.7663 20.1706 14.9556 20.0844 15.1729 19.9398C15.6044 19.6527 15.9177 19.2125 16.0622 18.6902L16.1175 18.4905L16.124 12.012C16.1288 7.16009 16.1243 5.48603 16.106 5.34449C16.0561 4.9604 15.8957 4.58885 15.6454 4.27727C15.3629 3.9258 14.9758 3.67344 14.5201 3.54387L14.3535 3.49649L9.1665 3.49427C6.31365 3.49305 3.95115 3.49601 3.9165 3.50088ZM4.11877 4.99963C3.90793 5.04107 3.73781 5.17568 3.64638 5.37343L3.6015 5.47049V11.8965V18.3225L3.64728 18.4216C3.71085 18.5592 3.86123 18.6991 4.00235 18.7519L4.11848 18.7953L9.14149 18.7899L14.1645 18.7845L14.259 18.735C14.3878 18.6675 14.483 18.5736 14.5496 18.4485L14.6055 18.3435L14.6109 11.9286C14.6169 4.70444 14.6335 5.3972 14.4507 5.20182C14.3358 5.07897 14.2473 5.03061 14.0812 4.99991C13.9299 4.97193 4.26107 4.97166 4.11877 4.99963ZM5.418 7.68455C5.22065 7.74513 5.02612 7.91563 4.93714 8.10599C4.89172 8.20318 4.88315 8.25146 4.88315 8.41049C4.88315 8.57098 4.89158 8.61753 4.93891 8.71911C5.00676 8.86472 5.14515 9.00731 5.2954 9.08646L5.4075 9.14549H9.1035H12.7995L12.9209 9.08399C13.064 9.01145 13.2011 8.87184 13.273 8.72549C13.3172 8.63528 13.3245 8.5909 13.3245 8.41049C13.3245 8.233 13.3169 8.18512 13.2756 8.10114C13.2031 7.95404 13.0613 7.80815 12.9224 7.73774L12.7995 7.67549L9.135 7.67197C7.11953 7.67001 5.44688 7.67568 5.418 7.68455ZM5.418 11.8635C5.21882 11.9248 5.0269 12.092 4.93891 12.2809C4.89158 12.3825 4.88315 12.429 4.88315 12.5895C4.88315 12.7485 4.89172 12.7968 4.93714 12.894C5.00487 13.0389 5.14891 13.1883 5.29503 13.2653L5.4075 13.3245H7.707H10.0065L10.122 13.2694C10.2755 13.1961 10.4079 13.0603 10.4851 12.8967C10.5395 12.7817 10.5483 12.7387 10.5483 12.5895C10.5483 12.4402 10.5395 12.3973 10.4851 12.2822C10.4079 12.1187 10.2755 11.9829 10.122 11.9096L10.0065 11.8545L7.7385 11.8509C6.4911 11.8489 5.44688 11.8546 5.418 11.8635Z" fill="currentColor"/>
</svg>
