<svg width="21" height="21" viewBox="0 0 21 21" fill="none" xmlns="http://www.w3.org/2000/svg">
<path fill-rule="evenodd" clip-rule="evenodd" d="M3.99 0.706489C3.47924 0.784315 3.10571 0.959329 2.76385 1.28101C2.56494 1.4682 2.42974 1.65229 2.30891 1.90051C2.18535 2.15438 2.12739 2.35896 2.10038 2.63668C2.07283 2.9202 2.07283 18.0798 2.10038 18.3633C2.19513 19.3377 2.92604 20.1189 3.88905 20.2751C4.06027 20.3029 4.87971 20.3068 10.5 20.3068C17.4863 20.3068 17.107 20.3131 17.4546 20.1917C18.2632 19.9092 18.8175 19.2078 18.8996 18.3633C18.9269 18.083 18.928 6.37577 18.9008 6.20964C18.8898 6.14263 18.8597 6.04341 18.834 5.98914C18.7976 5.91262 18.2193 5.32202 16.2553 3.3556C13.9677 1.06521 13.7113 0.815038 13.5975 0.762097L13.4715 0.703507L8.757 0.701008C6.16403 0.699622 4.01888 0.7021 3.99 0.706489ZM3.99592 2.24932C3.86148 2.301 3.70892 2.44502 3.64728 2.57839L3.6015 2.67751V10.5V18.3225L3.64728 18.4216C3.71076 18.559 3.86125 18.6991 4.00191 18.7517L4.11758 18.795H10.5H16.8824L16.9985 18.7516C17.1366 18.6999 17.2908 18.5551 17.3547 18.4172L17.3985 18.3225L17.404 13.0466L17.4094 7.77068L14.905 7.76509L12.4005 7.75951L12.2809 7.70344C12.1351 7.6351 11.9926 7.49665 11.9135 7.3466L11.8545 7.23451L11.8489 4.71976L11.8433 2.20501L7.97442 2.2061C4.15357 2.20719 4.10414 2.20772 3.99592 2.24932ZM13.335 4.42051V6.25801H15.1882H17.0414L15.204 4.42051C14.1934 3.40988 13.3595 2.58301 13.3508 2.58301C13.3421 2.58301 13.335 3.40988 13.335 4.42051Z" fill="currentColor"/>
</svg>
