<svg width="21" height="21" viewBox="0 0 21 21" fill="none" xmlns="http://www.w3.org/2000/svg">
<path fill-rule="evenodd" clip-rule="evenodd" d="M3.2655 1.40957C2.78458 1.47204 2.32346 1.70539 1.99055 2.05481C1.65885 2.40293 1.46704 2.81161 1.40776 3.29646C1.37752 3.54386 1.37752 17.4562 1.40776 17.7036C1.53067 18.7089 2.2911 19.4693 3.29645 19.5922C3.54385 19.6225 17.4561 19.6225 17.7035 19.5922C18.7089 19.4693 19.4693 18.7089 19.5922 17.7036C19.6222 17.4582 19.6221 6.34228 19.5921 6.0795C19.4911 5.19555 18.8838 4.49911 17.9865 4.23846L17.8185 4.18965L13.7566 4.17907L9.69471 4.1685L9.53156 3.5199C9.35185 2.80539 9.29021 2.62988 9.13261 2.3839C8.83789 1.9239 8.39061 1.60317 7.8225 1.44445L7.6545 1.39751L5.5335 1.39398C4.35876 1.39205 3.34692 1.39898 3.2655 1.40957ZM3.30149 2.94263C3.15126 3.00065 2.99872 3.15538 2.94181 3.30748L2.898 3.42458V10.5V17.5754L2.94181 17.6925C3.00027 17.8488 3.15122 17.9997 3.30748 18.0582L3.42457 18.102H10.5H17.5754L17.6925 18.0582C17.849 17.9996 17.9997 17.8488 18.0583 17.6921L18.1023 17.5746L18.0969 11.8586L18.0915 6.1425L18.0356 6.0375C17.9686 5.91153 17.8728 5.81698 17.745 5.75058L17.6505 5.7015L13.3035 5.691C9.31148 5.68137 8.9494 5.67765 8.86964 5.64554C8.66069 5.56139 8.51424 5.42659 8.42953 5.24047C8.403 5.1822 8.2812 4.73288 8.15886 4.242C8.03649 3.75113 7.91274 3.30053 7.88386 3.24068C7.82626 3.12142 7.73281 3.0289 7.59616 2.95588L7.5075 2.9085L5.46 2.90414C3.44362 2.89983 3.41082 2.90042 3.30149 2.94263Z" fill="currentColor"/>
</svg>
