<svg width="21" height="21" viewBox="0 0 21 21" fill="none" xmlns="http://www.w3.org/2000/svg">
<path fill-rule="evenodd" clip-rule="evenodd" d="M13.8255 1.40769C13.6264 1.44746 13.4157 1.60838 13.3178 1.79551C13.1159 2.18145 13.2772 2.63986 13.6815 2.82867L13.8075 2.88751L15.4237 2.89352L17.0398 2.89951L13.8034 6.13802C11.6096 8.33321 10.553 9.40444 10.5238 9.46322C10.4276 9.65689 10.4272 9.93879 10.523 10.1366C10.5812 10.2568 10.7432 10.4188 10.8634 10.477C11.0612 10.5728 11.3431 10.5724 11.5368 10.4762C11.5956 10.447 12.6668 9.39042 14.8621 7.19653L18.1007 3.95996L18.1066 5.57623L18.1125 7.19251L18.1713 7.31851C18.2735 7.53748 18.4639 7.6963 18.6872 7.74887C19.0258 7.82854 19.3947 7.64425 19.5442 7.32082L19.6035 7.19251V4.57757V1.96263L19.5352 1.82401C19.4543 1.65964 19.3225 1.5306 19.1557 1.45237L19.0365 1.39651L16.4745 1.39341C15.0654 1.39168 13.8733 1.39811 13.8255 1.40769ZM3.2113 4.20022C2.75602 4.27729 2.33621 4.49286 2.01728 4.81338C1.74195 5.09008 1.56687 5.40056 1.45198 5.81594L1.3965 6.01651L1.39026 11.7495C1.38577 15.882 1.3906 17.5405 1.40757 17.6902C1.46366 18.1856 1.65873 18.6015 2.00178 18.9573C2.34671 19.315 2.80043 19.5348 3.31363 19.5929C3.45826 19.6093 5.18358 19.6142 9.2505 19.6098L14.9835 19.6035L15.1841 19.548C15.5995 19.4331 15.9099 19.2581 16.1866 18.9827C16.453 18.7177 16.6399 18.3974 16.7531 18.0117L16.8098 17.8185L16.8163 14.4585C16.8211 11.899 16.8167 11.076 16.7975 11.004C16.7621 10.8707 16.6871 10.7484 16.5807 10.6503C16.4602 10.5392 16.3504 10.4853 16.1933 10.46C15.8162 10.3993 15.4827 10.6084 15.3434 10.9929C15.3272 11.0376 15.3171 12.0387 15.3094 14.3535L15.2985 17.6505L15.2468 17.7517C15.1773 17.8877 15.0475 18.0028 14.9023 18.0572L14.7824 18.102H9.1035H3.42457L3.30748 18.0582C3.15103 17.9997 3.00029 17.8488 2.94166 17.6921L2.89771 17.5746L2.9031 11.8586L2.9085 6.14251L2.96526 6.03493C2.99647 5.97575 3.06552 5.88904 3.11867 5.84226C3.3037 5.6794 3.03715 5.69106 6.58199 5.69059C8.54305 5.69034 9.80891 5.68232 9.89699 5.66957C10.3269 5.60741 10.6082 5.22994 10.54 4.80668C10.4946 4.52459 10.2918 4.29155 10.02 4.20907C9.93777 4.1841 9.40483 4.17981 6.615 4.1817C4.79587 4.18294 3.26422 4.19128 3.2113 4.20022Z" fill="currentColor"/>
</svg>
