<svg width="21" height="21" viewBox="0 0 21 21" fill="none" xmlns="http://www.w3.org/2000/svg">
<path fill-rule="evenodd" clip-rule="evenodd" d="M9.97501 0.71549C8.28428 0.882881 6.75285 1.79959 5.82009 3.20265C5.39188 3.84678 5.10021 4.56746 4.96632 5.31214C4.88816 5.74696 4.87215 6.01135 4.87207 6.87009L4.87201 7.66069L4.36276 7.67079C3.83872 7.68119 3.75743 7.69274 3.47402 7.79703C3.08157 7.94144 2.68664 8.25735 2.44917 8.6168C2.24665 8.9234 2.13659 9.23641 2.10038 9.60868C2.07311 9.88945 2.07311 18.0826 2.10038 18.3633C2.19514 19.3377 2.92604 20.1189 3.88906 20.2751C4.06027 20.3029 4.87971 20.3068 10.5 20.3068C17.4863 20.3068 17.107 20.3131 17.4546 20.1916C18.2632 19.9092 18.8175 19.2078 18.8996 18.3633C18.9278 18.0735 18.9279 9.91116 18.8997 9.61405C18.8287 8.86513 18.3899 8.21934 17.7255 7.88573C17.5933 7.81937 17.4977 7.78289 17.2935 7.72101L17.1465 7.67647L11.7653 7.67046L6.38401 7.66445V6.8468C6.38401 6.23817 6.39211 5.96728 6.41574 5.7871C6.60337 4.35578 7.5398 3.11203 8.85518 2.54713C9.37468 2.32403 9.80799 2.22818 10.3758 2.21082C10.923 2.19408 11.313 2.24981 11.8088 2.41559C12.3794 2.60637 12.8218 2.87301 13.3054 3.31762C13.5828 3.57275 13.6853 3.6225 13.9335 3.6225C14.0943 3.6225 14.1403 3.61416 14.2417 3.56664C14.6369 3.38136 14.8001 2.93093 14.6117 2.54514C14.5534 2.42592 14.2789 2.14559 14.007 1.92769C13.2361 1.31 12.3042 0.901046 11.3309 0.75329C11.0113 0.704759 10.2872 0.684578 9.97501 0.71549ZM4.0894 9.18563C3.94712 9.21608 3.81886 9.30014 3.7231 9.42568C3.58093 9.6121 3.58994 9.28557 3.596 14.029L3.60151 18.3225L3.64729 18.4216C3.71077 18.559 3.86126 18.6991 4.00191 18.7517L4.11758 18.795H10.5H16.8824L16.9985 18.7516C17.1366 18.6999 17.2908 18.5551 17.3547 18.4172L17.3985 18.3225L17.404 14.029C17.4101 9.28551 17.4191 9.61262 17.2769 9.42513C17.1765 9.29288 17.0372 9.20705 16.8778 9.17929C16.674 9.1438 4.25603 9.14995 4.0894 9.18563ZM10.164 12.5697C10.0889 12.5858 9.94718 12.6386 9.84901 12.687C9.7044 12.7583 9.63443 12.8113 9.48052 12.9658C9.32646 13.1204 9.27405 13.1903 9.20349 13.335C8.91457 13.9276 9.04578 14.6195 9.53002 15.0568C9.80951 15.3092 10.1089 15.4219 10.5 15.4219C10.7768 15.4219 10.9346 15.3869 11.1492 15.2778C11.864 14.9144 12.1495 14.0576 11.7967 13.335C11.7257 13.1898 11.6741 13.1211 11.5195 12.9668C11.2148 12.6626 10.9103 12.5361 10.4895 12.539C10.3856 12.5398 10.2391 12.5535 10.164 12.5697ZM10.458 13.986C10.458 14.014 10.472 14.028 10.5 14.028C10.528 14.028 10.542 14.014 10.542 13.986C10.542 13.958 10.528 13.944 10.5 13.944C10.472 13.944 10.458 13.958 10.458 13.986Z" fill="currentColor"/>
</svg>
