<svg width="21" height="21" viewBox="0 0 21 21" fill="none" xmlns="http://www.w3.org/2000/svg">
<path fill-rule="evenodd" clip-rule="evenodd" d="M10.0041 0.714311C8.28602 0.881618 6.75963 1.78939 5.82009 3.20264C5.39188 3.84678 5.10021 4.56745 4.96632 5.31214C4.88816 5.74696 4.87215 6.01135 4.87207 6.87008L4.87201 7.66069L4.36276 7.67079C3.83872 7.68119 3.75743 7.69274 3.47402 7.79702C3.08157 7.94144 2.68664 8.25734 2.44917 8.6168C2.24665 8.9234 2.13659 9.23641 2.10038 9.60867C2.07311 9.88944 2.07311 18.0826 2.10038 18.3633C2.19514 19.3377 2.92604 20.1189 3.88906 20.2751C4.06027 20.3029 4.87971 20.3068 10.5 20.3068C17.4863 20.3068 17.107 20.3131 17.4546 20.1916C18.2632 19.9092 18.8175 19.2078 18.8996 18.3633C18.9278 18.0735 18.9279 9.91116 18.8997 9.61405C18.85 9.09054 18.6357 8.63822 18.2636 8.27198C18.056 8.06759 17.7821 7.89127 17.526 7.79702C17.2426 7.69274 17.1613 7.68119 16.6373 7.67079L16.128 7.66069L16.1279 6.87008C16.1279 6.43526 16.1182 5.97082 16.1063 5.838C15.9312 3.87284 14.7495 2.14548 12.9886 1.28049C12.4319 1.00705 11.9141 0.844448 11.312 0.754022C10.9937 0.706205 10.3027 0.685247 10.0041 0.714311ZM10.0905 2.21783C9.56891 2.29309 9.24803 2.37841 8.8601 2.54503C8.38218 2.75026 7.96743 3.03286 7.58964 3.41063C7.05332 3.94697 6.70039 4.56649 6.50866 5.30827C6.40196 5.72111 6.38401 5.9427 6.38401 6.84707V7.665H10.5016H14.6191L14.6108 6.74625C14.6017 5.73499 14.5946 5.66239 14.4577 5.18509C14.12 4.00734 13.2594 3.02578 12.1448 2.54713C11.5952 2.31109 11.1847 2.22434 10.5735 2.2151C10.3425 2.21161 10.1252 2.21283 10.0905 2.21783ZM4.0894 9.18559C3.9471 9.21608 3.81884 9.30016 3.7231 9.42568C3.58093 9.61209 3.58994 9.28557 3.596 14.029L3.60151 18.3225L3.64664 18.4201C3.70105 18.5378 3.82965 18.6708 3.9524 18.7364L4.04251 18.7845H10.5H16.9575L17.0476 18.7364C17.1666 18.6729 17.2997 18.5342 17.3544 18.417L17.3985 18.3225L17.404 14.029C17.4101 9.2855 17.4191 9.61262 17.2769 9.42513C17.1768 9.29321 17.0372 9.20705 16.8788 9.17945C16.6757 9.14409 4.25522 9.15003 4.0894 9.18559ZM10.164 12.5697C10.0889 12.5858 9.94718 12.6386 9.84901 12.687C9.7044 12.7583 9.63443 12.8113 9.48052 12.9658C9.32646 13.1204 9.27405 13.1903 9.20349 13.335C8.91457 13.9276 9.04578 14.6195 9.53002 15.0568C9.80951 15.3092 10.1089 15.4219 10.5 15.4219C10.7768 15.4219 10.9346 15.3869 11.1492 15.2777C11.864 14.9144 12.1495 14.0576 11.7967 13.335C11.7257 13.1898 11.6741 13.1211 11.5195 12.9668C11.2148 12.6626 10.9103 12.5361 10.4895 12.539C10.3856 12.5397 10.2391 12.5535 10.164 12.5697ZM10.458 13.986C10.458 14.014 10.472 14.028 10.5 14.028C10.528 14.028 10.542 14.014 10.542 13.986C10.542 13.958 10.528 13.944 10.5 13.944C10.472 13.944 10.458 13.958 10.458 13.986Z" fill="currentColor"/>
</svg>
