<svg width="21" height="21" viewBox="0 0 21 21" fill="none" xmlns="http://www.w3.org/2000/svg">
<path fill-rule="evenodd" clip-rule="evenodd" d="M14.2055 0.723658C13.8793 0.78292 13.6398 0.8791 13.3564 1.06474C13.2013 1.16634 12.4506 1.90865 7.7036 6.65469C3.14891 11.2085 2.22033 12.1464 2.17382 12.2401C2.08845 12.412 0.686491 19.4194 0.699784 19.6076C0.711229 19.7694 0.802516 19.9707 0.915874 20.0841C1.02915 20.1974 1.23052 20.2887 1.39238 20.3003C1.58592 20.3141 8.59994 18.9087 8.76347 18.8234C8.84938 18.7785 10.0334 17.6058 14.3453 13.2945C20.2287 7.41193 19.942 7.70874 20.1187 7.31812C20.4219 6.64805 20.3483 5.85684 19.9234 5.21848C19.8226 5.06707 16.0602 1.28843 15.855 1.13251C15.6924 1.00896 15.4143 0.862531 15.2244 0.800455C14.9086 0.697219 14.5145 0.667525 14.2055 0.723658ZM14.3615 2.23398C14.3198 2.24891 14.2536 2.28114 14.2145 2.30563C14.1755 2.33012 11.7557 4.73905 8.83716 7.65882L3.53081 12.9675L2.97142 15.7677C2.66377 17.3079 2.41653 18.5725 2.42199 18.578C2.42747 18.5834 3.69207 18.3362 5.23223 18.0286L8.0325 17.4692L13.3497 12.1534C17.2723 8.23179 18.6818 6.81019 18.7238 6.73298C18.8049 6.58404 18.8162 6.37768 18.7527 6.20548C18.7079 6.08385 18.6405 6.01377 16.8134 4.18662C15.0066 2.37987 14.915 2.29173 14.799 2.24937C14.661 2.19897 14.4775 2.1925 14.3615 2.23398Z" fill="currentColor"/>
</svg>
