<svg width="21" height="21" viewBox="0 0 21 21" fill="none" xmlns="http://www.w3.org/2000/svg">
<path fill-rule="evenodd" clip-rule="evenodd" d="M15.7116 1.40808C15.3988 1.44695 15.0644 1.5735 14.7851 1.7588C14.5969 1.88358 14.7793 1.70485 9.0801 7.35001C8.02483 8.39528 7.13393 9.28831 7.10031 9.33451C7.06671 9.38071 7.02393 9.46576 7.00524 9.52351C6.94781 9.70113 6.2735 13.8094 6.27278 13.986C6.2719 14.2024 6.33223 14.3533 6.47789 14.499C6.60721 14.6283 6.72903 14.6926 6.90266 14.7232C7.02101 14.744 7.14401 14.7244 9.21009 14.3545C11.1416 14.0087 11.4073 13.9566 11.5216 13.9011C11.6377 13.8448 12.0214 13.4689 15.3246 10.1754C17.3452 8.16067 19.0505 6.44797 19.1142 6.36939C19.4491 5.95628 19.598 5.53811 19.5989 5.00851C19.5997 4.49199 19.452 4.06781 19.1329 3.67003C19.0656 3.58614 18.6383 3.14835 18.1835 2.69714C17.3033 1.82398 17.1719 1.71399 16.842 1.57358C16.502 1.42891 16.0621 1.3645 15.7116 1.40808ZM3.16745 2.81449C2.67508 2.89759 2.18034 3.19089 1.86606 3.58603C1.65929 3.84601 1.51645 4.1411 1.43516 4.47626C1.39975 4.62217 1.39736 4.97816 1.39091 11.0565C1.38608 15.6244 1.39076 17.5415 1.40714 17.6864C1.46513 18.1994 1.68504 18.6533 2.04275 18.9982C2.39807 19.3408 2.81654 19.5366 3.31363 19.5929C3.45863 19.6093 5.37253 19.6139 9.9435 19.6091C16.0195 19.6026 16.3779 19.6002 16.5237 19.5648C17.1077 19.4233 17.5602 19.1038 17.8838 18.6044C17.9923 18.437 18.0654 18.2758 18.1402 18.039L18.1965 17.8605L18.2023 15.1485L18.2081 12.4364L18.1621 12.3135C18.0982 12.1423 17.9078 11.9526 17.7345 11.8874C17.5628 11.8228 17.3007 11.832 17.1488 11.908C16.9882 11.9884 16.8721 12.1038 16.7955 12.2594L16.7265 12.3996L16.716 15.004L16.7055 17.6085L16.6555 17.7192C16.5883 17.8679 16.4128 18.0276 16.27 18.07C16.1747 18.0984 15.4344 18.102 9.79347 18.102H3.42457L3.30748 18.0582C3.15122 17.9997 3.00027 17.8488 2.9418 17.6925L2.898 17.5754V11.196C2.898 4.01174 2.88023 4.71178 3.0678 4.50652C3.1304 4.43804 3.21314 4.37511 3.28083 4.34453L3.3915 4.29451L5.99596 4.28401L8.60042 4.27351L8.7406 4.20448C8.89616 4.12789 9.01162 4.01181 9.09201 3.8512C9.16803 3.69928 9.17725 3.43725 9.11259 3.26551C9.04764 3.09291 8.85763 2.90183 8.68795 2.83841L8.56642 2.79301L5.91595 2.79549C4.45821 2.79683 3.22138 2.8054 3.16745 2.81449ZM15.7421 2.94862C15.5954 3.01027 15.9982 2.6186 11.671 6.90661C9.88312 8.67824 8.41566 10.1477 8.40991 10.1721C8.37635 10.3146 7.93894 13.0279 7.94806 13.0371C7.95415 13.0431 8.60405 12.9326 9.39231 12.7915L10.8255 12.5349L14.4022 8.96071C17.0871 6.27764 17.9928 5.36032 18.0348 5.28151C18.0818 5.19327 18.0907 5.14969 18.0911 5.00851C18.0914 4.87024 18.0822 4.82228 18.039 4.73754C18.0007 4.66243 17.7663 4.4154 17.1722 3.82404C16.2738 2.92972 16.2565 2.91611 16.002 2.90353C15.8937 2.89818 15.84 2.90748 15.7421 2.94862Z" fill="currentColor"/>
</svg>
