<svg width="21" height="21" viewBox="0 0 21 21" fill="none" xmlns="http://www.w3.org/2000/svg">
<path fill-rule="evenodd" clip-rule="evenodd" d="M16.1977 0.726122C15.8702 0.781121 15.5493 0.916886 15.246 1.1288C15.0833 1.24245 12.3157 4.00223 12.1766 4.1895C11.9839 4.44888 11.8437 4.7337 11.7734 5.0085C11.6905 5.33222 11.6904 5.79516 11.773 6.1215C11.8543 6.44222 12.0594 6.81501 12.3046 7.0875C12.5 7.30469 12.5475 7.41767 12.5475 7.665C12.5475 7.83395 12.5396 7.88059 12.4962 7.9695C12.4556 8.05258 11.9928 8.5276 10.2807 10.2435C9.07475 11.4522 8.07897 12.4337 8.03174 12.4603C7.89747 12.5359 7.76424 12.5647 7.60254 12.5532C7.41526 12.5398 7.28294 12.4746 7.0771 12.2942C6.6302 11.9026 6.15173 11.7168 5.58776 11.7158C5.28465 11.7152 5.10619 11.7429 4.85039 11.83C4.61869 11.909 4.42772 12.011 4.22328 12.1652C4.01568 12.3218 1.30498 15.0083 1.15907 15.2021C0.626593 15.9092 0.547591 16.8234 0.951295 17.6062C1.11333 17.9204 1.25273 18.0807 1.89903 18.6963C2.12921 18.9155 2.42216 19.1725 2.55003 19.2674C3.28221 19.8108 4.06471 20.1292 5.0085 20.2676C5.2988 20.3102 6.06345 20.3043 6.3735 20.2572C7.05404 20.1536 7.74618 19.9097 8.3055 19.5765C8.47849 19.4735 9.1637 18.9977 9.6705 18.6287C13.3656 15.9384 16.6155 12.6105 19.2187 8.8515C19.6178 8.27508 19.74 8.06113 19.9179 7.62674C20.2094 6.91478 20.339 6.13194 20.2914 5.37038C20.2212 4.24849 19.8468 3.27168 19.1547 2.4045C18.934 2.12798 18.1274 1.30331 17.9388 1.16128C17.4331 0.78047 16.8066 0.623873 16.1977 0.726122ZM16.3448 2.23522C16.2966 2.25032 16.2257 2.28228 16.1873 2.30627C16.1489 2.33027 15.4882 2.98116 14.719 3.7527C13.1381 5.33858 13.2207 5.23869 13.2199 5.565C13.2194 5.78987 13.2739 5.91673 13.4585 6.1205C13.7315 6.42172 13.9327 6.79861 14.0205 7.17297C14.0504 7.30074 14.0592 7.41773 14.058 7.6755C14.0568 7.9681 14.0495 8.03761 14.0022 8.2135C13.9723 8.32459 13.9139 8.48888 13.8725 8.57855C13.6909 8.97162 13.7161 8.94424 11.3303 11.3324C8.95358 13.7113 8.9754 13.6911 8.60313 13.8599C8.24974 14.0201 7.81433 14.0933 7.45109 14.0535C6.92724 13.9962 6.48698 13.7919 6.07267 13.4141C5.82592 13.189 5.45829 13.1533 5.18221 13.3275C5.10703 13.3749 2.50332 15.9399 2.35716 16.1105C2.2538 16.2312 2.21552 16.3553 2.21575 16.569C2.21608 16.8806 2.23003 16.9024 2.76838 17.4342C3.39954 18.0578 3.59379 18.2063 4.08177 18.4385C4.38093 18.5809 4.64543 18.6686 4.97796 18.7355C5.1838 18.777 5.28208 18.7839 5.6595 18.7838C6.13092 18.7836 6.28332 18.7641 6.66603 18.6545C7.14018 18.5188 7.41039 18.3791 8.0325 17.9481C11.8394 15.3104 15.2216 11.9422 17.8772 8.14412C18.2144 7.66186 18.299 7.52781 18.4181 7.28675C18.8373 6.43888 18.9092 5.41122 18.6128 4.5045C18.494 4.14127 18.2447 3.67834 18.0082 3.38191C17.8771 3.21758 17.1279 2.43735 17.0153 2.34785C16.8511 2.21735 16.5589 2.1683 16.3448 2.23522Z" fill="currentColor"/>
</svg>
