<svg width="21" height="21" viewBox="0 0 21 21" fill="none" xmlns="http://www.w3.org/2000/svg">
<path fill-rule="evenodd" clip-rule="evenodd" d="M13.3875 0.724857C12.8181 0.830109 12.3057 1.15769 11.9912 1.61744C11.9476 1.68122 11.4325 2.52227 10.8465 3.48644C10.2605 4.45063 9.77787 5.24299 9.77402 5.24723C9.77018 5.25147 8.41549 5.55582 6.76359 5.92355C4.74259 6.37344 3.70966 6.61235 3.60582 6.65393C3.20144 6.81587 2.87804 7.13645 2.71893 7.53314C2.57329 7.89623 2.57056 8.34005 2.71174 8.70215C2.83176 9.00997 2.81693 8.99384 4.9016 11.0829L6.87686 13.0623L3.84058 16.1019C0.429862 19.5164 0.705719 19.2129 0.70511 19.551C0.704837 19.7022 0.713762 19.7491 0.763448 19.8578C0.836948 20.0186 0.980084 20.1611 1.14449 20.2373C1.25149 20.2868 1.29741 20.2955 1.44899 20.2951C1.78718 20.2941 1.48383 20.5698 4.89933 17.1591L7.9402 14.1225L9.78811 15.9761C10.8045 16.9955 11.6827 17.8665 11.7398 17.9116C12.0155 18.1295 12.2849 18.2274 12.6534 18.2434C13.1304 18.2641 13.4927 18.1282 13.8356 17.8C14.0468 17.5979 14.1699 17.3957 14.2591 17.1045C14.2803 17.0352 14.6069 15.6791 14.9849 14.091C15.427 12.2333 15.6841 11.1914 15.7058 11.1695C15.7243 11.1509 16.5097 10.6889 17.451 10.1429C18.3923 9.59694 19.2381 9.10085 19.3305 9.04048C19.6394 8.83865 19.8659 8.59433 20.0413 8.274C20.3656 7.68146 20.3889 6.98687 20.1059 6.34691C19.9558 6.00751 19.9533 6.00478 17.4742 3.52575C15.4529 1.50442 15.1052 1.16544 14.9467 1.06155C14.7318 0.920703 14.4842 0.811524 14.2485 0.75369C14.0203 0.697725 13.6088 0.683949 13.3875 0.724857ZM13.5676 2.22818C13.4557 2.26227 13.2991 2.37432 13.2336 2.46712C13.2008 2.51353 12.6551 3.40666 12.0208 4.45187C11.2374 5.74268 10.8372 6.38291 10.773 6.44778C10.721 6.50032 10.6336 6.56498 10.5788 6.59148C10.514 6.62281 9.36713 6.88724 7.30281 7.34683L4.12649 8.05396L4.12017 8.10814C4.11469 8.15514 4.68196 8.73157 8.40417 12.4611C10.7639 14.8255 12.7045 16.7595 12.7167 16.759C12.7999 16.7553 12.8108 16.7142 13.5572 13.5861C14.3641 10.2043 14.3436 10.2778 14.5232 10.1277C14.5746 10.0847 15.4974 9.53753 16.5741 8.91166C17.6506 8.28582 18.5624 7.74438 18.6001 7.70849C18.6378 7.67258 18.6946 7.59377 18.7263 7.53335C18.776 7.43866 18.7839 7.39887 18.7839 7.245C18.784 7.09897 18.7751 7.04932 18.735 6.972C18.6638 6.83464 14.1862 2.35521 14.0412 2.27632C13.9233 2.21212 13.6962 2.18904 13.5676 2.22818Z" fill="currentColor"/>
</svg>
