<svg width="21" height="21" viewBox="0 0 21 21" fill="none" xmlns="http://www.w3.org/2000/svg">
<path fill-rule="evenodd" clip-rule="evenodd" d="M4.94551 2.793L2.44651 2.8035L2.25751 2.86224C2.01689 2.937 1.83937 3.01959 1.6531 3.14341C1.15792 3.47263 0.819824 3.99664 0.724883 4.58206C0.697163 4.75291 0.693173 5.49766 0.693173 10.5C0.693173 16.6841 0.68849 16.4136 0.801092 16.7426C1.05597 17.4874 1.65625 18.0159 2.42842 18.1754C2.56495 18.2036 3.50073 18.2073 10.5 18.2073C17.4993 18.2073 18.4351 18.2036 18.5716 18.1754C19.3438 18.0159 19.944 17.4874 20.1989 16.7426C20.3115 16.4136 20.3068 16.6841 20.3068 10.5C20.3068 4.27109 20.3126 4.58456 20.1917 4.23839C19.9563 3.56482 19.436 3.07155 18.7425 2.86455C18.5793 2.81583 18.5063 2.80697 18.207 2.79945C17.6723 2.78603 7.75163 2.78122 4.94551 2.793ZM2.70342 4.30685C2.49938 4.35492 2.31689 4.51154 2.24688 4.69865C2.20543 4.80947 2.20501 4.86749 2.20501 10.5C2.20501 16.1325 2.20543 16.1905 2.24688 16.3014C2.30009 16.4436 2.43057 16.5799 2.58114 16.6505L2.69851 16.7055L4.70926 16.7113L6.72001 16.717V10.5005V4.284L4.75126 4.2861C3.66845 4.28728 2.74693 4.2966 2.70342 4.30685ZM8.23201 10.5V16.716H10.5H12.768V10.5V4.284H10.5H8.23201V10.5ZM14.28 10.5V16.717L16.2908 16.7113L18.3015 16.7055L18.4189 16.6505C18.5694 16.5799 18.6999 16.4436 18.7531 16.3014C18.7946 16.1905 18.795 16.1325 18.795 10.5C18.795 4.86749 18.7946 4.80947 18.7531 4.69865C18.6999 4.55642 18.5694 4.42015 18.4189 4.34954L18.3015 4.2945L16.2908 4.28875L14.28 4.283V10.5Z" fill="currentColor"/>
</svg>
