<svg width="21" height="21" viewBox="0 0 21 21" fill="none" xmlns="http://www.w3.org/2000/svg">
<path fill-rule="evenodd" clip-rule="evenodd" d="M10.059 0.716878C9.64639 0.759172 9.10938 0.90613 8.72552 1.08182C7.99163 1.41771 7.30604 2.03129 6.87943 2.73399C6.5646 3.25254 6.32637 3.97148 6.28929 4.515C6.28259 4.61318 6.27226 4.73344 6.26633 4.78227L6.25556 4.87104L4.10953 4.87677L1.9635 4.8825L1.83258 4.94298C1.61097 5.04533 1.44908 5.25424 1.4045 5.49543C1.37833 5.63697 1.40836 5.84321 1.47386 5.97156C1.54125 6.10365 1.72277 6.268 1.86276 6.32363C1.98036 6.37035 2.01001 6.37226 2.735 6.37963L3.48551 6.38726L3.49148 12.4599L3.49744 18.5325L3.54526 18.6974C3.76941 19.4704 4.33037 20.0292 5.0925 20.2388L5.3025 20.2965H10.5H15.6975L15.906 20.239C16.5133 20.0716 17.0199 19.6647 17.2841 19.1321C17.3588 18.9815 17.3949 18.8877 17.458 18.6795L17.5026 18.5325L17.5085 12.4599L17.5145 6.38726L18.265 6.37963C18.99 6.37226 19.0196 6.37035 19.1372 6.32363C19.2768 6.26817 19.4587 6.10376 19.5256 5.97257C19.6263 5.77523 19.628 5.48407 19.5296 5.29114C19.457 5.14891 19.3125 5.00997 19.1674 4.94298L19.0365 4.8825L16.8905 4.87677L14.7444 4.87104L14.7337 4.78227C14.7277 4.73344 14.7174 4.61318 14.7107 4.515C14.6808 4.07612 14.5229 3.52714 14.2911 3.0555C13.5107 1.46771 11.8245 0.535921 10.059 0.716878ZM10.059 2.23682C8.97204 2.42661 8.11293 3.2256 7.84646 4.2945C7.81779 4.4095 7.77021 4.74636 7.77006 4.83525C7.77 4.87007 7.91397 4.872 10.5 4.872C13.086 4.872 13.23 4.87007 13.2299 4.83525C13.2298 4.74636 13.1822 4.4095 13.1535 4.2945C12.8439 3.05254 11.7486 2.19685 10.4815 2.20716C10.3358 2.20834 10.1456 2.22167 10.059 2.23682ZM4.982 12.3428L4.9875 18.3015L5.03573 18.4065C5.10354 18.5542 5.25573 18.7023 5.392 18.7533C5.50221 18.7945 5.5651 18.795 10.497 18.795C16.1232 18.795 15.5962 18.8119 15.8005 18.6252C15.869 18.5626 15.9319 18.4799 15.9625 18.4122L16.0125 18.3015L16.018 12.3428L16.0235 6.384H10.5H4.97649L4.982 12.3428Z" fill="currentColor"/>
</svg>
