<svg width="21" height="21" viewBox="0 0 21 21" fill="none" xmlns="http://www.w3.org/2000/svg">
<path fill-rule="evenodd" clip-rule="evenodd" d="M3.09451 4.21058C2.48768 4.30554 1.91729 4.60683 1.47984 5.06345C0.571531 6.01162 0.440092 7.48377 1.166 8.5785C1.57972 9.20241 2.20447 9.63139 2.94 9.7966C3.17937 9.85038 3.72117 9.8621 3.99102 9.81937C5.10745 9.64255 6.038 8.77707 6.29653 7.6751C6.67676 6.05442 5.61357 4.47827 3.95913 4.20993C3.73274 4.1732 3.33135 4.17352 3.09451 4.21058ZM10.0695 4.21054C8.82674 4.40832 7.86307 5.38946 7.6849 6.63833C7.6525 6.86542 7.6702 7.38433 7.71777 7.602C7.92514 8.5509 8.61541 9.35128 9.5094 9.6794C9.87144 9.81229 10.0305 9.8377 10.5 9.8377C10.9695 9.8377 11.1285 9.81229 11.4906 9.6794C12.3828 9.35191 13.0741 8.55044 13.2824 7.602C13.3356 7.35957 13.3479 6.83447 13.306 6.589C13.1508 5.67846 12.6155 4.92737 11.8221 4.50702C11.2922 4.22627 10.6516 4.11791 10.0695 4.21054ZM17.0205 4.21165C15.7201 4.43137 14.7517 5.47243 14.6388 6.7718C14.5643 7.63041 14.8734 8.45434 15.4964 9.05736C15.9157 9.46327 16.4454 9.73009 17.009 9.81937C17.2788 9.8621 17.8206 9.85038 18.06 9.7966C18.7943 9.63167 19.421 9.20138 19.834 8.5785C20.7248 7.23513 20.3037 5.41102 18.9093 4.57237C18.6286 4.40357 18.2279 4.26125 17.8872 4.2094C17.6468 4.1728 17.2442 4.17385 17.0205 4.21165ZM3.19199 5.72424C2.83121 5.81941 2.49463 6.0985 2.33074 6.43834C2.15472 6.80337 2.16495 7.287 2.35634 7.65059C2.45387 7.83583 2.7415 8.11828 2.92017 8.20423C3.15233 8.31591 3.2828 8.34578 3.5385 8.34578C3.70017 8.34578 3.80732 8.33443 3.89549 8.308C4.47012 8.13573 4.87126 7.60376 4.87126 7.014C4.87126 6.41692 4.45 5.87435 3.86966 5.72397C3.7099 5.68255 3.34941 5.6827 3.19199 5.72424ZM10.1686 5.72143C9.72925 5.82779 9.32622 6.22893 9.20747 6.678C9.1511 6.89119 9.15969 7.21253 9.22748 7.42513C9.34976 7.80876 9.67285 8.14373 10.0476 8.27547C10.539 8.44819 11.0614 8.33252 11.4295 7.9695C11.7043 7.69853 11.8259 7.41306 11.8276 7.035C11.8294 6.63234 11.7174 6.35985 11.4334 6.07628C11.2967 5.93983 11.2262 5.88798 11.0857 5.82092C10.9888 5.77464 10.8594 5.72649 10.7982 5.71389C10.6512 5.68365 10.3076 5.68776 10.1686 5.72143ZM17.1045 5.72947C16.4355 5.93031 16.0278 6.58331 16.1507 7.25688C16.2409 7.75066 16.6129 8.16064 17.1045 8.308C17.2774 8.35984 17.6457 8.35989 17.8173 8.30812C18.0654 8.23326 18.2078 8.14762 18.3974 7.95925C18.6048 7.75311 18.7075 7.57337 18.7647 7.31617C18.8153 7.08886 18.799 6.78367 18.7251 6.57348C18.596 6.20638 18.2741 5.88344 17.9072 5.75301C17.7228 5.68749 17.2869 5.6747 17.1045 5.72947ZM3.3285 11.1541C2.51876 11.2066 1.76324 11.6171 1.26982 12.2727C0.650848 13.095 0.525709 14.1631 0.936301 15.1193C1.20329 15.741 1.74474 16.2918 2.36039 16.5681C4.14943 17.3707 6.19201 16.1761 6.36119 14.2282C6.43574 13.3696 6.1266 12.5456 5.50361 11.9426C4.91591 11.3737 4.16119 11.1001 3.3285 11.1541ZM17.2515 11.1547C16.0333 11.2372 14.9835 12.1312 14.7035 13.3249C14.4205 14.5311 14.9442 15.7774 16.002 16.4149C16.7956 16.8931 17.7868 16.9507 18.6396 16.5681C19.2579 16.2906 19.7969 15.7402 20.0678 15.1096C20.5573 13.9705 20.2642 12.6667 19.3345 11.8474C18.7641 11.3448 18.0334 11.1018 17.2515 11.1547ZM10.122 11.1636C9.92943 11.1976 9.64637 11.2701 9.5094 11.3204C8.61457 11.6496 7.92514 12.4491 7.71777 13.398C7.6702 13.6157 7.6525 14.1346 7.6849 14.3617C7.77146 14.9685 8.06601 15.5591 8.49636 15.989C9.60777 17.0989 11.3922 17.0989 12.5036 15.989C12.9277 15.5654 13.2008 15.0284 13.306 14.411C13.3479 14.1655 13.3356 13.6404 13.2824 13.398C13.0759 12.4579 12.396 11.6621 11.5142 11.3283C11.1858 11.2041 10.9801 11.1678 10.563 11.1608C10.3493 11.1572 10.1509 11.1585 10.122 11.1636ZM3.30031 12.6641C3.14989 12.6911 2.93302 12.7789 2.79843 12.8674C2.64012 12.9716 2.42774 13.2103 2.34332 13.3791C2.13141 13.8026 2.16459 14.3413 2.42615 14.7241C2.58877 14.9621 2.83579 15.1558 3.09281 15.2468C3.27555 15.3115 3.67231 15.3277 3.86221 15.2782C4.45107 15.1246 4.87126 14.5865 4.87126 13.986C4.87126 13.4009 4.46831 12.8623 3.90599 12.6958C3.76345 12.6536 3.45059 12.6372 3.30031 12.6641ZM10.2202 12.6762C9.75645 12.7757 9.37194 13.1236 9.2271 13.5749C9.15904 13.7869 9.15058 14.1075 9.2074 14.322C9.30232 14.6803 9.58339 15.0211 9.91428 15.1791C10.1275 15.2809 10.2543 15.309 10.5 15.309C10.7457 15.309 10.8725 15.2809 11.0857 15.1791C11.4166 15.021 11.6978 14.6801 11.7925 14.322C11.8489 14.1088 11.8403 13.7875 11.7725 13.5749C11.5653 12.9248 10.8883 12.5328 10.2202 12.6762ZM17.2725 12.6552C16.617 12.7568 16.1265 13.3313 16.1284 13.9951C16.1301 14.5845 16.5542 15.1267 17.1303 15.276C17.3164 15.3242 17.6308 15.3192 17.8325 15.2648C18.2813 15.1437 18.6554 14.7539 18.7637 14.2946C18.8075 14.1089 18.8032 13.8359 18.7535 13.6415C18.691 13.3971 18.6003 13.2445 18.3964 13.0407C18.2096 12.8541 18.0665 12.7672 17.829 12.6962C17.712 12.6612 17.3879 12.6374 17.2725 12.6552Z" fill="currentColor"/>
</svg>
