<svg width="21" height="21" viewBox="0 0 21 21" fill="none" xmlns="http://www.w3.org/2000/svg">
<path fill-rule="evenodd" clip-rule="evenodd" d="M16.6005 2.09348C16.4015 2.10161 16.1349 2.14163 15.9142 2.19649C14.9712 2.4308 14.1814 3.03254 13.6844 3.89549C13.4949 4.22435 13.3255 4.71735 13.2694 5.10299C13.2423 5.28926 13.233 5.75806 13.251 6.0247L13.2615 6.17991L10.3072 7.32909C8.68234 7.96113 7.31528 8.49331 7.26929 8.51171L7.18571 8.54516L7.06394 8.38334C6.58541 7.74733 5.87468 7.26891 5.124 7.07747C4.56187 6.93411 3.90232 6.93436 3.33566 7.0781C2.95967 7.17349 2.52233 7.37844 2.1945 7.61287C1.39501 8.18459 0.887835 9.00765 0.732456 9.98549C0.698058 10.2019 0.698058 10.7981 0.732456 11.0145C0.937395 12.3042 1.78015 13.3489 2.98737 13.8095C3.63841 14.058 4.42886 14.0998 5.124 13.9225C5.87468 13.7311 6.58541 13.2527 7.06394 12.6166L7.18571 12.4548L7.26929 12.4883C7.31528 12.5067 8.68234 13.0388 10.3072 13.6709L13.2615 14.8201L13.251 14.9753C13.233 15.2419 13.2423 15.7107 13.2694 15.897C13.4521 17.1528 14.3443 18.2482 15.546 18.6921C15.9438 18.839 16.3134 18.9027 16.7685 18.9027C17.5849 18.9027 18.3164 18.652 18.9525 18.1541C19.6561 17.6033 20.122 16.8 20.2676 15.8865C20.3017 15.6724 20.3015 15.0764 20.2672 14.8575C20.1458 14.0831 19.8058 13.4176 19.2478 12.8621C18.5855 12.2027 17.7146 11.8445 16.7735 11.8441C16.0121 11.8438 15.3185 12.0666 14.691 12.5131C14.4777 12.6648 14.1129 13.0235 13.9468 13.2449L13.8174 13.4173L13.6969 13.3712C13.6307 13.3459 12.2629 12.8142 10.6575 12.1897L7.7385 11.0543L7.749 10.8979C7.75477 10.8119 7.7595 10.6328 7.7595 10.5C7.7595 10.3672 7.75477 10.1881 7.749 10.1021L7.7385 9.94567L10.6575 8.81025C12.2629 8.18577 13.6307 7.65409 13.6969 7.62874L13.8174 7.58265L13.9468 7.75508C14.1129 7.97644 14.4777 8.33516 14.691 8.48693C15.3185 8.93335 16.0121 9.15616 16.7735 9.15589C17.7184 9.15553 18.5928 8.79387 19.2581 8.12819C19.8076 7.57839 20.1467 6.9109 20.2672 6.14249C20.3015 5.92363 20.3017 5.32756 20.2676 5.11349C20.1454 4.34644 19.8312 3.71311 19.3002 3.16343C18.5987 2.43717 17.6258 2.05161 16.6005 2.09348ZM16.417 3.62415C15.7516 3.74448 15.1775 4.19333 14.9136 4.79952C14.7804 5.10547 14.753 5.24692 14.753 5.62799C14.753 5.92684 14.7597 5.99755 14.8013 6.14211C15.0235 6.91392 15.6362 7.48109 16.402 7.62385C16.5765 7.65638 16.961 7.6563 17.136 7.62368C17.8361 7.49329 18.4457 6.97331 18.6779 6.30847C18.7715 6.04066 18.8014 5.83576 18.7892 5.54552C18.7756 5.22034 18.7254 5.01966 18.5864 4.73469C18.1896 3.92117 17.2981 3.4648 16.417 3.62415ZM3.97425 8.48401C3.29786 8.57904 2.72263 8.98841 2.42508 9.58649C2.27289 9.89244 2.22425 10.0834 2.21125 10.4265C2.20292 10.6463 2.20897 10.7384 2.24225 10.8992C2.40078 11.665 2.97137 12.267 3.7275 12.4661C3.90633 12.5132 3.98114 12.5213 4.2315 12.5213C4.48186 12.5213 4.55666 12.5132 4.7355 12.4661C5.31006 12.3148 5.77645 11.9376 6.03703 11.4135C6.2148 11.0559 6.24697 10.916 6.24697 10.5C6.24697 10.084 6.2148 9.94406 6.03703 9.58649C5.71015 8.92898 5.06205 8.50944 4.32064 8.47542C4.20231 8.47 4.04642 8.47387 3.97425 8.48401ZM16.6215 13.3486C15.867 13.4185 15.244 13.8485 14.9318 14.5147C14.7811 14.8364 14.7525 14.9759 14.7541 15.3825C14.7554 15.7067 14.7606 15.7562 14.8113 15.9219C15.0486 16.6984 15.6541 17.2412 16.4348 17.3773C17.1522 17.5024 17.9108 17.2082 18.364 16.629C18.5095 16.4429 18.6737 16.1134 18.7337 15.8865C18.7975 15.6457 18.8115 15.2459 18.7644 15.0135C18.6113 14.2576 18.1173 13.6904 17.3985 13.4448C17.1895 13.3733 16.8318 13.3291 16.6215 13.3486Z" fill="currentColor"/>
</svg>
