<svg width="21" height="21" viewBox="0 0 21 21" fill="none" xmlns="http://www.w3.org/2000/svg">
<path fill-rule="evenodd" clip-rule="evenodd" d="M13.8124 0.715198C11.9036 0.884689 10.1948 1.95493 9.20396 3.60148C8.67605 4.4788 8.39719 5.43486 8.36482 6.47848C8.3127 8.1598 8.92361 9.70484 10.1094 10.8906C11.2946 12.0758 12.8428 12.688 14.5215 12.6353C15.2561 12.6122 15.9009 12.4793 16.548 12.2173C18.7606 11.3218 20.2134 9.2538 20.2994 6.87748C20.4146 3.69321 17.9936 0.972868 14.8147 0.714736C14.5148 0.690376 14.0897 0.690565 13.8124 0.715198ZM13.818 2.22814C13.0225 2.31756 12.1839 2.66639 11.55 3.17153C11.3279 3.34849 10.9246 3.75986 10.7681 3.96898C10.1694 4.76933 9.87036 5.66444 9.8701 6.65753C9.86996 7.21713 9.92723 7.58256 10.0939 8.08498C10.5752 9.53635 11.7836 10.6489 13.272 11.0111C13.9577 11.1779 14.7873 11.1715 15.4636 10.9942C16.0225 10.8476 16.6214 10.5517 17.073 10.199C17.4089 9.93661 17.834 9.47722 18.0621 9.13004C18.3461 8.69774 18.6102 8.06026 18.7084 7.57048C18.9628 6.3 18.6652 4.9942 17.8849 3.95848C17.7206 3.74037 17.2572 3.27764 17.0356 3.11037C16.3976 2.62884 15.6099 2.31521 14.8155 2.22644C14.5946 2.20177 14.0443 2.20269 13.818 2.22814ZM13.4085 3.51979C13.2431 3.55553 12.9922 3.65799 12.8138 3.76253C12.6325 3.86889 12.3135 4.1995 12.2031 4.39553C11.7364 5.22444 11.9476 6.245 12.7007 6.80018C13.0017 7.02213 13.1005 7.05531 14.1225 7.27787C14.8867 7.44427 14.9706 7.46838 15.0542 7.54524C15.1224 7.60788 15.2035 7.78548 15.2038 7.87254C15.2043 8.0481 15.1024 8.2165 14.9447 8.30084C14.863 8.34454 14.8266 8.3479 14.3684 8.35414C13.8072 8.36176 13.7305 8.34792 13.6032 8.21583C13.5617 8.17274 13.4982 8.0745 13.4622 7.99754C13.3806 7.82336 13.2573 7.69722 13.0928 7.61987C12.9112 7.53447 12.7479 7.52187 12.5604 7.57882C12.348 7.64335 12.2139 7.75757 12.1086 7.96368C12.0346 8.10858 12.0268 8.13889 12.0283 8.27778C12.0326 8.68797 12.3648 9.21066 12.816 9.51705C12.9722 9.6231 13.2408 9.74782 13.4139 9.79467C13.7988 9.89883 14.8751 9.89363 15.2633 9.78571C16.5602 9.42524 17.1225 7.87884 16.3585 6.77378C16.1258 6.43711 15.7517 6.15103 15.3876 6.03141C15.2809 5.99632 14.8538 5.89371 14.4385 5.80337C13.6412 5.62989 13.5984 5.61507 13.5069 5.48048C13.4112 5.33967 13.4756 5.11161 13.6359 5.02392C13.6944 4.99193 13.7704 4.98748 14.259 4.98748C14.9873 4.98748 15.0263 5.00132 15.1847 5.31632C15.2933 5.53226 15.3818 5.62718 15.5555 5.7137C15.6847 5.77811 15.7145 5.78454 15.8865 5.78498C16.0478 5.78542 16.0924 5.7774 16.191 5.73036C16.3624 5.64852 16.4735 5.54104 16.5524 5.38066C16.6161 5.25099 16.6214 5.22468 16.6207 5.0403C16.6197 4.80484 16.5687 4.65839 16.3952 4.39266C16.1899 4.07818 15.9139 3.83571 15.5776 3.67433C15.2277 3.50646 15.1877 3.5007 14.322 3.49398C13.6995 3.48913 13.5279 3.49398 13.4085 3.51979ZM1.30656 10.4597C0.903315 10.5293 0.632877 10.9335 0.713307 11.3462C0.727272 11.4178 0.758226 11.5096 0.782103 11.55C0.874125 11.7058 1.05252 11.8591 1.20574 11.9142C1.25061 11.9303 1.9185 11.9411 3.381 11.9492L5.4915 11.961L5.6805 12.0163C5.92336 12.0874 6.11911 12.176 6.30729 12.3C6.49648 12.4247 8.26243 14.1783 8.34343 14.322C8.54734 14.6836 8.3987 15.1487 8.022 15.3276C7.92263 15.3748 7.87863 15.3825 7.707 15.3825C7.40086 15.3825 7.40011 15.382 6.678 14.6675C6.31932 14.3127 6.02314 14.0368 5.9745 14.0122C5.58957 13.818 5.12377 13.9813 4.94174 14.3745C4.89235 14.4812 4.88344 14.5278 4.88359 14.679C4.88393 14.9937 4.89359 15.0072 5.66628 15.7749C6.36103 16.4652 6.47734 16.5614 6.79503 16.7082C6.88384 16.7492 7.04741 16.8071 7.1585 16.8368C7.33322 16.8834 7.40588 16.891 7.6965 16.8926C7.94993 16.894 8.07378 16.8852 8.2005 16.8566C8.35922 16.8207 8.54419 16.819 11.55 16.8256C15.0115 16.8332 14.7651 16.8247 15.057 16.9474C15.4651 17.1191 15.8286 17.5223 15.9481 17.936C15.9994 18.1133 16.0238 18.3726 15.9994 18.4809C15.972 18.603 15.8907 18.7063 15.7839 18.7548C15.7004 18.7928 15.5443 18.7941 11.067 18.7944C7.96683 18.7946 6.39139 18.7875 6.3 18.7729C6.10359 18.7415 5.78798 18.6284 5.61689 18.5281C5.53153 18.478 4.7124 17.8111 3.67439 16.9465C2.6872 16.1242 1.83567 15.4292 1.7821 15.402C1.44658 15.232 1.03923 15.342 0.825846 15.6603C0.632562 15.9486 0.656817 16.3105 0.886221 16.5614C0.982149 16.6663 4.24822 19.398 4.515 19.5965C5.0409 19.9877 5.62888 20.2168 6.28343 20.2856C6.41569 20.2994 8.12043 20.3069 11.1344 20.3067C15.5843 20.3064 15.7895 20.3048 15.971 20.2673C16.5798 20.1417 17.098 19.7338 17.3472 19.1842C17.4592 18.9372 17.4965 18.7664 17.5081 18.4485C17.5501 17.2928 16.8929 16.1946 15.8397 15.6602C15.4355 15.4552 15.1021 15.3635 14.6377 15.3295C14.493 15.3189 13.3572 15.3099 12.1137 15.3096L9.85299 15.309L9.88279 15.1948C9.9268 15.0263 9.94715 14.7069 9.92869 14.4742C9.89743 14.0803 9.73684 13.6625 9.49297 13.3405C9.3299 13.1252 7.51111 11.3166 7.30745 11.1672C6.80877 10.8014 6.32302 10.5936 5.712 10.4848C5.56231 10.4581 5.20124 10.4519 3.4755 10.4467C2.29816 10.4432 1.37002 10.4487 1.30656 10.4597Z" fill="currentColor"/>
</svg>
