<svg width="21" height="21" viewBox="0 0 21 21" fill="none" xmlns="http://www.w3.org/2000/svg">
<path fill-rule="evenodd" clip-rule="evenodd" d="M10.3005 0.721115C10.2543 0.736424 10.1857 0.765005 10.1479 0.784661C10.1102 0.804317 9.59994 1.20351 9.01398 1.67174C8.428 2.14 7.85083 2.58825 7.73141 2.66784C7.24599 2.99138 6.68094 3.23192 6.10061 3.36203C5.68193 3.4559 5.49488 3.46878 4.305 3.48547C3.07321 3.50273 3.10034 3.5003 2.77137 3.62369C2.11212 3.87099 1.60306 4.46033 1.43628 5.16925C1.40432 5.30518 1.39896 5.49181 1.39117 6.741C1.37853 8.77104 1.41677 9.42108 1.60613 10.395C2.06533 12.7571 3.2389 14.929 4.95913 16.6005C5.49818 17.1243 5.98406 17.516 6.6255 17.944C7.70849 18.6665 8.75912 19.1499 10.038 19.514C10.4468 19.6304 10.5532 19.6304 10.962 19.514C12.2394 19.1503 13.2913 18.6663 14.3745 17.9439C15.3821 17.2718 16.2093 16.5191 16.97 15.582C18.1968 14.0708 19.023 12.3028 19.3939 10.395C19.5827 9.42398 19.621 8.77394 19.6087 6.7515C19.601 5.49183 19.5958 5.30531 19.5637 5.16925C19.3737 4.36172 18.7938 3.76941 17.9655 3.53688C17.8581 3.50674 17.6702 3.49914 16.695 3.48547C15.5051 3.46878 15.3181 3.4559 14.8994 3.36203C14.3191 3.23192 13.754 2.99138 13.2686 2.66784C13.1492 2.58825 12.5697 2.13817 11.981 1.66773C11.3013 1.12459 10.8686 0.793145 10.7957 0.759755C10.6581 0.696755 10.4282 0.678821 10.3005 0.721115ZM9.702 3.04804C9.26888 3.39525 8.8389 3.73317 8.7465 3.79898C8.01134 4.32259 7.20914 4.67334 6.342 4.85028C5.82595 4.9556 5.75667 4.96041 4.5465 4.97456C3.40144 4.98796 3.39058 4.9885 3.28442 5.03626C3.15903 5.09268 3.02659 5.22181 2.95752 5.355L2.9085 5.4495V7.14C2.9085 8.86105 2.91241 8.9713 2.9945 9.5655C3.16684 10.8131 3.60938 12.1236 4.22329 13.2044C5.53663 15.5164 7.67231 17.2281 10.1903 17.9866L10.5 18.0799L10.8098 17.9866C13.7929 17.0879 16.2272 14.8486 17.3731 11.949C17.6829 11.165 17.895 10.3657 18.0055 9.5655C18.0876 8.9713 18.0915 8.86105 18.0915 7.14V5.4495L18.0425 5.355C17.9734 5.22181 17.841 5.09268 17.7156 5.03626C17.6094 4.9885 17.5986 4.98796 16.4535 4.97456C15.2433 4.96041 15.1741 4.9556 14.658 4.85028C13.8017 4.67556 12.9962 4.32553 12.2745 3.81467C12.1937 3.75744 11.7623 3.41909 11.316 3.0628C10.8697 2.70652 10.5012 2.41539 10.497 2.41588C10.4929 2.41636 10.1351 2.70085 9.702 3.04804Z" fill="currentColor"/>
</svg>
