<svg width="21" height="21" viewBox="0 0 21 21" fill="none" xmlns="http://www.w3.org/2000/svg">
<path fill-rule="evenodd" clip-rule="evenodd" d="M3.26549 1.40998C2.78714 1.47076 2.32371 1.70512 1.99054 2.05481C1.65885 2.40293 1.46703 2.81161 1.40775 3.29646C1.37751 3.54386 1.37751 17.4561 1.40775 17.7035C1.53066 18.7089 2.29109 19.4693 3.29645 19.5922C3.54385 19.6225 17.4561 19.6225 17.7035 19.5922C18.7089 19.4693 19.4693 18.7089 19.5922 17.7035C19.6225 17.4561 19.6225 3.54386 19.5922 3.29646C19.4693 2.2911 18.7089 1.53067 17.7035 1.40776C17.4794 1.38035 3.48175 1.38252 3.26549 1.40998ZM3.30149 2.94284C3.15132 3.00054 2.99879 3.15517 2.9418 3.30748L2.89799 3.42458V10.5V17.5754L2.9418 17.6925C3.00027 17.8488 3.15121 17.9997 3.30747 18.0582L3.42457 18.102H7.98079H12.537V10.5V2.898L7.97474 2.89909C3.44101 2.90019 3.4118 2.90046 3.30149 2.94284ZM14.028 10.5V18.102H15.8017C17.5485 18.102 17.5772 18.1013 17.6925 18.0582C17.8488 17.9997 17.9997 17.8488 18.0582 17.6925L18.102 17.5754V10.5V3.42458L18.0582 3.30748C17.9997 3.15122 17.8488 3.00027 17.6925 2.94181C17.5772 2.89867 17.5485 2.898 15.8017 2.898H14.028V10.5ZM5.4395 6.29093C5.20947 6.35422 5.041 6.49744 4.93783 6.71748L4.88249 6.8355V10.5004V14.1654L4.95152 14.3056C5.14182 14.6921 5.59994 14.8419 5.97449 14.64C6.03225 14.6089 7.04373 13.7797 8.22223 12.7973C10.5187 10.8831 10.4643 10.933 10.5304 10.6791C10.5711 10.5231 10.5711 10.4769 10.5304 10.3209C10.4643 10.067 10.5181 10.1163 8.23273 8.21209C7.06001 7.23494 6.0704 6.41424 6.03363 6.38829C5.88102 6.28062 5.62778 6.23912 5.4395 6.29093ZM6.38399 10.5V12.3692L7.49699 11.4416C8.10915 10.9315 8.60999 10.5077 8.60999 10.5C8.60999 10.4923 8.10915 10.0685 7.49699 9.55836L6.38399 8.63077V10.5Z" fill="currentColor"/>
</svg>
