<svg width="21" height="21" viewBox="0 0 21 21" fill="none" xmlns="http://www.w3.org/2000/svg">
<path fill-rule="evenodd" clip-rule="evenodd" d="M3.26549 1.40998C2.78714 1.47076 2.32371 1.70512 1.99054 2.05481C1.65885 2.40293 1.46703 2.81161 1.40775 3.29646C1.37751 3.54386 1.37751 17.4561 1.40775 17.7035C1.53066 18.7089 2.29109 19.4693 3.29645 19.5922C3.54385 19.6225 17.4561 19.6225 17.7035 19.5922C18.7089 19.4693 19.4693 18.7089 19.5922 17.7035C19.6225 17.4561 19.6225 3.54386 19.5922 3.29646C19.4693 2.2911 18.7089 1.53067 17.7035 1.40776C17.4794 1.38035 3.48175 1.38252 3.26549 1.40998ZM3.30149 2.94284C3.15132 3.00054 2.99879 3.15517 2.9418 3.30748L2.89799 3.42458V10.5V17.5754L2.9418 17.6925C3.00027 17.8488 3.15121 17.9997 3.30747 18.0582C3.42278 18.1013 3.45151 18.102 5.19829 18.102H6.97199V10.5V2.898L5.19224 2.89909C3.45525 2.90016 3.40983 2.90121 3.30149 2.94284ZM8.463 10.5V18.102H13.0192H17.5754L17.6925 18.0582C17.8488 17.9997 17.9997 17.8488 18.0582 17.6925L18.102 17.5754V10.5V3.42458L18.0582 3.30748C17.9997 3.15122 17.8488 3.00027 17.6925 2.94181L17.5754 2.898H13.0192H8.463V10.5ZM15.2404 6.27881C15.1853 6.2886 15.0999 6.31613 15.0507 6.33996C15.0015 6.3638 13.9878 7.19448 12.7982 8.18591C10.4797 10.1181 10.5358 10.0667 10.4695 10.3209C10.4289 10.4769 10.4289 10.5231 10.4695 10.6791C10.5357 10.933 10.4819 10.8837 12.7673 12.7879C13.94 13.7651 14.9278 14.5845 14.9625 14.6088C15.1349 14.7299 15.4331 14.7616 15.645 14.6815C15.8114 14.6185 15.9647 14.4758 16.0483 14.3059L16.1175 14.1654V10.5V6.83462L16.0486 6.69467C15.8977 6.3882 15.5708 6.21997 15.2404 6.27881ZM13.5034 9.55542C12.8972 10.0621 12.3985 10.4849 12.3952 10.495C12.3918 10.5051 12.8901 10.9309 13.5025 11.4413L14.616 12.3692V10.5001C14.616 9.47211 14.6136 8.63171 14.6107 8.63258C14.6078 8.63344 14.1095 9.04871 13.5034 9.55542Z" fill="currentColor"/>
</svg>
