<svg width="21" height="21" viewBox="0 0 21 21" fill="none" xmlns="http://www.w3.org/2000/svg">
<path fill-rule="evenodd" clip-rule="evenodd" d="M7.2765 0.714563C5.5024 0.914861 4.0434 2.17453 3.61341 3.87718C3.41634 4.65754 3.44478 5.49597 3.69403 6.25432C4.20851 7.8196 5.59791 8.94768 7.24357 9.13621C7.52382 9.16832 8.17761 9.15077 8.42755 9.10442C9.31915 8.93913 10.0911 8.53753 10.71 7.91693C11.7796 6.84455 12.1917 5.29912 11.8009 3.82639C11.6205 3.14668 11.2771 2.53646 10.7835 2.01843C10.1308 1.33354 9.31184 0.899825 8.379 0.745097C8.14023 0.705491 7.51113 0.688061 7.2765 0.714563ZM7.2765 2.23536C6.63758 2.35884 6.15036 2.6184 5.73619 3.05594C5.24849 3.57117 4.99382 4.21321 4.99506 4.9245C4.9959 5.40414 5.0819 5.76298 5.29589 6.17954C5.79881 7.15864 6.84808 7.73728 7.9485 7.64236C8.5641 7.58927 9.14416 7.32946 9.58295 6.91028C9.98613 6.52512 10.2397 6.08181 10.3763 5.523C10.4415 5.25619 10.4478 4.66683 10.3883 4.389C10.2735 3.85274 10.0214 3.38742 9.63797 3.00403C9.26171 2.62777 8.79867 2.3744 8.274 2.25775C8.06007 2.21018 7.4748 2.19704 7.2765 2.23536ZM14.931 8.38992C14.3186 8.49416 13.8008 8.75979 13.3698 9.19079C12.5042 10.0564 12.2912 11.3396 12.8298 12.4433C13.2447 13.2936 14.019 13.8578 14.9774 14.0081C15.2369 14.0488 15.7747 14.0233 16.0335 13.9579C16.8229 13.7587 17.4488 13.2869 17.8468 12.5913C17.9766 12.3645 18.0655 12.1377 18.1397 11.844C18.1905 11.6433 18.1955 11.5867 18.196 11.214C18.1964 10.8958 18.188 10.7647 18.1583 10.626C17.9075 9.45481 16.9876 8.58104 15.8031 8.38893C15.5767 8.3522 15.1498 8.35268 14.931 8.38992ZM15.036 9.90309C14.6758 9.9977 14.3374 10.2755 14.1795 10.6062C14.0759 10.8231 14.049 10.9468 14.049 11.2068C14.049 11.563 14.1584 11.8416 14.3982 12.0958C14.6496 12.3623 14.9295 12.4991 15.2834 12.5286C15.7117 12.5644 16.1687 12.3568 16.4344 12.006C16.6283 11.75 16.7059 11.5096 16.7036 11.172C16.7011 10.7917 16.5675 10.4954 16.2738 10.2183C16.1095 10.0633 15.9031 9.94881 15.7028 9.90158C15.5373 9.86254 15.1874 9.86334 15.036 9.90309ZM7.29506 10.459C4.2794 10.6308 1.68729 12.7574 0.922426 15.687C0.751612 16.3412 0.704362 16.7636 0.703879 17.6404L0.703501 18.3442L0.772654 18.4848C0.855331 18.6528 1.00668 18.795 1.176 18.8636L1.2915 18.9105L4.83 18.9164C7.22383 18.9203 8.41485 18.9151 8.5118 18.9002C8.70246 18.8708 8.83289 18.8012 8.96219 18.6598C9.10991 18.4981 9.16196 18.3539 9.15214 18.1335C9.13901 17.8396 8.97992 17.5978 8.71912 17.4756L8.5995 17.4195L5.40225 17.414L2.205 17.4085V17.2759C2.205 16.8668 2.3179 16.2315 2.47567 15.7529C3.11247 13.8212 4.72101 12.4127 6.71189 12.0436C7.80931 11.8402 9.01444 11.9871 9.99109 12.4435C10.3523 12.6123 10.4995 12.6343 10.7397 12.5555C10.9239 12.495 11.0839 12.3517 11.1761 12.1643C11.2369 12.0408 11.2449 12.0048 11.2442 11.8555C11.2428 11.5105 11.0912 11.2979 10.7205 11.1209C9.89352 10.7262 9.0393 10.5111 8.0892 10.4584C7.68596 10.4361 7.69805 10.4361 7.29506 10.459ZM14.994 14.6367C13.7876 14.7317 12.6787 15.256 11.8335 16.1308C11.1286 16.8604 10.6808 17.7421 10.5123 18.732C10.4582 19.0497 10.4321 19.5046 10.4585 19.6698C10.4995 19.9264 10.653 20.127 10.8953 20.2406L11.0145 20.2965H15.372H19.7295L19.8578 20.2372C20.0184 20.163 20.1612 20.0195 20.2377 19.8555C20.2943 19.7343 20.2964 19.7175 20.2945 19.4145C20.2902 18.7237 20.1262 18.0573 19.7932 17.3775C19.1694 16.1043 18.04 15.172 16.6648 14.7952C16.1688 14.6593 15.5053 14.5964 14.994 14.6367ZM14.994 16.1522C14.6382 16.1892 14.1832 16.3227 13.8579 16.4855C12.9825 16.9234 12.3081 17.7419 12.0745 18.6501L12.0372 18.795H15.3755C18.5449 18.795 18.7133 18.7931 18.7032 18.7582C18.6973 18.738 18.6819 18.679 18.669 18.627C18.6023 18.3586 18.4136 17.946 18.232 17.6715C17.5201 16.5956 16.2878 16.0174 14.994 16.1522Z" fill="currentColor"/>
</svg>
