<svg width="21" height="21" viewBox="0 0 21 21" fill="none" xmlns="http://www.w3.org/2000/svg">
<path fill-rule="evenodd" clip-rule="evenodd" d="M1.26806 5.59463C1.04639 5.64841 0.861525 5.80461 0.759297 6.02446C0.713832 6.12221 0.70434 6.1732 0.703962 6.32142C0.70308 6.66712 0.275772 6.21044 5.25441 11.1846L9.6705 15.5968L9.85034 15.6842C10.0658 15.7889 10.2593 15.8332 10.5 15.8332C10.7407 15.8332 10.9342 15.7889 11.1497 15.6842L11.3295 15.5968L15.7456 11.1846C20.7242 6.21044 20.2969 6.66712 20.296 6.32142C20.2957 6.17276 20.2862 6.12232 20.2402 6.0233C20.0564 5.62815 19.6262 5.47054 19.2192 5.64929C19.1384 5.68481 18.3401 6.47283 14.8103 10.0019L10.5 14.3111L6.18975 10.0039C2.86442 6.68092 1.85774 5.68651 1.78427 5.65215C1.68809 5.60717 1.50163 5.56347 1.41989 5.56676C1.39547 5.56775 1.32716 5.58029 1.26806 5.59463Z" fill="currentColor"/>
</svg>
