<svg width="21" height="21" viewBox="0 0 21 21" fill="none" xmlns="http://www.w3.org/2000/svg">
<path fill-rule="evenodd" clip-rule="evenodd" d="M10.1662 5.19845C10.0923 5.21449 9.95056 5.2671 9.85118 5.31538L9.6705 5.40316L5.25441 9.81532C0.275772 14.7895 0.70308 14.3328 0.703962 14.6785C0.70434 14.8272 0.71379 14.8776 0.759822 14.9767C0.94395 15.3727 1.38732 15.5335 1.78364 15.3481C1.85793 15.3134 2.84905 14.3344 6.18975 10.996L10.5 6.68882L14.8103 10.996C18.151 14.3344 19.1421 15.3134 19.2164 15.3481C19.6127 15.5335 20.056 15.3727 20.2402 14.9767C20.2862 14.8776 20.2957 14.8272 20.296 14.6785C20.2969 14.3328 20.7242 14.7895 15.7456 9.81532L11.3295 5.40316L11.1497 5.3158C11.0507 5.26773 10.9043 5.21453 10.8242 5.19757C10.6439 5.15939 10.3444 5.15979 10.1662 5.19845Z" fill="currentColor"/>
</svg>
