<svg width="21" height="21" viewBox="0 0 21 21" fill="none" xmlns="http://www.w3.org/2000/svg">
<path fill-rule="evenodd" clip-rule="evenodd" d="M15.5986 9.96324C15.5825 9.88937 15.5299 9.74762 15.4816 9.64824L15.3939 9.46756L10.9817 5.05147C6.0075 0.0728322 6.46419 0.500141 6.11848 0.501023C5.96982 0.501401 5.91938 0.510851 5.82037 0.556883C5.42437 0.741011 5.26351 1.18438 5.4489 1.5807C5.48365 1.65499 6.46263 2.64611 9.80098 5.98681L14.1082 10.2971L9.80098 14.6073C6.46263 17.948 5.48365 18.9391 5.4489 19.0134C5.26351 19.4097 5.42437 19.8531 5.82037 20.0372C5.91938 20.0833 5.96983 20.0927 6.11848 20.0931C6.46419 20.094 6.0075 20.5213 10.9817 15.5427L15.3939 11.1266L15.4812 10.9467C15.5293 10.8478 15.5825 10.7013 15.5995 10.6212C15.6376 10.441 15.6372 10.1415 15.5986 9.96324Z" fill="currentColor"/>
</svg>
