<svg width="21" height="21" viewBox="0 0 21 21" fill="none" xmlns="http://www.w3.org/2000/svg">
<path fill-rule="evenodd" clip-rule="evenodd" d="M15.6053 1.46802C15.5515 1.24634 15.3953 1.06148 15.1755 0.95925C15.0777 0.913785 15.0267 0.904293 14.8785 0.903915C14.5328 0.903033 14.9895 0.475725 10.0153 5.45436L5.60311 9.87045L5.51575 10.0503C5.41107 10.2658 5.36667 10.4593 5.36667 10.7C5.36667 10.9406 5.41107 11.1341 5.51575 11.3496L5.60311 11.5295L10.0153 15.9455C14.9895 20.9242 14.5328 20.4969 14.8785 20.496C15.0272 20.4956 15.0776 20.4862 15.1766 20.4401C15.5718 20.2564 15.7294 19.8261 15.5506 19.4192C15.5151 19.3383 14.7271 18.5401 11.198 15.0102L6.88878 10.7L11.196 6.3897C14.519 3.06437 15.5134 2.0577 15.5478 1.98422C15.5928 1.88804 15.6365 1.70158 15.6332 1.61985C15.6322 1.59542 15.6196 1.52711 15.6053 1.46802Z" fill="currentColor"/>
</svg>
