<svg width="21" height="21" viewBox="0 0 21 21" fill="none" xmlns="http://www.w3.org/2000/svg">
<path fill-rule="evenodd" clip-rule="evenodd" d="M7.53342 0.715848C7.33659 0.762216 7.1352 0.927549 7.035 1.12503L6.9825 1.2285L6.972 2.352L6.9615 3.4755L4.242 3.47962C2.74628 3.48186 1.46108 3.48697 1.386 3.49091C1.20998 3.5002 1.04965 3.57367 0.917852 3.70547C0.802268 3.82105 0.751679 3.91192 0.714131 4.07135C0.636326 4.40187 0.815015 4.76284 1.12938 4.9102L1.2495 4.9665L2.21685 4.97234L3.18419 4.9782L4.91535 6.99775C5.86749 8.10848 6.66307 9.03819 6.6833 9.06377C6.71986 9.10995 6.70736 9.12513 4.81218 11.3364C3.65663 12.6847 2.88454 13.6026 2.85432 13.664C2.81199 13.7501 2.80434 13.7974 2.80395 13.9755C2.80355 14.1617 2.80993 14.1986 2.86025 14.301C2.93866 14.4606 3.06869 14.5886 3.22823 14.6633C3.47998 14.7811 3.79964 14.7395 4.00697 14.5621C4.05489 14.5211 4.90836 13.5376 5.90352 12.3766C7.63607 10.3553 7.71448 10.2672 7.74913 10.304C7.76904 10.3252 8.24043 10.8742 8.79663 11.524C9.35286 12.1738 9.84621 12.7331 9.893 12.767C10.0179 12.8575 10.1708 12.9024 10.3471 12.9003C10.6181 12.8972 10.8691 12.7388 10.9965 12.4905C11.0717 12.344 11.0902 12.0717 11.0361 11.9089C10.9901 11.7703 11.0114 11.7965 9.76962 10.348C9.06682 9.52816 8.71769 9.10562 8.72855 9.088C8.73754 9.07343 9.53266 8.1425 10.4955 7.01925L12.2462 4.977H13.1888C14.0907 4.977 14.1364 4.97513 14.2476 4.93351C14.3916 4.87966 14.5794 4.71246 14.648 4.57703C14.7521 4.37167 14.7522 4.09153 14.6483 3.88647C14.5792 3.7502 14.3918 3.58342 14.2468 3.52918C14.1303 3.48558 14.1173 3.48537 11.2971 3.48562L8.46441 3.48585L8.45845 2.36767L8.45251 1.2495L8.39772 1.134C8.24313 0.808184 7.88238 0.633633 7.53342 0.715848ZM5.19055 4.99598C5.20164 5.02576 7.69499 7.93527 7.71066 7.9367C7.72378 7.93792 10.1986 5.06125 10.2342 5.00342C10.247 4.98271 9.7293 4.97734 7.71694 4.97734C6.25026 4.97734 5.18654 4.98519 5.19055 4.99598ZM14.6768 8.38958C14.1858 8.48742 13.7396 8.81672 13.4961 9.261C13.4387 9.36562 11.8358 13.6927 11.0145 15.96C10.9538 16.1275 10.6561 16.9402 10.3528 17.766C10.0496 18.5918 9.78754 19.3195 9.77051 19.383C9.68157 19.7146 9.86738 20.0836 10.2023 20.2406C10.3026 20.2876 10.3498 20.2964 10.5 20.2959C10.6473 20.2954 10.6991 20.2857 10.7965 20.2406C10.9389 20.1745 11.072 20.0583 11.142 19.9388C11.1705 19.8903 11.4428 19.1713 11.7473 18.341L12.3008 16.8315H15.0268H17.7528L18.3118 18.3554C18.6193 19.1935 18.8918 19.9132 18.9174 19.9546C18.9849 20.0639 19.1192 20.1778 19.2545 20.2406C19.3519 20.2857 19.4037 20.2954 19.551 20.2959C19.7078 20.2964 19.7461 20.2886 19.866 20.2316C20.0375 20.15 20.1466 20.0406 20.2303 19.866C20.288 19.7457 20.2957 19.7083 20.2952 19.551L20.2946 19.3725L19.6377 17.5875C18.7529 15.1832 18.7486 15.1715 17.629 12.117C17.0892 10.6444 16.6168 9.37807 16.5792 9.303C16.3448 8.83543 15.8809 8.48822 15.3566 8.3879C15.1664 8.35151 14.8641 8.35227 14.6768 8.38958ZM14.8843 9.91122C14.8554 9.9339 14.8129 9.9977 14.7896 10.053C14.6917 10.2864 12.8674 15.2894 12.8768 15.2988C12.8825 15.3045 13.8556 15.3068 15.0391 15.3039L17.191 15.2985L16.2228 12.6525C15.1522 9.72636 15.2137 9.87 15.0301 9.87C14.9691 9.87 14.9185 9.88428 14.8843 9.91122Z" fill="currentColor"/>
</svg>
