<svg width="21" height="21" viewBox="0 0 21 21" fill="none" xmlns="http://www.w3.org/2000/svg">
<path fill-rule="evenodd" clip-rule="evenodd" d="M7.455 2.10074C6.07099 2.20465 4.88153 3.09763 4.4008 4.39364C4.26352 4.76377 4.20273 5.07373 4.18553 5.4915C4.12812 6.88563 4.89483 8.16906 6.16453 8.80425C6.87918 9.16176 7.78909 9.25365 8.59354 9.04957C9.27102 8.87771 9.89913 8.49169 10.368 7.959C10.817 7.44906 11.1188 6.79478 11.2157 6.1215C11.2505 5.87983 11.2505 5.35454 11.2157 5.124C11.0392 3.95619 10.3261 2.97822 9.2643 2.44757C8.7347 2.18291 8.06654 2.05483 7.455 2.10074ZM12.9885 2.10107C12.711 2.1231 12.3847 2.19272 12.2492 2.25883C12.1216 2.32111 11.9613 2.48983 11.9014 2.625C11.877 2.68015 11.8552 2.78618 11.8492 2.87967C11.8283 3.20387 11.9736 3.45421 12.27 3.60465C12.4134 3.6774 12.5961 3.69067 12.831 3.64537C13.119 3.58983 13.3809 3.5813 13.6035 3.62019C14.425 3.76371 15.0338 4.32094 15.258 5.1345C15.291 5.25416 15.2983 5.34788 15.2973 5.6385C15.2961 5.96602 15.2913 6.011 15.2384 6.1832C15.0128 6.91917 14.4334 7.45803 13.7013 7.6129C13.4821 7.65929 13.0835 7.65898 12.873 7.61223C12.6541 7.56361 12.4696 7.56708 12.3218 7.62262C12.1633 7.68218 11.9896 7.84132 11.9132 7.99701C11.8608 8.10363 11.8545 8.13912 11.8545 8.3265C11.8545 8.5255 11.8582 8.54339 11.9259 8.66813C12.1077 9.00335 12.4225 9.1252 13.1699 9.14949C13.5729 9.1626 13.7469 9.14601 14.112 9.05972C15.53 8.72452 16.6007 7.53413 16.7888 6.08368C16.8609 5.52867 16.8102 5.02194 16.6289 4.48451C16.1124 2.95357 14.6133 1.97207 12.9885 2.10107ZM7.36602 3.62416C6.68367 3.74754 6.09015 4.22262 5.83913 4.8463C5.7178 5.14777 5.70238 5.23442 5.70192 5.6175C5.70156 5.92828 5.70776 5.99626 5.74984 6.1425C5.8543 6.50547 6.02746 6.8043 6.27944 7.05638C6.90373 7.6809 7.84432 7.83189 8.63035 7.43373C8.84012 7.32749 8.96687 7.2345 9.15232 7.05084C9.56428 6.64287 9.76949 6.1046 9.73724 5.51662C9.71288 5.07272 9.57098 4.70136 9.29298 4.35389C8.83371 3.77988 8.08105 3.49484 7.36602 3.62416ZM7.29506 10.459C4.2794 10.6309 1.68729 12.7574 0.922424 15.687C0.75161 16.3412 0.70436 16.7637 0.703877 17.6404L0.703499 18.3442L0.772652 18.4848C0.855329 18.6528 1.00668 18.795 1.176 18.8637L1.2915 18.9105H7.6965C12.9176 18.9105 14.119 18.9054 14.196 18.883C14.4015 18.8231 14.63 18.6029 14.6997 18.3976C14.7674 18.198 14.7416 17.0162 14.6567 16.4325C14.2139 13.3884 11.7894 10.965 8.74347 10.5219C8.46235 10.481 7.83699 10.4342 7.6545 10.4405C7.6083 10.442 7.44656 10.4504 7.29506 10.459ZM14.4239 10.6438C14.1883 10.7392 14.0155 10.9309 13.9548 11.1638C13.896 11.3895 13.9296 11.5779 14.0637 11.7742C14.1642 11.9214 14.3049 12.0208 14.4873 12.0736C14.5639 12.0958 14.728 12.1429 14.852 12.1784C16.1773 12.5576 17.3736 13.5066 18.0763 14.7361C18.4939 15.4669 18.7464 16.3229 18.7883 17.15L18.8014 17.4076L17.6905 17.4135L16.5795 17.4195L16.4599 17.4756C16.3131 17.5444 16.1705 17.6835 16.0941 17.8324C16.0125 17.9915 15.9995 18.2498 16.0645 18.4222C16.1206 18.5711 16.2859 18.7576 16.4238 18.8274C16.6011 18.9173 16.7247 18.9233 18.2605 18.9167C19.7029 18.9105 19.7089 18.9103 19.824 18.8637C19.9932 18.795 20.1447 18.6528 20.2273 18.4849L20.2965 18.3446L20.3036 17.8295C20.3168 16.8765 20.2341 16.203 20.0125 15.4576C19.5808 14.0057 18.661 12.7029 17.4272 11.7958C16.7937 11.33 16.0027 10.9423 15.225 10.7162C14.8292 10.6012 14.5838 10.579 14.4239 10.6438ZM7.20709 11.9707C5.00844 12.1832 3.16724 13.655 2.47567 15.7529C2.31785 16.2317 2.205 16.8668 2.205 17.2762V17.409H7.72036H13.2357L13.2206 17.1623C13.1741 16.4048 12.9943 15.7225 12.6632 15.0465C12.3375 14.3818 11.9824 13.9079 11.4188 13.3859C11.0281 13.0241 10.6548 12.7713 10.1325 12.515C9.61082 12.2589 9.0914 12.0963 8.51693 12.0094C8.20029 11.9615 7.51229 11.9412 7.20709 11.9707Z" fill="currentColor"/>
</svg>
