<svg width="21" height="21" viewBox="0 0 21 21" fill="none" xmlns="http://www.w3.org/2000/svg">
<path fill-rule="evenodd" clip-rule="evenodd" d="M10.0659 1.4074C8.54427 1.55545 7.22255 2.34854 6.37441 3.6225C6.08614 4.0555 5.80377 4.71711 5.69327 5.2185C5.60373 5.62487 5.57725 5.87645 5.57725 6.321C5.57725 7.129 5.73693 7.81419 6.08822 8.51342C6.83827 10.0065 8.21867 10.9878 9.891 11.2168C10.148 11.252 10.852 11.252 11.109 11.2168C12.2216 11.0644 13.2097 10.5792 13.9839 9.80494C14.3768 9.41212 14.6546 9.02547 14.9118 8.51342C15.2632 7.81393 15.4223 7.13068 15.4223 6.321C15.4223 5.51641 15.27 4.85646 14.9206 4.1475C14.1965 2.67803 12.8301 1.6854 11.193 1.43972C10.9228 1.39915 10.3263 1.38205 10.0659 1.4074ZM10.101 2.92089C9.24382 3.03123 8.48079 3.43405 7.92523 4.06951C6.80014 5.35641 6.79655 7.27077 7.91677 8.56355C9.15554 9.99315 11.3257 10.1423 12.7515 8.89577C14.1737 7.6524 14.3184 5.49199 13.0748 4.06951C12.4188 3.31914 11.4604 2.88927 10.469 2.90067C10.3417 2.90214 10.1761 2.91123 10.101 2.92089ZM9.77708 12.558C6.70432 12.7973 3.96894 14.4154 2.28253 16.9914C1.97411 17.4626 1.68532 18.0019 1.47414 18.501C1.40767 18.6581 1.39854 18.7009 1.39801 18.858C1.39751 19.0076 1.40639 19.0558 1.45282 19.1557C1.53023 19.3222 1.65934 19.4542 1.82398 19.5353L1.96262 19.6035L10.4051 19.6094C16.495 19.6137 18.8855 19.6089 18.984 19.5922C19.2365 19.5492 19.4361 19.3945 19.5472 19.1557C19.5936 19.0558 19.6025 19.0076 19.602 18.858C19.6013 18.6566 19.5673 18.5603 19.3104 18.0332C18.5705 16.5147 17.3866 15.1542 15.9865 14.2134C14.6482 13.3142 13.1817 12.777 11.55 12.5882C11.2183 12.5498 10.1223 12.5312 9.77708 12.558ZM9.7335 14.0724C8.99145 14.1421 8.245 14.3183 7.497 14.6006C7.16445 14.7261 6.4214 15.0958 6.1215 15.285C5.07035 15.9482 4.17552 16.8307 3.50927 17.8614L3.36057 18.0915L6.93028 18.0968C8.89363 18.0997 12.1054 18.0997 14.0675 18.0968L17.635 18.0915L17.4883 17.8606C16.9585 17.0266 16.1961 16.2201 15.3673 15.617C15.0097 15.3568 14.6374 15.1328 14.196 14.9126C13.2706 14.4507 12.3543 14.1862 11.3126 14.0802C10.9863 14.047 10.0534 14.0424 9.7335 14.0724Z" fill="currentColor"/>
</svg>
