<svg width="21" height="21" viewBox="0 0 21 21" fill="none" xmlns="http://www.w3.org/2000/svg">
<path fill-rule="evenodd" clip-rule="evenodd" d="M7.2765 0.714563C5.5024 0.914861 4.0434 2.17453 3.61341 3.87718C3.41634 4.65754 3.44478 5.49597 3.69402 6.25432C4.2085 7.8196 5.59791 8.94768 7.24357 9.13621C7.52382 9.16832 8.17761 9.15077 8.42755 9.10442C9.31915 8.93913 10.0911 8.53753 10.71 7.91693C11.7796 6.84455 12.1917 5.29912 11.8009 3.82639C11.6205 3.14668 11.2771 2.53646 10.7835 2.01843C10.1308 1.33354 9.31184 0.899825 8.379 0.745097C8.14023 0.705491 7.51113 0.688061 7.2765 0.714563ZM7.2765 2.23536C6.63757 2.35884 6.15035 2.6184 5.73619 3.05594C5.24849 3.57117 4.99382 4.21321 4.99506 4.9245C4.9959 5.40414 5.08189 5.76298 5.29588 6.17954C5.79881 7.15864 6.84808 7.73728 7.9485 7.64236C8.56409 7.58927 9.14415 7.32946 9.58295 6.91028C9.98613 6.52512 10.2397 6.08181 10.3763 5.523C10.4415 5.25619 10.4478 4.66683 10.3883 4.389C10.2735 3.85274 10.0214 3.38742 9.63797 3.00403C9.26171 2.62777 8.79866 2.3744 8.274 2.25775C8.06007 2.21018 7.4748 2.19704 7.2765 2.23536ZM7.29506 10.4578C4.26159 10.644 1.6876 12.7562 0.922424 15.687C0.75161 16.3412 0.70436 16.7636 0.703877 17.6404L0.703499 18.3442L0.772652 18.4848C0.855329 18.6528 1.00668 18.795 1.176 18.8636L1.2915 18.9105L5.7015 18.9163C8.69816 18.9203 10.1574 18.9151 10.2548 18.9001C10.4411 18.8715 10.5715 18.8036 10.6962 18.6704C10.8491 18.5069 10.888 18.4046 10.8883 18.165C10.8885 17.9941 10.8807 17.9489 10.8343 17.85C10.765 17.7023 10.6057 17.543 10.458 17.4737L10.3425 17.4195L6.27375 17.414L2.205 17.4086V17.2759C2.205 16.8668 2.31789 16.2316 2.47567 15.7529C3.11211 13.8223 4.72162 12.4123 6.7095 12.0441C7.89554 11.8244 9.08038 11.9906 10.1628 12.5284C10.5912 12.7413 10.7632 12.8528 11.277 13.2506C11.4737 13.4028 11.6024 13.4469 11.8136 13.4343C12.0929 13.4176 12.3265 13.268 12.4494 13.0271C12.5782 12.7745 12.5445 12.4527 12.3656 12.2287C12.2084 12.0318 11.5535 11.5621 11.056 11.2895C9.94713 10.6819 8.57772 10.3791 7.29506 10.4578ZM15.561 11.1586C15.4975 11.173 15.4075 11.2047 15.361 11.2289C15.2505 11.2866 15.0997 11.4496 15.035 11.5815L14.9835 11.6865L14.9777 13.3292L14.972 14.972L13.3292 14.9777L11.6865 14.9835L11.5815 15.035C11.4437 15.1026 11.2849 15.2527 11.224 15.3729C10.9942 15.8265 11.2608 16.3693 11.7599 16.464C11.8276 16.4768 12.4742 16.485 13.4215 16.485H14.9722L14.9779 18.1177L14.9835 19.7505L15.0396 19.8701C15.1111 20.0227 15.2573 20.1689 15.4099 20.2404C15.5117 20.2881 15.5576 20.2965 15.7185 20.2965C15.8824 20.2965 15.9248 20.2885 16.0384 20.236C16.1811 20.1701 16.3278 20.0305 16.3971 19.8946C16.4797 19.7328 16.485 19.6194 16.485 18.0246V16.485H18.0246C19.6194 16.485 19.7328 16.4797 19.8946 16.3971C20.0305 16.3278 20.1701 16.1811 20.236 16.0384C20.2885 15.9248 20.2965 15.8824 20.2965 15.7185C20.2965 15.5576 20.2881 15.5117 20.2404 15.4099C20.1689 15.2573 20.0227 15.1111 19.8701 15.0396L19.7505 14.9835L18.1185 14.9779L16.4865 14.9722L16.4797 13.3504C16.4724 11.5719 16.4796 11.669 16.3396 11.4657C16.1672 11.2151 15.8545 11.0918 15.561 11.1586Z" fill="currentColor"/>
</svg>
