<svg width="21" height="21" viewBox="0 0 21 21" fill="none" xmlns="http://www.w3.org/2000/svg">
<path fill-rule="evenodd" clip-rule="evenodd" d="M10.2306 1.40931C9.9262 1.44467 9.58421 1.57271 9.31457 1.75228C8.46733 2.31653 8.1371 3.38574 8.51411 4.344C8.78159 5.02385 9.46233 5.55731 10.1921 5.65897C10.4934 5.70095 10.9108 5.66017 11.2035 5.56017C11.7861 5.36117 12.2891 4.87261 12.5043 4.2966C12.9939 2.98664 12.127 1.56612 10.7415 1.40792C10.5284 1.38358 10.4503 1.38379 10.2306 1.40931ZM10.332 2.91639C10.135 2.98122 9.96129 3.14158 9.90308 3.31241C9.88489 3.36579 9.87 3.47243 9.87 3.54938C9.87 3.7368 9.9565 3.91578 10.103 4.0316C10.233 4.13435 10.3288 4.16703 10.5 4.16703C10.6712 4.16703 10.767 4.13435 10.897 4.0316C11.174 3.81265 11.2124 3.38406 10.9788 3.11867C10.859 2.98259 10.7151 2.91411 10.5315 2.90577C10.4507 2.90211 10.3609 2.90688 10.332 2.91639ZM7.5705 6.27194C7.00081 6.32518 6.51926 6.55229 6.15861 6.93785C5.55311 7.58514 5.40221 8.52255 5.77529 9.31911C6.16132 10.1433 7.02095 10.6321 7.92277 10.5402C8.95024 10.4356 9.76412 9.61749 9.84379 8.60922C9.91187 7.74761 9.5219 6.99249 8.78174 6.55275C8.45399 6.35804 7.9355 6.23784 7.5705 6.27194ZM13.0518 6.28059C12.0464 6.39024 11.2348 7.21705 11.1562 8.21178C11.0892 9.06009 11.4658 9.8036 12.188 10.249C12.7111 10.5715 13.4415 10.6413 14.0222 10.4244C15.192 9.98726 15.7533 8.64486 15.2352 7.52344C14.8454 6.67989 13.9684 6.18066 13.0518 6.28059ZM7.52415 7.79915C7.07641 7.94554 6.93046 8.51625 7.25628 8.84673C7.5121 9.10621 7.88615 9.11538 8.14993 8.86866C8.40918 8.62617 8.41497 8.21028 8.16253 7.96318C7.99924 7.80335 7.72605 7.73314 7.52415 7.79915ZM13.1145 7.7981C12.8211 7.89533 12.6547 8.11715 12.6551 8.4105C12.6554 8.60007 12.7165 8.74375 12.8501 8.86866C13.1138 9.11538 13.4879 9.10621 13.7437 8.84673C14.045 8.54114 13.9479 8.02299 13.5537 7.83214C13.4368 7.77556 13.2307 7.75958 13.1145 7.7981ZM4.72794 11.1556C3.98317 11.2129 3.31067 11.6902 2.98328 12.394C2.83061 12.7222 2.8039 12.8544 2.80384 13.2825C2.80377 13.6135 2.80972 13.6811 2.85159 13.8261C2.94907 14.1635 3.12352 14.4857 3.34114 14.7301C3.54049 14.9541 3.86116 15.171 4.1668 15.2887C4.83991 15.5479 5.64301 15.4332 6.22024 14.9955C7.05354 14.3636 7.31218 13.1981 6.82172 12.285C6.40433 11.5079 5.62351 11.0868 4.72794 11.1556ZM15.876 11.1551C14.994 11.2194 14.2277 11.8723 13.9934 12.759C13.9456 12.9397 13.9383 13.0095 13.9383 13.2825C13.9383 13.5546 13.9457 13.6261 13.9932 13.8075C14.1942 14.5766 14.7811 15.163 15.5505 15.3637C15.8164 15.4331 16.2495 15.4425 16.5131 15.3846C17.3113 15.2095 17.915 14.6341 18.1484 13.8261C18.1903 13.6811 18.1962 13.6135 18.1962 13.2825C18.1961 12.9483 18.1904 12.885 18.147 12.7365C18.0379 12.3631 17.8467 12.0357 17.5845 11.7735C17.1283 11.3174 16.545 11.1062 15.876 11.1551ZM10.08 11.1823C9.89785 11.2229 9.69394 11.2917 9.5655 11.3559C9.09115 11.5932 8.69614 12.0144 8.51411 12.477C8.28089 13.0698 8.31241 13.7291 8.60005 14.2746C8.8662 14.7793 9.28771 15.1372 9.828 15.3171C10.9309 15.6844 12.1154 15.108 12.5165 14.0089C12.7188 13.4547 12.6677 12.771 12.386 12.264C12.0988 11.747 11.6167 11.3703 11.0355 11.2087C10.8373 11.1536 10.2784 11.1382 10.08 11.1823ZM4.78241 12.6637C4.5881 12.7123 4.42485 12.8491 4.34467 13.0305C4.27957 13.1778 4.28009 13.3904 4.34591 13.5402C4.40689 13.6789 4.5814 13.8429 4.7175 13.8893C5.22415 14.0619 5.71099 13.5588 5.52313 13.0566C5.41861 12.7773 5.06929 12.592 4.78241 12.6637ZM10.3276 12.6702C9.97781 12.7688 9.78245 13.1545 9.90308 13.5086C9.94657 13.6362 10.0801 13.7852 10.2139 13.8554C10.3062 13.9039 10.3469 13.9119 10.5 13.9119C10.6531 13.9119 10.6938 13.9039 10.7861 13.8554C10.9199 13.7852 11.0534 13.6362 11.0969 13.5086C11.1151 13.4552 11.13 13.3486 11.13 13.2716C11.13 13.0263 10.972 12.7894 10.745 12.6946C10.6348 12.6486 10.444 12.6374 10.3276 12.6702ZM15.9198 12.666C15.7282 12.7111 15.547 12.8713 15.4768 13.0575C15.2883 13.558 15.7763 14.0617 16.2825 13.8893C16.4186 13.8429 16.5931 13.6789 16.6541 13.5402C16.7185 13.3935 16.7203 13.1775 16.6583 13.0373C16.5329 12.7543 16.2178 12.5959 15.9198 12.666ZM4.40007 16.0563C3.02415 16.2701 1.8749 17.2216 1.4725 18.48C1.3903 18.7371 1.3742 18.8677 1.40736 19.0086C1.44549 19.1706 1.50223 19.271 1.62519 19.3939C1.77225 19.541 1.92614 19.6016 2.1525 19.6015C2.34541 19.6014 2.4671 19.5574 2.61946 19.4326C2.74886 19.3265 2.80159 19.2377 2.89565 18.9672C3.00485 18.6531 3.12635 18.4459 3.32461 18.2359C3.90629 17.6195 4.7045 17.386 5.502 17.599C5.73756 17.662 6.09258 17.8477 6.30397 18.0185C6.6277 18.2802 6.82771 18.5702 6.96177 18.9722C7.07314 19.306 7.17702 19.4393 7.40899 19.546C7.64425 19.6541 7.93611 19.6227 8.15556 19.4655C8.29846 19.3632 8.38471 19.2289 8.46325 18.9867C8.61947 18.5047 8.88241 18.1628 9.3135 17.881C9.69028 17.6348 10.0482 17.5284 10.5 17.5284C10.9518 17.5284 11.3097 17.6348 11.6865 17.881C12.1172 18.1625 12.3829 18.5093 12.5387 18.9933C12.5736 19.1014 12.6315 19.2344 12.6676 19.2888C12.857 19.5749 13.2745 19.6915 13.5899 19.5465C13.8231 19.4393 13.9267 19.3065 14.0382 18.9722C14.1723 18.5702 14.3723 18.2802 14.696 18.0185C14.9074 17.8477 15.2624 17.662 15.498 17.599C16.2955 17.386 17.0937 17.6195 17.6754 18.2359C17.8738 18.4461 17.994 18.6511 18.1023 18.9639C18.1956 19.2332 18.2507 19.3262 18.3805 19.4326C18.5329 19.5574 18.6546 19.6014 18.8475 19.6015C19.0739 19.6016 19.2277 19.541 19.3748 19.3939C19.4978 19.271 19.5545 19.1706 19.5926 19.0086C19.6258 18.8676 19.6097 18.7369 19.5274 18.48C19.1428 17.2802 18.0644 16.3443 16.7679 16.0853C16.4769 16.0272 15.943 16.0069 15.6511 16.043C14.8071 16.1473 13.9894 16.5514 13.4217 17.1448L13.288 17.2846L13.0752 17.0787C12.527 16.548 11.9087 16.2262 11.1405 16.0718C10.8728 16.018 10.13 16.0177 9.8595 16.0713C9.2324 16.1955 8.68043 16.4475 8.2005 16.8288C8.14275 16.8747 8.00955 16.9963 7.90453 17.0992L7.71353 17.2862L7.57903 17.1456C7.12501 16.671 6.45021 16.2828 5.8065 16.126C5.38513 16.0233 4.79947 15.9943 4.40007 16.0563Z" fill="currentColor"/>
</svg>
