<svg width="21" height="21" viewBox="0 0 21 21" fill="none" xmlns="http://www.w3.org/2000/svg">
<path fill-rule="evenodd" clip-rule="evenodd" d="M10.101 0.725171C9.4853 0.811145 8.93163 1.09013 8.48773 1.53812C8.09237 1.93712 7.83323 2.42042 7.71355 2.982C7.65987 3.23379 7.65996 3.84386 7.71369 4.095C7.86624 4.80799 8.25138 5.40592 8.83228 5.83172C9.81456 6.5517 11.1854 6.5517 12.1677 5.83172C12.7486 5.40592 13.1338 4.80799 13.2863 4.095C13.34 3.84386 13.3401 3.23379 13.2864 2.982C12.9684 1.48987 11.5947 0.51662 10.101 0.725171ZM10.1454 2.24792C9.70926 2.36214 9.32473 2.74917 9.2074 3.192C9.15024 3.40782 9.159 3.727 9.22798 3.94201C9.43693 4.5931 10.1094 4.98156 10.7835 4.84052C11.2346 4.74612 11.6302 4.38558 11.7725 3.93914C11.8403 3.72653 11.8489 3.40519 11.7925 3.192C11.707 2.86875 11.4415 2.52781 11.1489 2.36569C10.8653 2.20857 10.472 2.16241 10.1454 2.24792ZM10.0245 7.69799C9.26828 7.82502 8.56674 8.28301 8.13258 8.93304C7.66518 9.63291 7.53656 10.5526 7.79373 11.3558C8.12116 12.3784 8.99425 13.1333 10.0452 13.3024C11.5898 13.551 13.05 12.4969 13.3035 10.9504C13.3429 10.7097 13.3429 10.2903 13.3035 10.0496C13.1062 8.84575 12.1538 7.89081 10.9568 7.69669C10.719 7.65811 10.2581 7.65876 10.0245 7.69799ZM10.3093 9.17731C9.81365 9.23658 9.35625 9.64217 9.20732 10.1544C9.15833 10.323 9.15833 10.677 9.20732 10.8456C9.27967 11.0944 9.36457 11.2342 9.56518 11.4348C9.84986 11.7195 10.1091 11.8288 10.5 11.8288C10.8908 11.8288 11.1501 11.7195 11.4348 11.4348C11.7195 11.1501 11.8288 10.8909 11.8288 10.5C11.8288 10.2692 11.7909 10.1013 11.6927 9.89719C11.5982 9.70051 11.302 9.403 11.1078 9.3097C10.8516 9.1866 10.5919 9.14353 10.3093 9.17731ZM10.2324 14.6391C9.13626 14.7367 8.1729 15.4937 7.81643 16.5375C7.70131 16.8746 7.6755 17.0438 7.6755 17.4615C7.6755 17.8785 7.70109 18.0473 7.81557 18.3855C8.23143 19.6141 9.47272 20.4172 10.7587 20.2897C12.0234 20.1642 13.0199 19.2687 13.2864 18.018C13.3401 17.7662 13.34 17.1561 13.2863 16.905C13.2418 16.697 13.1412 16.3935 13.0671 16.2435C12.6788 15.4575 11.985 14.8992 11.1505 14.7012C10.9953 14.6644 10.5479 14.6113 10.458 14.6191C10.4407 14.6206 10.3391 14.6296 10.2324 14.6391ZM10.206 16.1607C10.0217 16.2002 9.75954 16.3347 9.61361 16.4644C9.44916 16.6106 9.29584 16.8466 9.22798 17.058C9.18298 17.1983 9.1725 17.2717 9.17193 17.451C9.1707 17.8451 9.28319 18.1234 9.55476 18.398C9.82228 18.6685 10.1234 18.795 10.5 18.795C10.8777 18.795 11.177 18.6689 11.4484 18.3953C11.5738 18.2689 11.6278 18.1942 11.693 18.0573C11.8021 17.8282 11.831 17.6964 11.8284 17.4405C11.8198 16.598 11.0387 15.9818 10.206 16.1607Z" fill="currentColor"/>
</svg>
