<svg width="21" height="21" viewBox="0 0 21 21" fill="none" xmlns="http://www.w3.org/2000/svg">
<path fill-rule="evenodd" clip-rule="evenodd" d="M10.3635 2.07127C10.3173 2.07509 10.2133 2.08851 10.1325 2.10109C9.63813 2.17806 9.11811 2.4876 8.82001 2.88233C8.65798 3.09689 1.27043 15.755 1.18759 15.96C0.959799 16.5237 0.98481 17.1762 1.25483 17.7135C1.59387 18.3882 2.22011 18.823 2.9627 18.8992C3.25842 18.9295 17.7416 18.9295 18.0373 18.8992C18.7799 18.823 19.4088 18.3863 19.7447 17.7135C19.9022 17.398 19.9593 17.1438 19.9592 16.758C19.959 16.4215 19.9223 16.2256 19.8075 15.9495C19.7552 15.8238 12.5206 3.38921 12.3117 3.066C11.9788 2.55095 11.4469 2.1936 10.878 2.10271C10.7122 2.07623 10.4774 2.06188 10.3635 2.07127ZM10.3097 3.59732C10.2051 3.62699 10.1211 3.68056 10.0345 3.77284C9.97443 3.83683 2.67535 16.3356 2.58795 16.5241C2.4534 16.8143 2.58837 17.1853 2.8856 17.3421L2.99249 17.3985H10.5H18.0075L18.1144 17.3421C18.4116 17.1853 18.5466 16.8143 18.412 16.5241C18.3006 16.2837 11.0189 3.82964 10.9452 3.75339C10.9032 3.70988 10.829 3.65505 10.7805 3.63155C10.669 3.57756 10.4385 3.5608 10.3097 3.59732ZM10.269 6.99504C10.0518 7.05722 9.81476 7.31961 9.76871 7.54891C9.73442 7.71968 9.73337 12.2328 9.76758 12.3942C9.8004 12.5491 9.85721 12.6522 9.97399 12.769C10.1546 12.9496 10.3829 13.0221 10.6301 12.9773C10.7994 12.9466 10.9029 12.8921 11.026 12.769C11.1428 12.6522 11.1996 12.5491 11.2324 12.3942C11.2689 12.2219 11.2645 7.72034 11.2276 7.5444C11.1971 7.39882 11.086 7.21743 10.976 7.13368C10.8243 7.0182 10.73 6.9855 10.5315 6.97962C10.4275 6.97654 10.3094 6.98347 10.269 6.99504ZM10.2434 13.9556C9.87982 14.0437 9.55865 14.3427 9.45018 14.6938C9.39289 14.8793 9.39268 15.171 9.44968 15.3556C9.56039 15.714 9.87039 16.0025 10.248 16.0986C10.417 16.1416 10.6876 16.1282 10.8592 16.0684C11.1782 15.9572 11.4516 15.6752 11.5503 15.3556C11.6073 15.171 11.6071 14.8793 11.5498 14.6938C11.3835 14.1554 10.7938 13.8222 10.2434 13.9556Z" fill="currentColor"/>
</svg>
