<svg width="21" height="21" viewBox="0 0 21 21" fill="none" xmlns="http://www.w3.org/2000/svg">
<path fill-rule="evenodd" clip-rule="evenodd" d="M7.67551 1.40997C7.3299 1.45388 6.92184 1.6194 6.65701 1.82312C6.4426 1.98808 1.84787 6.60369 1.75496 6.74745C1.56941 7.03461 1.44937 7.36618 1.40777 7.70644C1.37803 7.94966 1.37803 13.0503 1.40777 13.2935C1.44937 13.6338 1.56941 13.9654 1.75496 14.2525C1.84787 14.3963 6.4426 19.0119 6.65701 19.1768C6.93279 19.389 7.32998 19.5462 7.70647 19.5922C7.94969 19.622 13.0503 19.622 13.2936 19.5922C13.67 19.5462 14.0672 19.389 14.343 19.1768C14.5574 19.0119 19.1522 14.3963 19.2451 14.2525C19.4306 13.9654 19.5507 13.6338 19.5923 13.2935C19.622 13.0503 19.622 7.94966 19.5923 7.70644C19.5507 7.36618 19.4306 7.03461 19.2451 6.74745C19.1522 6.60369 14.5574 1.98808 14.343 1.82312C14.0672 1.61098 13.67 1.45377 13.2936 1.40774C13.0724 1.38071 7.88971 1.38277 7.67551 1.40997ZM7.74654 2.92682C7.70477 2.94183 7.63862 2.97413 7.59954 2.9986C7.56048 3.02306 6.51117 4.06174 5.26776 5.30677C3.69956 6.87702 2.9919 7.59944 2.95776 7.66498L2.90851 7.75948V10.5V13.2405L2.96748 13.3468C3.04888 13.4937 7.5282 17.9709 7.66501 18.0422L7.75951 18.0915H10.5H13.2405L13.3469 18.0325C13.4937 17.9511 17.971 13.4718 18.0423 13.335L18.0915 13.2405V10.5V7.75948L18.0423 7.66498C17.971 7.52817 13.4937 3.04885 13.3469 2.96745L13.2405 2.90848L10.5315 2.90399C8.35222 2.90038 7.80767 2.90485 7.74654 2.92682ZM10.332 5.59411C10.1777 5.62834 10.0933 5.67572 9.97373 5.79525C9.85722 5.91178 9.8004 6.01499 9.7676 6.16976C9.73658 6.31609 9.73419 10.8205 9.76503 10.9831C9.80922 11.2161 9.97201 11.427 10.185 11.5272C10.2839 11.5737 10.3292 11.5815 10.5 11.5815C10.6708 11.5815 10.7161 11.5737 10.815 11.5272C11.028 11.427 11.1908 11.2161 11.235 10.9831C11.2652 10.8237 11.2634 6.34795 11.2331 6.18375C11.2029 6.02022 11.1477 5.91669 11.026 5.79498C10.9043 5.67326 10.8008 5.61814 10.6372 5.5879C10.4906 5.56078 10.4814 5.56097 10.332 5.59411ZM10.2313 13.2627C9.86556 13.3611 9.55783 13.6524 9.4497 14.0024C9.39848 14.1682 9.39422 14.4492 9.44021 14.6257C9.48777 14.8084 9.56986 14.9456 9.72457 15.1012C10.1565 15.5356 10.8313 15.5409 11.2639 15.1133C11.4968 14.8831 11.592 14.6529 11.592 14.3198C11.592 13.9969 11.4707 13.7278 11.2273 13.5109C10.9562 13.2693 10.5671 13.1723 10.2313 13.2627Z" fill="currentColor"/>
</svg>
