<svg width="21" height="21" viewBox="0 0 21 21" fill="none" xmlns="http://www.w3.org/2000/svg">
<path fill-rule="evenodd" clip-rule="evenodd" d="M9.177 0.71568C8.08248 0.791385 7.02946 1.05911 6.00865 1.5212C5.75303 1.63691 5.6574 1.68636 5.2815 1.89716C3.92641 2.65702 2.65705 3.92639 1.89718 5.28148C1.68638 5.65738 1.63693 5.75301 1.52122 6.00862C0.585018 8.07681 0.440328 10.3228 1.10273 12.5051C1.33209 13.2608 1.76921 14.1773 2.2255 14.8595C3.59194 16.9021 5.75085 18.3243 8.148 18.7608C9.45548 18.9988 10.8415 18.948 12.1134 18.6154C13.3534 18.291 14.577 17.6722 15.5266 16.889L15.6918 16.7528L17.4166 18.4742C19.2992 20.3529 19.2057 20.2703 19.4823 20.2992C19.9469 20.3478 20.353 19.9355 20.2984 19.4707C20.267 19.2038 20.3426 19.2889 18.4742 17.4166L16.7529 15.6917L16.889 15.5266C17.6722 14.577 18.2911 13.3534 18.6154 12.1133C18.948 10.8415 18.9989 9.45546 18.7608 8.14798C18.3243 5.75083 16.9022 3.59192 14.8595 2.22547C14.3624 1.89296 13.6147 1.50612 13.0617 1.2953C11.8305 0.826014 10.4848 0.625212 9.177 0.71568ZM9.1455 2.22516C7.68476 2.35626 6.22488 2.93496 5.103 3.82763C3.42033 5.1665 2.39316 7.08784 2.22287 9.21493C2.1911 9.61166 2.21302 10.4301 2.26544 10.8045C2.54092 12.7718 3.51645 14.503 5.03958 15.7274C6.19049 16.6527 7.51172 17.1955 9.0405 17.3714C9.38093 17.4105 10.3157 17.4039 10.668 17.3599C12.4694 17.1346 14.0311 16.3624 15.267 15.0857C16.4377 13.8764 17.1455 12.3825 17.3599 10.668C17.4039 10.3157 17.4105 9.38091 17.3714 9.04048C17.1956 7.51241 16.6522 6.18994 15.7275 5.03956C14.503 3.51637 12.778 2.54417 10.8045 2.265C10.4756 2.21846 9.48513 2.19469 9.1455 2.22516ZM9.64645 5.5868C9.42776 5.6301 9.2224 5.79781 9.12032 6.01648L9.0615 6.14248L9.0557 7.59618L9.04989 9.04987L7.5962 9.05568L6.1425 9.06148L6.0165 9.1203C5.6978 9.26906 5.52659 9.59017 5.58554 9.92861C5.5986 10.0037 5.6289 10.1036 5.65286 10.1505C5.71981 10.2818 5.90176 10.4468 6.04176 10.5034L6.1635 10.5525L7.60656 10.5587L9.04963 10.5649L9.05556 12.0182L9.0615 13.4715L9.11795 13.5919C9.18666 13.7386 9.34013 13.8964 9.4815 13.9659C9.57287 14.0108 9.61512 14.0175 9.807 14.0173C10.0049 14.0172 10.0384 14.0115 10.1335 13.9614C10.2825 13.8829 10.4116 13.7464 10.4875 13.587L10.5525 13.4505L10.5587 12.0077L10.5649 10.5649L12.0077 10.5587L13.4505 10.5525L13.587 10.4875C13.7464 10.4116 13.883 10.2825 13.9614 10.1334C14.0115 10.0383 14.0172 10.0049 14.0174 9.80698C14.0175 9.61361 14.011 9.57356 13.965 9.48148C13.8934 9.33836 13.737 9.18592 13.592 9.11793L13.4715 9.06148L12.0182 9.05554L10.5649 9.04961L10.5587 7.60654L10.5525 6.16348L10.5034 6.04174C10.4471 5.90234 10.282 5.71987 10.152 5.6536C10.0685 5.61099 9.85952 5.5629 9.77689 5.56729C9.75303 5.56855 9.69433 5.57733 9.64645 5.5868Z" fill="currentColor"/>
</svg>
